<?xml version="1.0" encoding="UTF-8" standalone="no"?>
<!-- Created with Inkscape (http://www.inkscape.org/) -->

<svg
   width="210mm"
   height="297mm"
   viewBox="0 0 210 297"
   version="1.1"
   id="svg1"
   inkscape:version="1.4.2 (ebf0e940d0, 2025-05-08)"
   sodipodi:docname="glirrel7.svg"
   xmlns:inkscape="http://www.inkscape.org/namespaces/inkscape"
   xmlns:sodipodi="http://sodipodi.sourceforge.net/DTD/sodipodi-0.dtd"
   xmlns="http://www.w3.org/2000/svg"
   xmlns:svg="http://www.w3.org/2000/svg">
  <sodipodi:namedview
     id="namedview1"
     pagecolor="#ffffff"
     bordercolor="#666666"
     borderopacity="1.0"
     inkscape:showpageshadow="2"
     inkscape:pageopacity="0.0"
     inkscape:pagecheckerboard="0"
     inkscape:deskcolor="#d1d1d1"
     inkscape:document-units="mm"
     inkscape:zoom="0.3873913"
     inkscape:cx="352.3569"
     inkscape:cy="551.12233"
     inkscape:window-width="1920"
     inkscape:window-height="1080"
     inkscape:window-x="0"
     inkscape:window-y="0"
     inkscape:window-maximized="1"
     inkscape:current-layer="layer1" />
  <defs
     id="defs1" />
  <g
     inkscape:label="Layer 1"
     inkscape:groupmode="layer"
     id="layer1">
    <path
       d="m 41.713751,36.258979 1.193116,1.193114 -1.193116,-1.193114 M 39.327476,37.452093 34.27232,60.121544 21.43053,85.177268 c 9.506453,5.972564 17.798145,5.481888 27.442001,0 l -2.386275,3.579391 c 7.034993,7.843586 11.092432,26.505201 -2.425822,31.375831 -6.085211,2.19246 -13.154521,-0.7874 -19.032117,2.2454 -9.040397,4.66482 -10.007137,15.24195 -1.211512,20.06961 0.378345,-5.02057 2.665907,-10.9889 8.352796,-12.1366 4.047516,-0.81685 8.009489,2.85702 11.93038,3.5168 11.379775,1.91494 21.336182,-2.18935 29.828229,-9.27715 l -14.317558,10.73817 16.703833,16.70384 -1.193116,19.09006 H 73.92821 C 69.225062,161.02079 60.874838,144.7021 51.258759,138.86811 l 5.965664,10.73818 -8.351892,7.15878 3.579389,-1.19312 c -10.087092,18.00761 7.485128,29.0834 22.669449,34.60078 -4.942556,9.75506 -13.917702,11.9422 -23.86261,13.1244 l -4.772503,5.96566 v 2.38623 H 150.28855 v -2.38623 l -23.86261,-2.38626 c 2.12039,-7.17328 3.38493,-19.33653 -3.57939,-23.86257 l 1.19311,-4.77256 c 5.28392,4.56286 12.41736,3.5426 19.09011,3.57939 l -2.38628,-2.38623 v -1.19316 l 11.93129,-2.38623 v -1.19316 H 145.516 v -1.19311 c 7.8967,-0.69464 12.71331,-3.89699 16.70383,-10.73817 l -10.73817,4.77251 13.12444,-20.28319 h -1.19316 l -5.96562,7.15879 4.77251,-20.28324 h -1.19312 l -4.77255,11.93129 c 3.34377,-8.9287 2.06286,-16.32049 -1.19311,-25.05573 h -1.19312 v 9.54506 h -1.19315 l -3.5794,-17.89695 -1.19311,2.38627 h -1.19311 c -0.57284,-7.19697 -3.52835,-14.35507 -1.06338,-21.476333 4.51226,-13.03574 22.23762,-20.96334 32.64083,-9.290043 10.21385,11.460856 -4.13541,20.176796 -14.87367,15.255662 5.91047,10.155904 19.15396,7.891744 21.47634,-3.579389 h 1.19316 c -2.97751,27.411243 -38.38332,7.721963 -21.47634,-7.158778 v -1.193116 l -3.57939,1.193116 3.57939,-3.579391 v -1.193114 c -23.00874,7.265969 -12.3981,34.969656 8.35189,36.987006 6.46739,0.6288 20.53986,-8.64952 22.66946,-7.15878 l 7.15878,-22.669448 h 1.19315 v 8.351894 h 1.19312 c 3.0553,-24.175252 -9.34091,-42.135557 -34.60078,-44.145787 v 1.193116 c 9.55759,2.479124 18.75343,4.963614 25.05573,13.124442 -13.42117,-11.402231 -41.35574,-16.340866 -51.30457,2.386275 h -1.19311 l 5.96561,-8.351939 v -1.193114 c -8.56117,1.657589 -10.25403,7.314806 -15.51067,13.124442 l 2.38628,-14.317558 h -1.19316 l -5.96562,20.283176 h -1.19316 c 0.0555,-20.103383 14.56174,-34.184915 34.60078,-34.600734 v 1.193117 c -7.26453,2.106371 -13.27362,4.515283 -17.89695,10.738166 22.77827,-10.18499 36.07587,-6.058422 56.07712,7.15878 -11.18912,-21.568779 -50.60398,-35.852472 -69.83676,-16.311644 -10.25602,10.420297 -9.48251,24.448887 -8.90981,37.787979 h -1.19316 c -4.88005,-15.394914 -1.5734,-26.82046 5.96567,-40.566398 -18.08585,9.184252 -14.55517,33.249878 -9.54506,48.918292 -10.95967,-13.372959 -8.45507,-26.962823 -2.38623,-41.759512 -19.832226,14.736262 -5.68855,43.29927 5.96562,58.463345 l -7.15878,-4.77251 16.70383,28.63512 h -1.19311 l -20.28322,-33.40767 h -1.19312 l 20.39826,39.37329 -2.50131,26.2489 h -1.19316 C 122.67293,153.04368 109.69708,140.44426 101.03696,128.12994 89.042319,111.0741 81.331491,93.606274 71.33486,75.650659 67.371129,68.531067 59.18487,62.843188 51.258759,61.314703 l -2.386228,5.965619 H 47.67937 C 50.505588,55.264847 41.240979,47.599295 53.645034,38.645209 V 37.452093 C 40.951831,41.516927 41.488504,51.235099 41.713751,62.507819 H 40.520592 L 39.327476,37.452093 m 63.235854,56.077114 h 1.19315 c -7.731837,-24.180211 5.07879,-48.664632 31.02135,-54.883998 -5.39251,-1.637523 -11.85895,1.425892 -16.70379,3.906234 -18.968123,9.710911 -25.176757,32.560515 -15.51071,50.977764 m -68.008356,-26.248885 -4.77255,4.77255 4.77255,-4.77255 m 2.386229,4.77255 v 1.193114 l -4.772504,4.772504 c 0.165037,-3.821097 1.121054,-4.820889 4.772504,-5.965618 m 161.072517,2.38623 3.57939,7.158777 H 200.4 l -2.38628,-7.158777 M 1.1473095,94.722323 5.9198587,92.336048 3.5335841,95.915437 C 16.976214,93.419807 40.33399,101.63321 40.520592,117.39177 h 2.386275 c 0.119041,-5.58524 6.79004,-19.978199 3.498354,-24.313689 -2.688365,-3.540834 -9.492654,1.254217 -13.043409,0.953751 C 20.95618,92.982073 11.504157,81.006193 1.1473095,94.722323 m 116.9267305,1.193114 -1.19316,1.193159 1.19316,-1.193159 m 77.15576,13.919863 -0.39773,0.79543 0.39773,-0.79543 m -87.89393,32.6122 v 1.19316 l -14.317555,1.19311 v 1.19312 l 5.965621,-1.19312 -11.931282,10.73818 3.579389,-2.38627 -3.579389,22.66949 h -1.193116 v -2.38627 h -1.193159 c 1.899478,10.48655 11.090222,18.00215 21.476331,19.70782 3.65624,0.60043 9.50677,-1.58954 12.38611,1.31279 5.9888,6.03683 -4.75117,10.69664 -8.80762,12.18354 -11.347079,4.15936 -27.365382,1.39657 -39.372379,1.39657 4.715956,-10.90835 15.820923,-11.90169 11.931328,-25.05566 l 2.38623,1.19312 C 76.082248,165.20075 79.332581,135.78043 107.33587,142.4475 m -53.690836,11.93134 -1.193114,1.19311 1.193114,-1.19311 m 29.828229,17.89695 1.193116,1.19311 -1.193116,-1.19311 m 1.193116,11.93129 1.193159,1.19311 -1.193159,-1.19311"
       style="fill:#0b0b0b;stroke:none;stroke-width:1.19313"
       id="path1" />
  </g>
</svg>
