<?xml version="1.0" encoding="UTF-8" standalone="no"?>
<!-- Created with Inkscape (http://www.inkscape.org/) -->

<svg
   width="199.21001mm"
   height="192.7491mm"
   viewBox="0 0 199.21001 192.7491"
   version="1.1"
   id="svg1"
   inkscape:version="1.4.2 (ebf0e940d0, 2025-05-08)"
   sodipodi:docname="glirrel4.svg"
   xmlns:inkscape="http://www.inkscape.org/namespaces/inkscape"
   xmlns:sodipodi="http://sodipodi.sourceforge.net/DTD/sodipodi-0.dtd"
   xmlns="http://www.w3.org/2000/svg"
   xmlns:svg="http://www.w3.org/2000/svg">
  <sodipodi:namedview
     id="namedview1"
     pagecolor="#ffffff"
     bordercolor="#666666"
     borderopacity="1.0"
     inkscape:showpageshadow="2"
     inkscape:pageopacity="0.0"
     inkscape:pagecheckerboard="0"
     inkscape:deskcolor="#d1d1d1"
     inkscape:document-units="mm"
     inkscape:zoom="0.83291995"
     inkscape:cx="342.77003"
     inkscape:cy="380.58879"
     inkscape:window-width="956"
     inkscape:window-height="1020"
     inkscape:window-x="960"
     inkscape:window-y="28"
     inkscape:window-maximized="1"
     inkscape:current-layer="layer1"
     showgrid="false" />
  <defs
     id="defs1" />
  <g
     inkscape:label="Layer 1"
     inkscape:groupmode="layer"
     id="layer1"
     transform="translate(-2.1758166,-34.758172)">
    <path
       d="m 148.62207,34.758172 c -8.86286,5.276684 -11.95624,9.739158 -15.07533,17.228959 h -1.07683 l 1.07683,-7.537662 h -1.07683 l -5.38403,20.459391 h -1.07684 l 1.07684,-16.152163 h -1.07684 c -3.81616,9.351996 -4.70456,15.98359 -2.15359,25.843459 h -1.07683 l -1.07681,-3.230431 h -1.07678 l 4.30722,10.768094 -4.30722,-3.230434 c 3.28418,10.285086 10.83543,17.450562 18.30575,24.766665 l -7.53766,-4.307272 9.69129,22.613022 h -1.0768 l -2.15364,-5.38402 h -1.07679 l 3.23043,23.68982 h -1.07683 l -1.07681,-5.38407 h -1.07679 l 1.07679,7.5377 -4.30723,12.92174 h -1.07683 l -1.07679,6.46086 -1.0768,-3.23044 h -1.07684 c -2.01449,5.92112 -8.66135,9.47482 -14.67141,11.04386 -1.56253,1.00902 15.03798,28.71015 18.07819,27.7432 5.81465,-1.84936 5.44551,0.58437 9.51494,-4.32913 v -1.07681 l -4.8364,-3.75959 14.52771,5.91323 v -1.07683 l -3.23044,-1.07681 v -1.07678 l 11.84493,1.07678 v -1.07678 l -8.61449,-2.15364 v -1.07681 c 8.51006,2.02606 14.758,-0.008 22.61302,-3.23042 v -1.07684 c -7.60726,0.89845 -14.80256,0.32762 -20.45938,-5.38403 8.17356,3.44991 16.31788,3.26271 24.76664,1.07679 v -1.07679 l -11.84493,1.07679 v -1.07679 l 19.3826,-6.46086 v -1.07684 l -16.15215,3.23043 v -1.07679 c 8.26022,-2.14262 16.05643,-3.67319 21.53622,-10.7681 l -18.3058,4.30723 v -1.0768 c 10.54348,-2.50433 19.85991,-8.46196 24.76666,-18.3058 l -19.3826,11.84493 v -1.07683 c 10.46071,-4.51337 18.82626,-11.69024 22.61303,-22.61303 h -1.07683 l -13.99853,13.99857 c 7.71739,-7.88092 14.55207,-16.5727 15.07536,-27.99709 h -1.07683 c -2.10655,8.33421 -3.47274,10.00883 -9.74473,15.53392 7.16894,-10.21875 9.47221,-14.24541 9.74473,-27.37886 h -1.07679 c -1.37451,9.17024 -6.5747,16.12787 -12.92174,22.61303 6.82561,-11.29701 11.80765,-20.94915 11.84493,-34.457918 h -1.07683 l -8.61446,19.382598 6.46087,-23.689867 h -1.07685 l -5.38402,15.075367 h -1.07685 l 5.38408,-20.459395 h -1.0768 l -6.46087,16.152165 h -1.07683 l 3.23042,-25.843462 h -1.07679 l -4.30722,17.228959 h -1.07684 l 1.07684,-23.689822 h -1.07684 l -1.0768,12.921728 h -1.07681 l -1.07683,-18.305796 h -1.07679 l -2.15364,20.459391 h -1.0768 l -1.07679,-19.382594 h -1.07685 l -3.23042,16.152162 h -1.07681 c -2.13772,-9.004106 1.69232,-14.704114 5.38408,-22.613027 l -8.6145,8.614499 h -1.0768 c 3.93944,-11.3618 24.43073,-22.580182 22.61302,-3.230431 4.54711,-3.91152 5.33211,-8.186842 5.38403,-13.998526 l 3.23043,2.153634 c -2.01982,-9.626383 -8.61446,-16.152162 -8.61446,-16.152162 v -1.076837 c -12.91949,-3.075878 6.2152,19.124302 2.14621,17.061161 -12.27252,-6.222664 -20.37534,-10.067138 -25.22221,-5.832288 -10.74993,9.392522 -14.51879,12.966588 -10.77239,22.920666 11.2634,29.926495 24.42939,29.965405 24.57893,59.220785 0.12127,23.72602 -29.40656,48.96064 -45.50736,60.4356 -8.53206,6.08076 -24.17951,3.75197 -24.17951,3.75197 0,0 -9.538087,-2.36348 -15.177958,-8.69538 -5.639871,-6.33191 -7.124463,-15.44878 -8.547066,-27.77468 -1.356735,-11.75519 6.05187,-22.36803 6.871279,-19.0164 1.045631,4.27695 8.281074,10.29123 4.471232,13.23538 -7.908488,6.11149 -1.582205,33.67799 15.846183,34.76255 17.42839,1.08456 28.9879,-12.79677 42.26554,-25.53815 4.56583,-4.44101 27.14011,-26.03625 -14.06256,-90.827532 -10.52802,-15.142653 17.68637,-31.659952 28.75945,-33.060457 3.48073,-0.440238 13.14306,4.118718 14.82664,5.874825 9.06024,9.45054 0.39981,-7.636441 -0.60205,-6.976603 M 2.1758166,83.214616 v 1.076837 l 3.2304318,1.076797 -2.1536176,6.460866 5.3840509,-2.153635 v 6.460864 l 6.4608633,-5.384026 v 4.307228 h 1.076815 c 7.429916,-5.809976 12.511684,9.459563 17.331168,13.282313 5.41593,4.29588 13.317398,5.51427 17.404287,11.58487 3.844261,5.71015 1.786549,15.82703 3.055126,22.5125 1.882413,9.92048 7.190568,17.73786 10.665906,26.92026 -13.946564,1.22531 -26.646306,10.75072 -24.293883,25.84346 0.766163,4.91555 6.058057,13.59028 3.853581,18.19278 -4.265152,8.9048 -14.683106,3.32391 -21.508795,5.79699 -6.213325,2.25119 -7.72708,7.05889 -15.1218778,7.23775 v 1.0768 H 194.92497 v -1.0768 l -53.84056,-2.15362 -1.0768,-23.68983 c -17.14564,-5.8449 -20.99677,-24.49272 -29.21349,-37.6884 -8.37729,-13.45354 -20.272589,-21.6544 -20.319822,-38.76518 l -5.384047,-3.23043 26.904479,1.54291 11.86072,4.91795 -3.23042,-8.6145 5.38401,1.07684 -1.07679,-2.15364 h 1.07679 l 5.38408,4.30723 1.07679,-5.38402 -1.07679,-5.38407 c -5.98624,0.0501 -12.66229,3.92047 -18.3058,2.88812 C 95.698791,110.91884 86.543204,93.26296 89.243784,76.753751 90.29157,70.348399 94.717976,66.546683 94.781543,59.524792 l -10.768111,4.30723 V 57.371157 C 76.971073,58.209869 52.45672,54.96857 49.170794,63.055131 45.288066,72.610496 65.385774,84.21779 55.948222,90.758137 45.644695,97.898584 36.667429,90.634003 26.942466,86.948568 19.701784,84.204441 9.8962711,83.235901 2.1758166,83.214616 m 49.1743524,-19.741512 -0.35896,0.717877 0.35896,-0.717877 m 20.818348,3.58935 -7.53767,-1.076797 c 2.572669,-3.909647 5.49048,-2.626387 7.53767,1.076797 m 96.912983,-4.307229 -1.07683,1.076797 1.07683,-1.076797 M 54.939539,72.446522 c 10.764195,8.90419 24.476804,18.69182 27.410484,33.381118 1.383418,6.92686 -3.941383,10.60396 -6.778252,16.15216 -2.814907,5.50523 -4.649901,14.31879 -5.357471,20.45943 -1.437846,12.47852 5.736683,22.74029 10.800517,33.38112 6.1165,12.85279 6.816796,24.18016 21.304393,31.08212 9.58651,4.567 19.92454,2.29901 30.1507,2.29901 1.34723,10.72442 -6.38264,14.89931 -17.22896,14.79121 -23.591234,-0.23524 -47.348127,0.28406 -71.069506,0.28406 v -1.07678 l 12.921718,-5.38408 c 0.01088,-15.21682 10.880169,-25.94637 26.92027,-21.53623 C 80.272277,179.96052 67.061026,169.71191 60.811329,154.28404 55.875392,142.09936 51.092217,118.77635 54.463454,105.82756 56.435824,98.251805 61.601599,92.195278 63.554028,84.291373 59.51002,82.175709 53.221391,77.71411 54.939539,72.446439 m 71.069501,9.691297 1.07684,2.153637 -1.07684,-2.153637 m 13.99857,21.536234 -1.07683,1.07679 1.07683,-1.07679 m 47.37964,4.30723 -1.07679,1.07679 1.07679,-1.07679 m -43.13575,75.95013 v 0 m 44.2126,-67.33555 -1.07685,1.07679 1.07685,-1.07679 m -2.15364,32.30432 -1.0768,1.0768 1.0768,-1.0768 m 6.46087,7.53765 -5.38408,5.38408 5.38408,-5.38408 m -13.99854,2.15364 -1.07683,1.07681 1.07683,-1.07681 m -30.15072,31.22749 -1.07679,1.07685 1.07679,-1.07685"
       style="fill:#0b0b0b;stroke:none;stroke-width:1.07681"
       id="path1"
       sodipodi:nodetypes="ccccccccccccccccccccccccccccccccsccccccccccccccccccccccccccccccccccccccccccccccccccccccccccccccccccccccccsssssczssszccssccccccccccccscsssccccccsccccccccccccscccccccccccccccccsssscccccccsscccccccccccccccccccccccccccc" />
    <path
       style="fill:#ffffff;stroke:#000000;stroke-width:0.264583px;stroke-linecap:butt;stroke-linejoin:miter;stroke-opacity:1"
       d="m 70.821888,60.88381 11.925694,-2.301449 -0.287539,7.011955 8.896819,-2.054159 c 0,0 -2.886819,10.794817 -6.993468,14.435918 0.259521,-6.28201 -4.908964,-10.484396 -4.908964,-10.484396"
       id="path2"
       sodipodi:nodetypes="cccccc" />
  </g>
</svg>
