<?xml version="1.0" encoding="UTF-8" standalone="no"?>
<!-- Created with Inkscape (http://www.inkscape.org/) -->

<svg
   width="210mm"
   height="297mm"
   viewBox="0 0 210 297"
   version="1.1"
   id="svg1"
   inkscape:version="1.4.2 (ebf0e940d0, 2025-05-08)"
   sodipodi:docname="glirrel9.svg"
   xmlns:inkscape="http://www.inkscape.org/namespaces/inkscape"
   xmlns:sodipodi="http://sodipodi.sourceforge.net/DTD/sodipodi-0.dtd"
   xmlns="http://www.w3.org/2000/svg"
   xmlns:svg="http://www.w3.org/2000/svg">
  <sodipodi:namedview
     id="namedview1"
     pagecolor="#ffffff"
     bordercolor="#666666"
     borderopacity="1.0"
     inkscape:showpageshadow="2"
     inkscape:pageopacity="0.0"
     inkscape:pagecheckerboard="0"
     inkscape:deskcolor="#d1d1d1"
     inkscape:document-units="mm"
     inkscape:zoom="0.39500114"
     inkscape:cx="321.51806"
     inkscape:cy="925.3138"
     inkscape:window-width="1920"
     inkscape:window-height="1080"
     inkscape:window-x="0"
     inkscape:window-y="0"
     inkscape:window-maximized="1"
     inkscape:current-layer="layer1" />
  <defs
     id="defs1" />
  <g
     inkscape:label="Layer 1"
     inkscape:groupmode="layer"
     id="layer1">
    <path
       style="fill:#0b0b0b;stroke:none;stroke-width:1.29044"
       d="m 121.78697,2.6780663 v 9.0330807 h -1.29043 V 5.2589465 h -1.29045 c 0.0893,10.7916055 12.0129,30.5048385 3.8713,38.7132045 L 110.17303,14.292027 h -3.87133 -1.29042 l 10.32347,36.132341 9.03313,-5.161781 c -5.79583,5.339018 -12.97253,10.183888 -15.47338,18.066164 -4.97685,15.686272 5.416,25.729265 20.63513,23.227918 -6.67267,12.568448 7.10518,23.173491 4.66786,36.132311 -2.55166,13.56719 -13.54765,26.66278 -19.9371,38.7132 -14.939077,28.17487 -23.932858,68.38905 -63.447613,68.39334 v 1.29042 H 174.69505 v -1.29042 c -13.0059,-0.0438 -29.70146,-11.08846 -34.8419,-23.22793 19.11548,-3.55098 41.9211,-5.22398 39.88316,-30.97054 -0.62374,-7.8802 -6.83406,-15.36726 -5.60787,-23.22794 3.2441,-20.79632 11.10067,-34.86983 7.01876,-56.779375 l -5.16173,2.580901 c 5.70019,23.137824 -5.17184,40.201634 -10.32355,61.941124 l -2.58084,-1.29044 -14.19486,20.64704 12.90436,-38.7132 h -1.29042 l -2.58087,6.45221 h -1.29042 l 9.03305,-38.7132 -14.19481,3.87132 v -1.29047 l 33.55141,-21.722407 14.19485,-1.505523 h 1.29043 v 2.5809 h 1.29048 l 2.58084,-2.5809 c -4.33243,-21.232779 -29.95316,-1.64094 -41.29404,1.563317 -5.77925,1.632847 -12.12205,1.017583 -18.06618,1.017583 v -2.5809 h 7.74263 l -9.03305,-6.452166 3.87132,-1.290465 V 78.81403 l -19.3566,1.290429 V 78.81403 c 7.82361,-2.024206 16.47352,-3.832156 24.51833,-1.89286 10.0018,2.411068 13.70694,7.871107 24.51836,4.473754 l -3.87134,-7.742637 c 16.19334,6.896288 12.46254,-26.949295 30.97057,-20.647072 l 3.87134,-2.580847 C 198.1992,30.503139 176.76164,60.799455 164.3715,61.739594 144.4012,63.25496 125.84081,24.163492 125.65831,7.8398253 h -1.29043 v 2.5808817 h -1.29049 L 121.78697,2.6780663 M 50.812777,25.905987 v 1.29044 c 8.26824,2.456083 13.128084,7.820262 16.775721,15.485279 C 58.690079,33.992543 50.385796,29.811688 37.908356,29.777308 v 1.290438 L 53.393625,41.391268 C 36.462584,29.864693 12.117493,34.122696 4.3569297,54.295687 H 5.6473691 C 14.950165,42.346179 26.094363,39.572059 40.489264,41.391268 v 1.290438 C 30.294535,42.710078 21.070268,44.424713 14.680448,53.005215 L 32.746601,47.84347 v 1.290425 c -8.449369,2.310987 -15.435615,5.680147 -20.64703,12.904432 L 28.875297,53.005215 C 19.616834,60.701226 13.137494,66.123367 12.099571,78.81403 h 1.290438 C 16.264247,71.957637 19.592252,66.83691 26.29442,63.328751 17.142521,72.982444 14.527092,81.603135 18.551767,94.299313 h 1.290442 L 25.003967,80.104459 C 23.227845,85.951691 24.755819,95.614265 20.450613,100.19094 14.30208,106.72728 8.0845482,99.80856 9.5186895,93.008892 -3.7339758,102.38145 21.507988,116.13429 32.237809,105.40448 37.966198,99.676044 36.535156,90.0821 37.908356,82.685346 h 1.290485 c 0.726419,6.517473 3.473029,9.620969 9.033057,12.904389 l -5.161756,2.580901 v 1.290422 C 53.251075,95.958997 54.073221,87.541932 49.522322,78.81403 h -1.290424 c 2.95352,9.50465 -6.512012,12.879997 -7.04266,3.850398 C 40.597579,72.596996 54.943183,68.280382 62.407814,71.546339 72.997163,76.179435 77.444365,88.735334 77.91204,99.461058 h -1.290484 l -1.290424,-7.742645 h -1.290423 l 2.580847,20.647077 h -1.290424 l -1.290423,-11.61397 h -1.290455 l -1.290424,21.93746 h -1.290423 v -15.48529 h -1.290486 v 27.09925 h -1.290423 l -1.290424,-19.3566 h -1.290483 v 25.80882 h -1.290425 l -2.580879,-19.35662 h -1.290424 l 2.58088,27.09925 h -1.290456 v -2.58088 h -1.290424 l 11.613967,23.2279 C 62.834584,160.33187 56.513753,150.56283 54.684108,138.17426 h -1.290483 l 6.452238,24.51838 -2.580906,-1.29046 c 8.466817,18.1088 21.536095,16.6268 34.84189,27.09923 L 72.750254,184.6301 v 1.29047 l 28.389686,2.58084 4.27957,-19.3566 -5.15581,-14.19479 7.32842,-18.06618 -2.58084,1.29042 v -1.29042 l 9.03306,-24.51835 h -1.29043 l -1.29045,5.16175 h -1.29043 l 1.29043,-12.90439 h -1.29043 l -2.58091,3.87132 c 4.89719,-13.076597 -0.72974,-19.030177 -3.481,-31.021384 -1.47037,-6.408612 -0.39018,-14.039467 -0.39018,-20.596251 h -1.29042 v 2.580897 h -1.29046 L 98.559212,37.519946 H 97.26873 l 1.290482,14.194845 -2.580907,2.580896 H 94.687881 L 83.073917,27.196427 h -1.290454 l 6.452215,21.937468 H 86.945254 L 83.073917,34.939066 h -1.290454 l 1.290454,7.74264 H 81.783463 C 79.073048,34.217212 72.97567,29.389087 65.007741,25.905987 l 9.033058,16.775719 C 67.461194,33.477674 63.060362,26.473746 50.812897,25.905987 m 80.007153,36.13234 -7.74266,3.87132 c 2.24664,-3.662085 3.48515,-4.527408 7.74266,-3.87132 m -103.235206,0 -1.290424,1.290424 1.290424,-1.290424 m 7.742664,29.679984 c -0.341881,6.245187 -2.010441,10.076519 -7.742664,12.904429 l 7.742664,-12.904429 m 116.139602,20.647089 -1.29045,1.29041 1.29045,-1.29041 m -46.45583,25.80886 -1.29049,1.29047 1.29049,-1.29047 m -46.455839,5.16179 1.290422,1.29042 -1.290422,-1.29042 m 4.731574,6.02205 -0.430182,0.86029 0.430182,-0.86029 m -2.150728,13.33454 -1.290424,1.29044 1.290424,-1.29044 m 11.613967,6.45217 -1.290424,1.29048 1.290424,-1.29048 m 73.555076,14.19486 -15.42354,27.09925 11.5522,16.77568 H 86.945092 c 6.480413,-13.57114 18.878728,-10.0973 30.970578,-15.32991 12.60604,-5.45517 20.65685,-16.17395 25.80881,-28.54502 h 2.58085"
       id="path1"
       sodipodi:nodetypes="cccccccccccscsscccccssccccccccccccccccccsccccccccsccccsccccccccccccccccccccccccccscscccccccsscccccccccccccccccccccccccccccccccccccccccccccscccccccccccccccccccccccccccccccccccccccccccccccccccscc" />
  </g>
</svg>
