<?xml version="1.0" encoding="UTF-8" standalone="no"?>
<!-- Created with Inkscape (http://www.inkscape.org/) -->

<svg
   width="202.81071mm"
   height="202.74626mm"
   viewBox="0 0 202.81071 202.74626"
   version="1.1"
   id="svg1"
   inkscape:version="1.4.2 (ebf0e940d0, 2025-05-08)"
   sodipodi:docname="glirrel6.svg"
   xmlns:inkscape="http://www.inkscape.org/namespaces/inkscape"
   xmlns:sodipodi="http://sodipodi.sourceforge.net/DTD/sodipodi-0.dtd"
   xmlns="http://www.w3.org/2000/svg"
   xmlns:svg="http://www.w3.org/2000/svg">
  <sodipodi:namedview
     id="namedview1"
     pagecolor="#ffffff"
     bordercolor="#666666"
     borderopacity="1.0"
     inkscape:showpageshadow="2"
     inkscape:pageopacity="0.0"
     inkscape:pagecheckerboard="0"
     inkscape:deskcolor="#d1d1d1"
     inkscape:document-units="mm"
     inkscape:zoom="0.96500913"
     inkscape:cx="408.80442"
     inkscape:cy="170.98284"
     inkscape:window-width="956"
     inkscape:window-height="1020"
     inkscape:window-x="960"
     inkscape:window-y="28"
     inkscape:window-maximized="1"
     inkscape:current-layer="layer1"
     showgrid="false" />
  <defs
     id="defs1" />
  <g
     inkscape:label="Layer 1"
     inkscape:groupmode="layer"
     id="layer1"
     transform="translate(-3.4979582,-4.2036839)">
    <path
       d="m 160.84436,4.2036839 v 1.2287506 l 7.3726,4.9150465 -15.97399,-4.9150465 v 1.2287496 l 8.60139,1.2287969 V 9.1187305 L 142.41288,7.889981 v 1.2287495 c 11.30894,5.4831195 12.33714,21.1816565 11.05889,31.9479175 h -1.2288 v -2.457546 h -1.22875 l -1.22875,9.830139 h -1.22879 v -4.915093 h -1.22875 l -2.45754,15.973982 h -1.22876 v -6.143842 h -1.22875 v 13.516435 h -1.22879 v -3.686296 h -1.22876 v 8.601343 h -1.22874 v -3.686296 h -1.2288 l 1.2288,12.287639 h -1.2288 v -4.915047 h -1.22875 l 1.22875,28.261624 h -1.22875 l -1.22875,-4.915098 h -1.2288 l 6.14384,20.889028 h -1.22874 l -2.45755,-2.45754 1.22875,-4.91505 h -1.22875 c -0.80284,2.40841 -1.22875,3.13829 -1.22875,0 h -1.2288 l 2.45755,18.43148 h -1.22875 v -7.37259 h -1.2288 v 13.51643 h -1.22875 v -8.60138 H 131.354 v 12.28768 h -1.2288 v -3.6863 h -1.22876 l -1.22874,8.60135 h -1.2288 v -3.6863 h -1.22875 c -1.20948,6.78098 -4.30254,11.86716 -9.83014,15.97394 l 2.45754,-4.91504 -1.22874,-1.22876 c -12.01061,4.222 -12.28068,-13.96719 -13.61507,-22.11777 -2.02458,-12.36701 -0.37107,-28.72609 7.03983,-39.320516 8.00652,-11.446214 19.96224,-17.781163 21.20571,-33.17667 0.63565,-7.870167 3.46185,-23.473314 1.0467,-30.651827 -3.49509,-10.388413 -13.53334,-4.568686 -14.44843,3.619002 l 8.60135,-1.228796 c -5.72717,12.869133 -8.6914,26.925452 -24.57527,29.490371 v -1.22875 c 16.39408,-5.235122 6.21345,-16.809836 5.80249,-29.490371 -0.1658,-5.115489 5.64942,-13.089546 -2.1162,-14.745185 l 1.22875,-3.6862975 c -5.41448,1.1024295 -8.012599,3.3841945 -9.830135,8.6013425 -4.206541,-1.402162 -9.153722,-2.959161 -13.516392,-3.686296 -3.653556,-0.608894 -6.871954,0.489215 -9.830139,1.228797 -3.659686,0.914898 -9.171181,0.474307 -12.28764,2.457499 -5.676873,3.612548 0.592408,9.786159 2.4575,13.516437 3.551709,7.103417 21.040939,15.366295 18.431482,25.804074 -5.082793,20.33122 -25.804075,36.774402 -25.804075,58.980746 0,6.43191 -1.370675,19.01037 -3.686296,18.43148 l 1.228796,2.45754 c -2.087778,-2.17796 -3.645103,-6.68098 -6.515514,-7.80588 -12.668785,-4.96502 -20.494833,16.42381 -21.328923,25.00857 -0.897854,9.24093 4.541053,18.41676 9.412955,25.80408 -10.263346,0.21177 -33.3894166,-0.55934 -31.9479177,14.74519 l 8.6013427,2.45754 -1.22875,-7.37259 h 1.22875 l 3.686297,4.91505 v -6.14385 l 30.488771,-1.86022 8.894296,-14.14975 14.73195,12.2706 23.297209,9.88322 c -15.025647,12.30416 -42.680789,9.57861 -61.438244,11.05888 v 1.22875 H 159.61556 v -1.22875 l -62.667025,-2.45754 c 12.467875,-11.97477 4.654235,-13.84659 1.228798,-28.26158 5.315877,2.93989 14.040287,7.03515 19.660217,3.68629 l 4.91505,3.6863 -1.22875,-2.45754 h 1.22875 l 8.6014,2.45754 -1.2288,-2.45754 h 1.2288 18.43147 l -2.45754,-1.22876 v -1.22874 h 6.14384 v -1.2288 h -3.6863 v -1.22875 l 18.43149,-8.60134 v -1.2288 h -3.6863 v -1.22874 l 7.37259,-1.22876 3.6863,-3.6863 v -1.22879 h -2.45754 v -1.22875 h 3.68628 v -1.22875 h -3.68628 v -1.2288 l 6.14384,-1.22874 v -1.22876 c -2.40846,-0.80283 -3.13829,-1.2288 0,-1.2288 V 149.198 h -3.6863 v -1.22876 l 11.05889,-3.68629 v -1.2288 l -6.14385,1.2288 v -1.2288 l 6.14385,-4.91504 v -1.22876 l -3.6863,-1.22878 4.91504,-3.6863 -1.22874,-3.6863 3.6863,-1.22875 -1.2288,-3.6863 3.6863,-1.22875 v -1.22879 l -6.1438,2.45754 v -1.22875 l 4.91504,-4.91509 -4.91504,1.2288 7.37259,-7.3726 -7.37259,2.4575 4.91504,-3.68629 v -1.22876 l -3.6863,1.22876 -2.45754,-4.91505 11.05889,-3.68629 v -1.22876 l -8.60135,1.22876 -1.22874,-3.686302 8.60134,-2.457553 v -1.228744 h -8.60134 v -1.228755 h 4.91504 v -1.228798 h -6.14384 v -1.228744 l 9.83014,-2.457553 v -3.686297 h -7.3726 V 82.84466 h 12.28765 v -1.228755 l -17.20269,-1.228792 v -1.22875 h 14.74519 l -2.45755,-3.686297 6.14385,-6.143843 4.91504,-11.058889 -9.83014,7.372594 9.83014,-18.431483 h -1.22875 l -6.14384,7.372592 3.68629,-7.372592 h -1.22874 l -7.3726,8.601389 8.60134,-15.973982 h -1.22874 l -1.2288,4.915093 -2.4575,-2.457546 -2.45755,6.143842 h -1.22875 l 3.6863,-11.058889 h -1.2288 l -2.4575,7.372593 h -1.22879 l 1.22879,-20.889028 h -1.22879 v 8.601342 h -1.22876 v -8.601342 h -1.22874 c -0.80284,2.408458 -1.2288,3.138286 -1.2288,0 h -1.22876 l 1.22876,12.287638 h -1.22876 v -8.601342 h -1.22874 v 3.686297 h -1.2288 l -1.22875,-11.05889 h -1.22875 v 8.601343 h -1.22879 l 1.22879,-12.287639 -2.45755,1.228749 v -1.228749 c 0.68033,-3.15547 0.75705,-3.719595 -2.45754,-3.686296 v 1.228749 l 2.45754,-1.228749 v 1.228749 9.83014 h -1.22874 l -4.9151,-13.516436 -13.51639,-6.1437971 m 9.83009,2.4575002 2.45756,2.4575464 -2.45756,-2.4575464 m 3.6863,1.2287969 3.6863,3.686296 -3.6863,-3.686296 m -17.20269,2.4575 v 1.228796 l -8.60138,-1.228796 h 8.60138 m 12.28765,0 3.6863,4.915093 -3.6863,-4.915093 m -18.43149,1.228796 -1.22875,1.228751 1.22875,-1.228751 m 23.34653,0 -1.22874,1.228751 1.22874,-1.228751 m -68.81083,1.228751 v 1.228749 l -8.601385,4.915093 8.601385,-6.143842 M 84.660893,25.092666 H 78.51705 v -1.228749 h 4.915093 V 20.17762 L 77.2883,21.40637 c 4.294076,-3.624854 6.569851,-1.303613 7.372593,3.686296 m 100.758747,-6.143796 1.2288,1.22875 -1.2288,-1.22875 m 3.6863,0 v 3.686296 h 1.2288 l -1.2288,-3.686296 m 6.14384,7.372593 v 9.830092 h 1.22875 l -1.22875,-9.830092 m 2.45755,6.143704 v 3.686296 h 1.22875 l -1.22875,-3.686296 m 2.4575,1.228796 1.2288,1.22875 -1.2288,-1.22875 m -9.01095,2.047932 -0.40962,0.819136 0.40962,-0.819136 m 2.86715,1.638457 1.22875,1.22875 -1.22875,-1.22875 m 4.91505,0 v 3.686296 h 1.22875 l -1.22875,-3.686296 m -6.14384,7.372593 -1.22876,1.22875 1.22876,-1.22875 m 9.83013,0 1.22876,1.22875 -1.22876,-1.22875 m -3.68629,1.22875 -1.22875,1.22875 1.22875,-1.22875 m -4.91505,2.457546 -1.22879,1.228751 1.22879,-1.228751 M 19.536307,77.929612 c 0.208058,-6.38752 2.766336,-12.025709 9.830139,-8.601389 10.673379,-11.798934 19.804108,8.532424 31.671962,6.754456 6.117697,-0.916569 11.592085,-19.901124 13.792345,-25.185938 -16.327866,5.840905 -34.127047,2.298206 -50.36138,9.078298 -7.103975,2.96687 -13.181035,12.890217 -4.933066,17.954573 m 184.314823,-25.804074 -1.22876,1.22875 1.22876,-1.22875 m -4.91505,2.457499 -4.91505,4.915093 4.91505,-4.915093 m 3.68629,0 -2.45754,6.143844 h -3.6863 l 6.14384,-6.143844 m -8.60134,1.228797 -1.22879,1.22875 1.22879,-1.22875 m 6.1438,9.830094 v 3.686295 h -4.91505 v -1.228749 l 4.91505,-2.457546 m 2.45754,1.228795 1.22876,1.228751 -1.22876,-1.228751 m 0,2.4575 -1.22874,2.457547 1.22874,-2.457547 m -3.68629,2.457547 1.22875,1.228749 -1.22875,-1.228749 m -63.89579,1.228749 1.22875,1.228797 -1.22875,-1.228797 m 63.89579,1.228797 1.22875,1.22875 -1.22875,-1.22875 m 0,2.457501 1.22875,1.228795 -1.22875,-1.228795 m -59.39036,4.505482 -0.40961,0.81918 0.40961,-0.81918 m -5.32462,4.915041 0.40962,0.819181 -0.40962,-0.819181 m 4.09587,0 -0.40962,0.819181 0.40962,-0.819181 m -0.81918,7.782211 2.45754,7.372599 h -1.22874 l -1.2288,-7.372599 m 0.81918,10.649279 -0.40962,0.81918 0.40962,-0.81918 m 50.78897,1.63836 1.2288,1.2288 -1.2288,-1.2288 m 3.6863,1.2288 1.22879,1.22874 -1.22879,-1.22874 m -57.75195,2.4575 1.22875,1.22879 -1.22875,-1.22879 m 51.60815,3.68629 -1.2288,1.2288 1.2288,-1.2288 m 6.1438,2.45755 1.22879,1.22875 -1.22879,-1.22875 m -6.1438,2.45755 -1.2288,1.22874 1.2288,-1.22874 m -54.0657,1.22874 1.22875,1.22876 -1.22875,-1.22876 m 54.0657,3.6863 -1.2288,1.22875 1.2288,-1.22875 m -6.14385,20.88903 -1.22874,1.22875 1.22874,-1.22875 m -54.47526,3.27669 -0.40961,0.81918 0.40961,-0.81918 m 54.47526,2.8671 1.22876,1.2288 -1.22876,-1.2288 m -8.60134,4.9151 -1.2288,1.22875 1.2288,-1.22875 m -9.83013,12.28764 -1.22876,1.22875 1.22876,-1.22875 m -56.5232,8.60134 -1.22879,1.2288 1.22879,-1.2288 m 4.91505,1.2288 -1.22876,1.22874 1.22876,-1.22874 m 19.66023,1.22874 -1.22876,1.22876 1.22876,-1.22876 m 15.97397,0.40962 c 0.9503,0 0.19692,0.61173 -0.4096,0.40962 z"
       style="fill:#0b0b0b;stroke:none;stroke-width:1.22877"
       id="path1" />
    <path
       style="fill:#ffffff;stroke:#000000;stroke-width:0.264583px;stroke-linecap:butt;stroke-linejoin:miter;stroke-opacity:1"
       d="m 188.63025,59.294131 c 0.15803,-3.357678 -2.33692,-6.57105 -4.78091,-8.878835 -2.73998,-2.587274 -6.47996,-4.615423 -10.24481,-4.780912 -5.3243,-0.234036 -10.95026,2.029722 -15.02572,5.4639 -2.8072,2.36548 -3.88365,6.248414 -5.4639,9.561819 -1.89275,3.968647 -3.92946,7.980108 -4.78091,12.293772 -2.33698,11.839819 -1.0508,24.135675 -0.68299,36.198325 0.17402,5.70709 1.98347,11.39843 1.36598,17.07469 -0.9268,8.51965 -2.25663,17.81883 -7.51286,24.58754 -3.75975,4.84161 -9.80638,7.90671 -15.70871,9.56182 -4.60335,1.29085 -9.76696,1.38543 -14.34273,0 -4.71377,-1.42721 -9.2474,-4.32595 -12.29377,-8.19585 -4.731612,-6.01072 -6.322341,-15.10831 -7.890151,-21.54989 -13.902559,-57.120719 19.971591,-2.38102 9.256121,-33.772079 -0.795528,-2.330507 -3.720468,-3.677636 -6.146882,-4.097925 -2.774712,-0.480618 -6.139981,0.124533 -8.195847,2.048962 -6.27138,5.870432 -9.774931,25.354652 -1.365975,48.492102 2.894033,7.963 6.162812,16.82022 12.976759,21.85559 6.217105,4.59431 14.831475,6.06457 22.538575,5.4639 11.60808,-0.9047 24.77517,-4.47221 32.26165,-13.38953 22.19687,-26.43918 -9.62362,-88.539215 22.53858,-101.082117 1.87661,-0.731855 3.71432,1.868192 4.96085,3.450413 1.74675,2.217158 0.2677,7.585174 3.07375,7.890152 3.26417,0.354769 5.30954,-4.916083 5.4639,-8.195847 z"
       id="path2"
       sodipodi:nodetypes="aaaaaaaaaaaassaaaaaaaaaa" />
    <path
       style="fill:#ffffff;stroke:#000000;stroke-width:0.264583px;stroke-linecap:butt;stroke-linejoin:miter;stroke-opacity:1"
       d="m 91.449381,23.64301 6.691416,-3.122661 4.800163,-3.852276 3.76395,-1.714624 -4.49808,5.301944 -1.33828,3.763958 2.16072,-1.97958 2.33735,-2.179282 2.23048,-2.230473 -2.76489,10.027845 v 5.79923 l -1.78437,-0.892191 -1.43097,-2.275165 0.15583,-2.386463 1.38947,-2.190656 -4.986686,0.935005 v -2.649179 l 0.155834,-1.714175 -3.91381,2.052782 -2.729123,1.98587 -2.707111,-0.454469 0.467503,-2.181676 z"
       id="path3"
       sodipodi:nodetypes="ccccccccccccccccccccccc" />
  </g>
</svg>
