<?xml version="1.0" encoding="UTF-8" standalone="no"?>
<!-- Created with Inkscape (http://www.inkscape.org/) -->

<svg
   width="210mm"
   height="297mm"
   viewBox="0 0 210 297"
   version="1.1"
   id="svg1"
   inkscape:version="1.4.2 (ebf0e940d0, 2025-05-08)"
   sodipodi:docname="glirrel4.svg"
   xmlns:inkscape="http://www.inkscape.org/namespaces/inkscape"
   xmlns:sodipodi="http://sodipodi.sourceforge.net/DTD/sodipodi-0.dtd"
   xmlns="http://www.w3.org/2000/svg"
   xmlns:svg="http://www.w3.org/2000/svg">
  <sodipodi:namedview
     id="namedview1"
     pagecolor="#ffffff"
     bordercolor="#666666"
     borderopacity="1.0"
     inkscape:showpageshadow="2"
     inkscape:pageopacity="0.0"
     inkscape:pagecheckerboard="0"
     inkscape:deskcolor="#d1d1d1"
     inkscape:document-units="mm"
     inkscape:zoom="0.3873913"
     inkscape:cx="352.3569"
     inkscape:cy="551.12233"
     inkscape:window-width="1920"
     inkscape:window-height="1080"
     inkscape:window-x="0"
     inkscape:window-y="0"
     inkscape:window-maximized="1"
     inkscape:current-layer="layer1" />
  <defs
     id="defs1" />
  <g
     inkscape:label="Layer 1"
     inkscape:groupmode="layer"
     id="layer1">
    <path
       d="m 150.77571,43.372631 24.76666,-9.691297 c -9.1308,-4.747098 -19.53616,2.332381 -24.76666,9.691297 m -7.53766,-2.153594 5.38402,-6.460865 c -8.06214,2.741074 -11.95624,9.739158 -15.07533,17.228959 h -1.07683 l 1.07683,-7.537662 h -1.07683 l -5.38403,20.459391 h -1.07684 l 1.07684,-16.152163 h -1.07684 c -3.81616,9.351996 -4.70456,15.98359 -2.15359,25.843459 h -1.07683 l -1.07681,-3.230431 h -1.07678 l 4.30722,10.768094 -4.30722,-3.230434 c 3.28418,10.285086 10.83543,17.450562 18.30575,24.766665 l -7.53766,-4.307272 9.69129,22.613022 h -1.0768 l -2.15364,-5.38402 h -1.07679 l 3.23043,23.68982 h -1.07683 l -1.07681,-5.38407 h -1.07679 l 1.07679,7.5377 -4.30723,12.92174 h -1.07683 l -1.07679,6.46086 -1.0768,-3.23044 h -1.07684 c -2.01449,5.92112 -5.83484,9.19906 -11.8449,10.7681 1.08665,12.4467 12.67844,21.80322 24.76662,23.68983 v -1.07681 l -4.30723,-3.23042 13.99854,5.38406 v -1.07683 l -3.23044,-1.07681 v -1.07678 l 11.84493,1.07678 v -1.07678 l -8.61449,-2.15364 v -1.07681 c 8.51006,2.02606 14.758,-0.008 22.61302,-3.23042 v -1.07684 c -7.60726,0.89845 -14.80256,0.32762 -20.45938,-5.38403 8.17356,3.44991 16.31788,3.26271 24.76664,1.07679 v -1.07679 l -11.84493,1.07679 v -1.07679 l 19.3826,-6.46086 v -1.07684 l -16.15215,3.23043 v -1.07679 c 8.26022,-2.14262 16.05643,-3.67319 21.53622,-10.7681 l -18.3058,4.30723 v -1.0768 c 10.54348,-2.50433 19.85991,-8.46196 24.76666,-18.3058 l -19.3826,11.84493 v -1.07683 c 10.46071,-4.51337 18.82626,-11.69024 22.61303,-22.61303 h -1.07683 l -13.99853,13.99857 c 7.71739,-7.88092 14.55207,-16.5727 15.07536,-27.99709 h -1.07683 c -2.10655,8.33421 -7.72654,13.8575 -13.99853,19.38259 7.16894,-10.21875 13.72601,-18.09408 13.99853,-31.22753 h -1.07679 c -1.37451,9.17024 -6.5747,16.12787 -12.92174,22.61303 6.82561,-11.29701 11.80765,-20.94915 11.84493,-34.457918 h -1.07683 l -8.61446,19.382598 6.46087,-23.689867 h -1.07685 l -5.38402,15.075367 h -1.07685 l 5.38408,-20.459395 h -1.0768 l -6.46087,16.152165 h -1.07683 l 3.23042,-25.843462 h -1.07679 l -4.30722,17.228959 h -1.07684 l 1.07684,-23.689822 h -1.07684 l -1.0768,12.921728 h -1.07681 l -1.07683,-18.305796 h -1.07679 l -2.15364,20.459391 h -1.0768 l -1.07679,-19.382594 h -1.07685 l -3.23042,16.152162 h -1.07681 c -2.13772,-9.004106 1.69232,-14.704114 5.38408,-22.613027 l -8.6145,8.614499 h -1.0768 c 3.93944,-11.3618 24.43073,-22.580182 22.61302,-3.230431 4.54711,-3.91152 5.33211,-8.186842 5.38403,-13.998526 l 3.23043,2.153634 C 191.8283,44.514382 186.59616,39.522404 176.61917,39.065401 v -1.076798 h 8.61449 v -1.076837 c -23.51262,-5.597896 -49.35169,16.11476 -42.22246,40.918822 3.64151,12.669482 15.9159,20.584662 19.60944,33.381122 h -1.07684 c -4.59455,-11.85934 -17.52174,-16.845744 -24.52902,-26.924408 -14.06626,-20.231764 5.17687,-40.664499 22.37543,-50.605968 -6.0403,-1.244557 -11.42546,4.424643 -16.15216,7.537703 M 2.1758166,83.214616 v 1.076837 l 3.2304318,1.076797 -2.1536176,6.460866 5.3840509,-2.153635 v 6.460864 l 6.4608633,-5.384026 v 4.307228 h 1.076815 c 7.429916,-5.809976 12.511684,9.459563 17.331168,13.282313 5.41593,4.29588 13.317398,5.51427 17.404287,11.58487 3.844261,5.71015 1.786549,15.82703 3.055126,22.5125 1.882413,9.92048 7.190568,17.73786 10.665906,26.92026 -13.946564,1.22531 -26.646306,10.75072 -24.293883,25.84346 0.766163,4.91555 6.058057,13.59028 3.853581,18.19278 -4.265152,8.9048 -14.683106,3.32391 -21.508795,5.79699 -6.213325,2.25119 -7.72708,7.05889 -15.1218778,7.23775 v 1.0768 H 194.92497 v -1.0768 l -53.84056,-2.15362 -1.0768,-23.68983 c -17.14564,-5.8449 -20.99677,-24.49272 -29.21349,-37.6884 -8.37729,-13.45354 -20.272589,-21.6544 -20.319822,-38.76518 l -5.384047,-3.23043 26.904479,1.54291 11.86072,4.91795 -3.23042,-8.6145 5.38401,1.07684 -1.07679,-2.15364 h 1.07679 l 5.38408,4.30723 1.07679,-5.38402 -1.07679,-5.38407 c -5.98624,0.0501 -12.66229,3.92047 -18.3058,2.88812 C 95.698791,110.91884 86.543204,93.26296 89.243784,76.753751 90.29157,70.348399 94.717976,66.546683 94.781543,59.524792 l -10.768111,4.30723 V 57.371157 C 76.971073,58.209869 52.45672,54.96857 49.170794,63.055131 45.288066,72.610496 65.385774,84.21779 55.948222,90.758137 45.644695,97.898584 36.667429,90.634003 26.942466,86.948568 19.701784,84.204441 9.8962711,83.235901 2.1758166,83.214616 m 49.1743524,-19.741512 -0.35896,0.717877 0.35896,-0.717877 m 20.818348,3.58935 -7.53767,-1.076797 c 2.572669,-3.909647 5.49048,-2.626387 7.53767,1.076797 m 96.912983,-4.307229 -1.07683,1.076797 1.07683,-1.076797 M 54.939539,72.446522 c 10.764195,8.90419 24.476804,18.69182 27.410484,33.381118 1.383418,6.92686 -3.941383,10.60396 -6.778252,16.15216 -2.814907,5.50523 -4.649901,14.31879 -5.357471,20.45943 -1.437846,12.47852 5.736683,22.74029 10.800517,33.38112 6.1165,12.85279 6.816796,24.18016 21.304393,31.08212 9.58651,4.567 19.92454,2.29901 30.1507,2.29901 1.34723,10.72442 -6.38264,14.89931 -17.22896,14.79121 -23.591234,-0.23524 -47.348127,0.28406 -71.069506,0.28406 v -1.07678 l 12.921718,-5.38408 c 0.01088,-15.21682 10.880169,-25.94637 26.92027,-21.53623 C 80.272277,179.96052 67.061026,169.71191 60.811329,154.28404 55.875392,142.09936 51.092217,118.77635 54.463454,105.82756 56.435824,98.251805 61.601599,92.195278 63.554028,84.291373 59.51002,82.175709 53.221391,77.71411 54.939539,72.446439 m 71.069501,9.691297 1.07684,2.153637 -1.07684,-2.153637 m 13.99857,21.536234 -1.07683,1.07679 1.07683,-1.07679 m 47.37964,4.30723 -1.07679,1.07679 1.07679,-1.07679 m -23.68981,3.23043 -1.0768,1.0768 1.0768,-1.0768 m 24.76666,5.38415 -1.07685,1.07679 1.07685,-1.07679 m -2.15364,32.30432 -1.0768,1.0768 1.0768,-1.0768 m 6.46087,7.53765 -5.38408,5.38408 5.38408,-5.38408 m -13.99854,2.15364 -1.07683,1.07681 1.07683,-1.07681 m -30.15072,31.22749 -1.07679,1.07685 1.07679,-1.07685"
       style="fill:#0b0b0b;stroke:none;stroke-width:1.07681"
       id="path1" />
  </g>
</svg>
