<?xml version="1.0" encoding="UTF-8" standalone="no"?>
<!-- Created with Inkscape (http://www.inkscape.org/) -->

<svg
   width="196.83298mm"
   height="153.28685mm"
   viewBox="0 0 196.83298 153.28685"
   version="1.1"
   id="svg1"
   inkscape:version="1.4.2 (ebf0e940d0, 2025-05-08)"
   sodipodi:docname="glirrel_leave_no_one_behind.svg"
   xmlns:inkscape="http://www.inkscape.org/namespaces/inkscape"
   xmlns:sodipodi="http://sodipodi.sourceforge.net/DTD/sodipodi-0.dtd"
   xmlns="http://www.w3.org/2000/svg"
   xmlns:svg="http://www.w3.org/2000/svg">
  <sodipodi:namedview
     id="namedview1"
     pagecolor="#ffffff"
     bordercolor="#000000"
     borderopacity="0.25"
     inkscape:showpageshadow="2"
     inkscape:pageopacity="0.0"
     inkscape:pagecheckerboard="0"
     inkscape:deskcolor="#d1d1d1"
     inkscape:document-units="mm"
     inkscape:zoom="0.34786569"
     inkscape:cx="402.45418"
     inkscape:cy="684.1721"
     inkscape:window-width="1916"
     inkscape:window-height="1020"
     inkscape:window-x="0"
     inkscape:window-y="28"
     inkscape:window-maximized="1"
     inkscape:current-layer="layer1"
     showgrid="false" />
  <defs
     id="defs1" />
  <g
     inkscape:label="Layer 1"
     inkscape:groupmode="layer"
     id="layer1"
     transform="translate(-6.6770605,-24.873724)">
    <path
       d="m 93.696562,177.76967 c -0.48725,-0.26386 -1.11234,-0.35722 -1.8415,-0.27503 -1.075531,0.12122 -1.103861,0.10566 -1.103861,-0.60638 0,-0.86167 -0.0869,-0.88407 -0.97679,-0.25163 -1.04219,0.74071 -3.56719,1.36196 -3.21421,0.79083 0.0933,-0.15092 -0.20504,-0.254 -0.73505,-0.254 -1.17102,0 -2.05353,-0.42097 -2.45496,-1.17106 -0.35017,-0.65429 -0.84688,-0.74953 -1.87345,-0.35923 -0.51689,0.19652 -0.65154,0.17028 -0.65154,-0.127 0,-0.4791 -0.25374,-0.47363 -0.95948,0.0207 -0.54036,0.37849 -0.56452,0.3669 -0.56452,-0.2707 0,-0.36635 0.11695,-0.88461 0.25988,-1.15168 0.20969,-0.39181 0.18516,-0.45692 -0.127,-0.33713 -0.83768,0.32145 -0.316,-0.38108 1.01552,-1.36757 1.06165,-0.78654 1.29308,-1.06479 0.9525,-1.14517 -0.30984,-0.0731 -0.0545,-0.28654 0.8201,-0.68556 1.14083,-0.52045 1.70921,-0.58559 5.588,-0.64041 2.55123,-0.0361 5.147571,0.07 6.345461,0.25915 1.77519,0.28033 2.40435,0.26145 5.05646,-0.15174 1.674678,-0.26092 3.514278,-0.40541 4.114348,-0.32316 1.28312,0.17587 4.41464,-0.36078 4.5772,-0.78441 0.0624,-0.16264 0.008,-0.74804 -0.12198,-1.30087 -0.1295,-0.55283 -0.24694,-0.76232 -0.26097,-0.46552 l -0.0255,0.53963 -1.03608,-0.51261 c -0.75758,-0.37482 -1.00428,-0.63425 -0.91775,-0.96513 0.0811,-0.31024 0.007,-0.40967 -0.2368,-0.31624 -0.25204,0.0967 -0.30627,0.009 -0.18682,-0.30231 0.13244,-0.34515 0.0654,-0.40607 -0.31462,-0.28592 -1.83115,0.57893 -3.93742,0.73274 -11.580288,0.84564 -6.045341,0.0893 -9.326061,0.0324 -11.176001,-0.1938 -1.44025,-0.17612 -3.13299,-0.27661 -3.76164,-0.22332 -3.10493,0.26319 -4.76637,0.12594 -5.55703,-0.45907 -0.459,-0.33962 -1.13728,-0.5715 -1.67168,-0.5715 -0.49461,0 -0.89929,-0.0976 -0.89929,-0.21689 0,-0.11928 -0.77152,-0.21562 -1.7145,-0.21408 -1.40715,0.002 -4.30144,-0.45449 -3.52174,-0.55582 0.12361,-0.0161 -0.0764,-0.26611 -0.4445,-0.55565 -0.39462,-0.31041 -0.66926,-0.77944 -0.66926,-1.143 0,-0.74534 -0.0261,-0.74801 -1.07336,-0.10951 -0.4574,0.27888 -1.05408,0.50748 -1.32596,0.508 -0.41993,8e-4 -0.36258,-0.1386 0.381,-0.92622 0.63779,-0.67557 0.73759,-0.87795 0.36775,-0.74577 -0.76577,0.27368 0.79316,-1.29625 1.90457,-1.918 l 0.889,-0.49734 -1.1287,0.15001 c -1.12358,0.14933 -1.12657,0.14765 -0.65913,-0.36886 0.25894,-0.28613 0.7872,-0.51887 1.17768,-0.51887 0.38946,0 1.11136,-0.23792 1.60422,-0.52872 0.82465,-0.48655 1.041,-0.50623 2.71336,-0.24675 1.6682,0.25883 1.90949,0.23731 2.94171,-0.26238 1.37659,-0.6664 1.93841,-0.57686 4.80271,0.76539 l 2.13715,1.0015 v -0.74552 c 0,-0.71026 0.74806,-1.76152 1.25347,-1.76152 0.60536,0 1.50566,0.5336 2.45544,1.45533 0.92764,0.90024 1.20847,1.02267 2.66451,1.16165 3.11365,0.29719 4.53854,-0.36146 5.81148,-2.68636 0.32331,-0.59049 0.43431,-0.93075 0.24667,-0.75612 -0.60149,0.55976 -0.77251,0.3405 -0.35864,-0.45982 l 0.40196,-0.77732 -0.66677,0.43688 -0.66677,0.43689 0.78365,-1.32909 c 1.659361,-2.81427 1.880741,-4.12802 1.11949,-6.64344 l -0.41751,-1.3796 -0.37215,0.889 -0.37215,0.889 -0.43735,-1.397 c -0.24054,-0.76835 -0.8136,-2.05973 -1.27348,-2.86972 -0.71627,-1.2616 -0.81892,-1.6518 -0.7161,-2.72194 0.13102,-1.36352 -0.1274,-1.42721 -0.67923,-0.1674 -0.57867,1.32108 -0.49196,-0.075 0.1017,-1.63742 l 0.49621,-1.30593 -0.64532,0.6047 c -0.35493,0.33259 -0.83147,0.91903 -1.05898,1.30321 -0.43173,0.72902 -0.81213,0.9144 -0.81213,0.39577 0,-0.1665 -0.4652,-1.08579 -1.03379,-2.04286 -1.10122,-1.85362 -1.14954,-2.45646 -0.32609,-4.06791 0.38455,-0.75255 0.1062,-0.94927 -0.42963,-0.30364 -0.18024,0.21718 -0.55214,0.51499 -0.82646,0.6618 -0.41064,0.21976 -0.38068,0.11212 0.16961,-0.60935 0.82517,-1.08184 0.84876,-1.33922 0.0764,-0.83313 -0.42941,0.28135 -0.91976,0.34296 -1.78539,0.22432 -1.31479,-0.18022 -1.31873,-0.0193 0.0452,-1.84454 0.80717,-1.08021 0.50544,-0.98761 -0.84847,0.26039 -1.11708,1.02969 -1.13733,1.03676 -1.13733,0.39753 0,-0.35795 0.11147,-0.944 0.24772,-1.30235 0.34324,-0.9028 0.10474,-0.81669 -0.3905,0.14099 l -0.40983,0.79252 -0.47075,-0.77408 c -0.25891,-0.42575 -1.24125,-1.49676 -2.18298,-2.38002 -0.94173,-0.88327 -2.09145,-1.96599 -2.55495,-2.40604 -0.61501,-0.58392 -0.84706,-1.03001 -0.85881,-1.651 -0.0145,-0.76478 -0.0394,-0.79306 -0.24581,-0.2794 -0.37865,0.94201 -0.56733,0.64917 -0.40915,-0.635 l 0.14862,-1.2065 -0.40271,1.10279 -0.40271,1.1028 -0.92357,-0.88098 c -0.50796,-0.48454 -1.40483,-1.22229 -1.99305,-1.63944 l -1.06948,-0.75844 0.62498,-0.58714 c 0.78228,-0.73491 0.81711,-1.18879 0.0535,-0.69685 -0.31432,0.20249 -0.97155,0.50524 -1.4605,0.67277 l -0.889,0.30461 0.889,-0.78222 c 0.64904,-0.57107 0.75188,-0.75077 0.381,-0.66574 -0.2794,0.0641 -0.9652,0.1897 -1.524,0.2792 -0.5588,0.0895 -1.22731,0.22506 -1.48557,0.30125 -0.38706,0.11419 -0.43864,0.0411 -0.29354,-0.41609 0.16815,-0.5298 0.14937,-0.53718 -0.41943,-0.16475 -0.43215,0.28295 -1.18756,0.37902 -2.75446,0.35031 -1.31552,-0.0241 -2.38227,0.0836 -2.7305,0.27561 -0.63373,0.3495 -0.69886,0.24789 -0.30856,-0.48139 0.31477,-0.58816 -0.0631,-0.65712 -0.52845,-0.0964 -0.18024,0.21718 -0.55261,0.51524 -0.8275,0.66235 -0.45725,0.24472 -0.48429,0.20571 -0.31771,-0.45837 l 0.18207,-0.72584 -0.63268,0.59417 c -0.54909,0.51567 -0.64411,0.53764 -0.71918,0.16627 -0.0773,-0.38259 -0.15859,-0.37106 -0.76723,0.1088 -0.41859,0.33001 -0.7427,0.43646 -0.84161,0.27642 -0.34443,-0.5573 -1.76745,-1.05611 -3.88497,-1.3618 -1.8171,-0.26233 -2.25916,-0.41519 -2.47965,-0.85746 -0.24473,-0.49088 -0.29375,-0.50084 -0.55725,-0.11331 -0.24775,0.36438 -0.29103,0.3198 -0.30384,-0.31296 -0.0146,-0.7216 -0.0261,-0.72773 -0.52294,-0.27813 -0.49851,0.45115 -0.50807,0.44359 -0.51178,-0.40514 l -0.004,-0.86486 -0.89859,1.016 c -0.49423,0.5588 -0.77828,0.76634 -0.63123,0.4612 0.39116,-0.81166 0.32815,-0.97594 -0.19329,-0.50404 -0.31466,0.28476 -0.54321,0.33437 -0.72107,0.1565 -0.14322,-0.14322 -1.10097,-0.51601 -2.12835,-0.82843 -1.75223,-0.53285 -1.88206,-0.62272 -2.09576,-1.45064 -0.30365,-1.17637 -0.33695,-1.19135 -1.08554,-0.48808 -0.54593,0.51288 -0.68447,0.54952 -0.88411,0.23383 -0.1302,-0.20589 -0.24211,-0.54579 -0.2487,-0.75534 -0.009,-0.29136 -0.0997,-0.26499 -0.38488,0.11204 -0.22232,0.29393 -0.37293,0.35975 -0.37293,0.16297 0,-0.22526 -0.20166,-0.27947 -0.635,-0.17071 -0.52292,0.13125 -0.635,0.0673 -0.635,-0.36221 0,-0.47728 -0.11328,-0.50995 -1.3335,-0.3846 -0.73342,0.0753 -1.19062,0.0697 -1.016,-0.0124 0.60507,-0.28473 0.31231,-0.54673 -0.77787,-0.69616 -0.60245,-0.0826 -1.96451,-0.49816 -3.02681,-0.92353 -1.06229,-0.42536 -2.12466,-0.77338 -2.3608,-0.77338 -0.24993,0 -0.37593,-0.13925 -0.30151,-0.3332 0.10326,-0.26908 -0.9628,-0.33018 -5.5398,-0.3175 -5.63978,0.0156 -5.67086,0.0127 -6.31586,-0.59272 -0.77541,-0.72784 -0.69498,-0.93256 0.45083,-1.14751 0.47645,-0.0894 0.99306,-0.31528 1.14802,-0.502 0.22417,-0.27011 0.16146,-0.31648 -0.30692,-0.22695 -0.32377,0.0619 -1.15684,0.009 -1.85126,-0.11695 -1.43313,-0.26048 -1.88252,-0.18003 -1.88252,0.33699 0,0.46684 -0.0841,0.45686 -1.2764005,-0.15143 -1.45358,-0.74156 -1.92276,-1.55991 -1.56419,-2.72825 0.34961,-1.13912 0.16119,-1.39588 -0.43972,-0.59923 -0.39887,0.52879 -0.47096,0.54816 -0.61763,0.16593 -0.0913,-0.238 -0.16606,-0.65165 -0.16606,-0.91923 0,-0.64593 1.58886,-2.37998 2.54275,-2.775093 0.8040805,-0.33306 1.0167605,-0.76086 0.37825,-0.76086 -0.5722,0 -0.45991,-0.40906 0.26987,-0.98311 1.1178605,-0.8793 2.3027005,-1.12641 4.5331705,-0.94544 1.6342,0.1326 2.16661,0.0882 2.56645,-0.21399 0.74257,-0.56123 2.33395,-0.47929 4.41083,0.2271 1.74681,0.59413 1.8287,0.60065 1.6805,0.1337 -0.14848,-0.46782 -0.11373,-0.47329 0.74003,-0.11657 0.54742,0.22873 1.61523,0.36085 2.7455,0.33972 1.01731,-0.019 1.59078,-0.0844 1.27439,-0.14516 -1.12989,-0.21717 -0.254,-0.58239 1.41575,-0.59033 1.44048,-0.007 1.63393,-0.0579 1.26922,-0.33511 -0.38471,-0.29239 -0.3309,-0.36261 0.508,-0.66289 0.51606,-0.18472 1.42407,-0.66806 2.01779,-1.07409 1.11035,-0.75933 1.46053,-1.18962 0.5882,-0.72277 -0.92629,0.49574 -0.78063,0.26057 0.82044,-1.32456 1.8162,-1.79813 2.27304,-2.64292 3.10723,-5.745947 0.32403,-1.20536 0.67326,-2.42015 0.77607,-2.69955 0.16513,-0.4488 0.10711,-0.43525 -0.49784,0.1163 l -0.68474,0.6243 0.53252,-1.20387 c 0.2929,-0.66213 0.59849,-1.99061 0.67911,-2.95219 l 0.14657,-1.74832 -0.98753,-0.29004 c -0.54314,-0.15952 -2.18768,-0.35712 -3.65453,-0.43911 l -2.667,-0.14907 -1.09679,-1.09038 c -0.92094,-0.91554 -1.08384,-1.22532 -1.016,-1.932 0.0752,-0.78313 0.18676,-0.87693 1.60559,-1.34962 2.01193,-0.6703 2.21328,-0.81864 2.01149,-1.48188 -0.27931,-0.91805 -0.90633,-1.43903 -1.73415,-1.4409 -0.43238,-9.8e-4 -1.75769,-0.24533 -2.94514,-0.54299 -1.524,-0.38203 -3.05547,-0.55312 -5.207,-0.58169 -2.80761,-0.0373 -3.16399,-0.0983 -4.51878,-0.77326 -1.35859,-0.67688 -3.48222,-2.59927 -3.48222,-3.15223 0,-0.13052 -0.53498,-0.21879 -1.18886,-0.19618 -1.08681,0.0376 -1.23943,-0.033 -1.778,-0.82194 -0.93399,-1.36826 -0.82775,-3.47936 0.29277,-5.81749 0.72545,-1.51377 1.50364,-2.48128 4.38661,-5.45383 1.92759,-1.98749 4.1582,-4.55088 4.95692,-5.69643 2.04026,-2.92619 4.33426,-5.29854 6.41156,-6.63052 0.9779,-0.62704 2.29235,-1.55195 2.921,-2.05537 0.62865,-0.50341 0.98613,-0.71527 0.7944,-0.47079 -0.19173,0.24447 -0.27137,0.4445 -0.17697,0.4445 0.0944,0 1.57098,-0.83147 3.28132,-1.84771 2.58247,-1.53443 3.7821,-2.06037 7.0756,-3.10207 l 3.9659,-1.25436 0.67362,-1.64028 c 0.92362,-2.24907 2.68009,-4.89454 3.83424,-5.77485 1.31541,-1.00331 2.89904,-1.01163 4.39286,-0.0231 1.34247,0.8884 1.90509,1.80277 2.69431,4.37874 0.83804,2.73529 1.40121,3.24583 4.19872,3.80632 1.18745,0.23791 2.44475,0.58699 2.794,0.77575 l 0.635,0.34318 -0.635,0.0179 c -0.60333,0.017 -0.60967,0.0321 -0.127,0.30239 0.2794,0.15647 1.0795,0.87625 1.778,1.5995 0.6985,0.72326 1.6129,1.55969 2.032,1.85874 0.67834,0.48402 0.70319,0.54461 0.22639,0.55177 -0.4994,0.008 -0.48223,0.0703 0.254,0.92912 1.49988,1.7496 2.82698,2.93607 4.30956,3.85288 l 1.48795,0.92014 -0.78945,0.70537 c -0.96677,0.86381 -0.9763,0.9655 -0.0909,0.97043 0.4383,0.002 0.58119,0.0784 0.38357,0.2039 -0.21051,0.13369 -0.0197,0.30677 0.57546,0.52198 0.62134,0.22468 1.0442,0.62348 1.39945,1.31981 0.27998,0.54882 0.964,1.29892 1.52004,1.66689 0.55604,0.36797 1.01098,0.72372 1.01098,0.79055 0,0.0668 -0.40005,0.0465 -0.889,-0.0453 -0.48895,-0.0917 -0.889,-0.10927 -0.889,-0.039 0,0.24392 2.26747,1.45505 3.2128,1.71607 0.86126,0.2378 0.90407,0.28872 0.45632,0.54266 -0.27177,0.15414 -1.17992,0.40785 -2.01812,0.56382 l -1.524,0.28358 0.889,0.48941 0.889,0.48942 -0.8255,0.0802 c -1.07436,0.10441 -1.04318,0.35814 0.11171,0.90887 1.53954,0.73416 4.19242,2.55245 5.41279,3.70994 1.23767,1.1739 2.60508,1.88809 4.16526,2.17551 l 0.99025,0.18242 -0.73625,0.30572 c -0.69369,0.28805 -0.62611,0.31638 1.16874,0.49003 1.04775,0.10137 2.30505,0.27909 2.794,0.39493 0.842691,0.19964 0.816221,0.21311 -0.508,0.25838 l -1.397,0.0478 1.778,0.4618 c 0.977901,0.254 2.692401,0.88061 3.810001,1.39248 1.70754,0.78206 6.571358,2.53013 8.381998,3.01252 0.2794,0.0744 -0.0635,0.0817 -0.762,0.0162 -1.01614,-0.0953 -0.30534,0.23058 3.556,1.63045 7.24131,2.6252 8.20187,3.04059 10.43734,4.51355 2.58877,1.70575 5.75096,4.99699 9.79918,10.19909 4.51516,5.802137 7.0945,9.750817 9.22324,14.119747 3.19357,6.554323 4.18172,10.021583 5.33302,18.712623 1.03873,7.84128 1.76748,11.21407 3.04923,14.11233 0.67732,1.53154 1.04278,1.7736 0.65938,0.43674 -0.3762,-1.31171 -0.7602,-5.02953 -1.03579,-10.02823 -0.5095,-9.24121 -1.22306,-11.54521 -7.77203,-25.094843 l -2.88501,-5.969 1.5384,1.651 c 0.84613,0.90805 1.41988,1.4104 1.27501,1.11634 -0.33247,-0.67484 -4.32445,-6.158897 -5.71228,-7.847337 l -1.04388,-1.27 1.1401,0.95216 c 3.37603,2.819507 3.27693,2.767097 1.82476,0.96498 -0.72034,-0.89393 -1.43893,-2.03389 -1.59687,-2.53324 -0.39779,-1.25765 -1.21585,-2.63502 -3.04468,-5.12636 l -1.56472,-2.13154 1.3638,1.26743 c 0.75009,0.69708 2.42108,2.29502 3.7133,3.55098 1.29223,1.25595 2.3495,2.19204 2.3495,2.08019 0,-0.11185 -1.55996,-2.10984 -3.46658,-4.43998 -4.7276,-5.77774 -4.34511,-5.29006 -3.89942,-4.97186 0.20955,0.1496 1.92405,1.51379 3.81,3.03154 3.62788,2.91958 3.63584,2.89272 0.26586,-0.89745 -4.06773,-4.57491 -3.8489,-4.29099 -2.33902,-3.03484 0.74571,0.62039 1.83156,1.52532 2.413,2.01096 0.81298,0.67902 0.68763,0.48315 -0.54266,-0.84797 -2.35306,-2.5459 -3.26938,-4.06592 -3.69597,-6.131 -0.20201,-0.9779 -0.66472,-2.44945 -1.02825,-3.27011 -0.36352,-0.82066 -0.66096,-1.53885 -0.66096,-1.59598 0,-0.0571 0.53261,0.50002 1.18357,1.23811 2.25596,2.55789 7.06542,7.43435 6.58426,6.67598 -0.26591,-0.4191 -1.46522,-2.0023 -2.66514,-3.51822 -3.04082,-3.8416 -3.14184,-4.00319 -1.88744,-3.01935 0.58094,0.45563 2.22135,2.14156 3.64535,3.7465 1.42401,1.60493 2.63529,2.91807 2.69174,2.91807 0.17552,0 -3.19575,-4.59525 -4.93816,-6.731 -0.91177,-1.1176 -2.56392,-3.03213 -3.67146,-4.2545 -1.10753,-1.22238 -1.91378,-2.2225 -1.79167,-2.2225 0.39549,0 3.58214,1.95585 5.22173,3.20491 0.87793,0.66881 2.68207,2.30429 4.00922,3.6344 1.32715,1.33011 2.19387,2.07847 1.92605,1.66303 -1.05799,-1.6411 -3.47121,-4.66604 -5.25538,-6.58753 -1.03272,-1.11221 -1.53477,-1.77976 -1.11567,-1.48346 0.82805,0.58544 4.93953,4.76525 6.69635,6.80765 l 1.09242,1.27 -1.14621,-2.21796 c -1.33244,-2.57831 -3.08135,-4.95219 -6.1212,-8.30864 -1.32992,-1.46842 -2.17236,-2.61343 -2.17236,-2.95257 0,-0.30468 -0.17267,-1.04336 -0.38371,-1.64152 -0.21104,-0.59816 -0.33695,-1.13431 -0.27981,-1.19146 0.15048,-0.15048 5.0484,5.38857 7.91065,8.94615 2.79726,3.47678 3.17358,3.88586 2.51561,2.73458 -0.61689,-1.07942 -3.84556,-5.39067 -7.45806,-9.95876 -2.79649,-3.53624 -2.85869,-4.08457 -0.14568,-1.28428 2.11217,2.18012 9.88242,9.55225 9.6318,9.13829 -0.12859,-0.2124 -1.54825,-2.32462 -3.1548,-4.69383 -3.41948,-5.04278 -3.36129,-4.953 -3.21015,-4.953 0.0644,0 1.4483,1.8288 3.07532,4.064 1.62702,2.2352 2.99987,4.064 3.05078,4.064 0.0509,0 -0.9946,-1.91453 -2.32337,-4.2545 -4.90822,-8.6434 -4.91633,-8.71097 -0.20571,-1.7145 1.7871,2.6543 3.35783,4.9403 3.4905,5.08 0.35118,0.36979 -0.6462,-1.5687 -4.10592,-7.98023 -1.68996,-3.13183 -3.04426,-5.71934 -3.00955,-5.75004 0.0347,-0.0307 1.49185,2.16052 3.2381,4.86935 2.76378,4.28724 4.38355,6.64837 3.98775,5.81292 -0.0662,-0.1397 -0.63611,-1.56845 -1.26652,-3.175 -0.6304,-1.60655 -1.55775,-3.89255 -2.06078,-5.08 -0.8014,-1.89179 -0.83941,-2.06845 -0.30706,-1.42737 0.81783,0.98489 2.69059,4.5724 4.36168,8.35539 0.75437,1.70774 1.37369,2.968 1.37626,2.80059 0.0188,-1.22554 -2.58618,-7.81263 -4.96722,-12.56029 -0.75796,-1.51132 -1.37811,-2.81936 -1.37811,-2.90675 0,-0.0874 0.43562,0.36827 0.96804,1.01257 1.34994,1.63361 3.11206,4.65045 5.57921,9.55186 1.16025,2.30505 2.03618,3.90525 1.9465,3.556 -0.35753,-1.3923 -2.3276,-5.73236 -4.92897,-10.8585 -1.5065,-2.96863 -2.69946,-5.3975 -2.65103,-5.3975 0.0484,0 1.75295,2.80035 3.78782,6.223 2.03486,3.42265 3.74463,6.223 3.79948,6.223 0.0995,0 -0.98554,-2.33907 -4.40675,-9.49989 -0.99456,-2.08169 -1.80588,-3.85334 -1.80293,-3.937 0.003,-0.0837 0.83362,1.41199 1.84594,3.32366 2.13735,4.0362 2.61529,4.7098 1.30976,1.84595 -1.68825,-3.70337 -2.14543,-5.41835 -2.1416,-8.03351 0.005,-3.69121 0.22552,-4.02274 0.92397,-1.39167 0.88919,3.3496 4.00426,11.5301 3.54534,9.31046 -0.35757,-1.72949 -0.88426,-5.13217 -1.0222,-6.604 l -0.15474,-1.651 0.6307,2.07636 c 0.76433,2.51634 2.48705,7.21572 2.60275,7.10002 0.0459,-0.0459 -0.0306,-0.87203 -0.16991,-1.8359 -0.33103,-2.29017 -0.33723,-7.13786 -0.009,-7.34048 0.14403,-0.089 0.254,0.12405 0.254,0.49207 0,1.08481 1.15383,6.1704 2.19348,9.66793 1.25973,4.23794 1.32953,3.58092 0.49882,-4.69586 -0.34334,-3.42092 -0.59044,-6.25367 -0.54911,-6.295 0.12772,-0.12771 0.8557,4.16101 1.54226,9.08586 1.06935,7.67063 1.07615,7.69421 1.11038,3.8551 0.0166,-1.86114 -0.14875,-5.43918 -0.36743,-7.9512 -0.21868,-2.51202 -0.35543,-4.69381 -0.30389,-4.84842 0.0515,-0.15461 0.42217,1.84603 0.82362,4.44587 0.43851,2.8398 0.82885,4.66583 0.97774,4.57382 0.15555,-0.0961 0.20031,-2.33733 0.12022,-6.01967 -0.0763,-3.50732 -0.0417,-5.40685 0.086,-4.7235 0.11749,0.62865 0.29466,3.94335 0.39371,7.366 0.12904,4.45848 0.23361,5.82688 0.36882,4.826 0.26916,-1.99254 0.72037,-9.73161 0.75319,-12.91868 0.0256,-2.48482 0.0495,-2.61032 0.29718,-1.55932 0.35342,1.49978 0.32924,12.04517 -0.0358,15.60205 -0.15663,1.52628 -0.23997,2.81987 -0.18519,2.87465 0.23577,0.23577 1.18299,-4.67718 1.55449,-8.0627 0.39344,-3.58547 1.37309,-9.76344 1.8729,-11.811 0.18318,-0.75046 0.21487,-0.1198 0.12122,2.413 l -0.12677,3.429 0.62299,-1.46366 c 0.73668,-1.73075 2.41688,-4.57544 3.33616,-5.64834 l 0.6529,-0.762 -0.49509,0.889 c -1.31041,2.35303 -3.24855,8.52943 -3.66639,11.684 -0.13643,1.02999 -0.082,0.95465 0.55099,-0.762 0.80984,-2.19641 2.43438,-5.49438 3.14203,-6.37858 0.31045,-0.38791 0.21668,-0.0573 -0.26023,0.91758 -0.85563,1.74901 -1.95051,5.09013 -2.45452,7.49014 -0.39405,1.87642 -0.32972,2.27807 0.13541,0.84538 0.97194,-2.99383 4.05124,-8.07204 6.44063,-10.62152 l 1.19025,-1.27 -1.03122,1.397 c -1.39621,1.89146 -3.56904,6.17925 -5.23422,10.32903 -0.75656,1.88543 -1.37247,3.50453 -1.36868,3.59801 0.004,0.0935 0.72985,-1.26543 1.61349,-3.0198 2.99518,-5.94664 5.54808,-9.14647 8.41262,-10.54447 1.42833,-0.69708 1.72167,-0.74462 4.67274,-0.75731 2.93253,-0.0126 3.10754,0.0135 2.54893,0.381 -3.80643,2.50381 -7.71489,6.62496 -12.0574,12.71354 -0.76987,1.07943 -0.33901,0.71608 1.89537,-1.59841 4.15367,-4.30258 7.80525,-7.13757 12.33836,-9.57918 2.35073,-1.26614 2.27825,-1.13813 -0.508,0.89723 -2.0958,1.53099 -10.47589,9.7194 -11.56078,11.29636 -0.43598,0.63372 -0.0373,0.356 1.38852,-0.96716 4.17065,-3.87047 9.66316,-7.55145 14.17685,-9.50109 1.22463,-0.52896 2.31048,-0.95814 2.413,-0.95373 0.10253,0.004 -0.84229,0.54792 -2.09959,1.20781 -3.25845,1.71017 -6.60434,4.13085 -8.763,6.33984 -0.48818,0.49957 -0.1922,0.33669 1.83581,-1.01027 1.84357,-1.22444 6.78739,-3.84887 6.94795,-3.68832 0.0666,0.0666 -0.83925,0.66018 -2.01308,1.31899 -3.27295,1.83695 -10.88565,7.79562 -10.47904,8.20223 0.15161,0.15161 2.15754,-0.98127 6.10807,-3.44962 5.45149,-3.40617 7.87523,-4.25349 11.56529,-4.04309 2.62352,0.14959 3.6552,0.5329 2.17944,0.80975 -2.75391,0.51664 -14.95506,4.98505 -15.76344,5.77303 -0.1397,0.13617 0.0889,0.11779 0.508,-0.0409 3.11346,-1.17852 9.58523,-1.943 13.83557,-1.63434 l 2.67443,0.19421 -2.413,0.3154 c -1.32715,0.17346 -3.4417,0.55621 -4.699,0.85055 -2.32251,0.54371 -7.82181,2.31851 -7.6662,2.47413 0.0469,0.0469 1.10514,-0.13325 2.35171,-0.40026 1.24657,-0.26701 3.35234,-0.62878 4.67949,-0.80395 2.74709,-0.36259 9.97142,-0.39264 11.684,-0.0486 1.09444,0.21986 1.03876,0.23762 -1.31025,0.4181 -3.24384,0.24923 -7.68437,1.18164 -10.45069,2.19442 -2.35057,0.86056 -2.75079,1.14511 -1.05893,0.75285 0.55488,-0.12865 2.15187,-0.23583 3.54887,-0.23818 3.05309,-0.005 5.93103,0.62316 8.68715,1.89657 2.17259,1.0038 5.73131,3.30047 6.66963,4.30433 l 0.62479,0.66843 -1.51379,-0.67603 c -2.39484,-1.06951 -5.62415,-2.10471 -7.97983,-2.55806 -2.30084,-0.44279 -7.09774,-0.52334 -8.64695,-0.1452 -0.74619,0.18214 -0.48099,0.24322 1.651,0.38029 2.61763,0.16828 6.61196,1.05241 8.52658,1.88732 l 1.08861,0.47471 -3.53759,-0.058 c -2.68684,-0.0441 -3.23676,-0.004 -2.28665,0.1672 1.86773,0.33624 3.57289,0.94429 5.71605,2.03832 1.97871,1.01008 4.60577,2.72482 3.701,2.41572 -2.12061,-0.72447 -6.477,-1.3827 -6.477,-0.97864 0,0.12247 0.79197,0.4267 1.75992,0.67605 3.56442,0.91821 8.20158,3.69283 9.70839,5.80894 0.55708,0.78236 0.54671,0.77944 -1.02682,-0.28913 -1.92039,-1.30411 -3.763,-2.14147 -6.19588,-2.81565 -1.00232,-0.27776 -1.87863,-0.50501 -1.94735,-0.50501 -0.0687,0 0.95768,0.53937 2.28089,1.19861 3.25601,1.62217 6.15961,4.42208 7.46189,7.19541 0.48889,1.04114 0.96639,2.23588 1.0611,2.65498 0.16852,0.74571 0.15613,0.74028 -0.57971,-0.254 -1.17442,-1.58689 -3.56182,-3.64005 -5.18597,-4.45992 -0.81398,-0.41089 -1.56418,-0.74708 -1.6671,-0.74708 -0.10292,0 0.28038,0.48577 0.85179,1.0795 1.2983,1.34902 2.80531,3.59306 3.96591,5.9055 l 0.89237,1.778 -2.49696,-2.4765 c -1.37333,-1.36208 -2.61901,-2.4765 -2.76819,-2.4765 -0.14917,0 0.25493,0.71437 0.89801,1.5875 1.60948,2.18524 2.02502,3.07549 2.76517,5.92418 0.35244,1.35648 1.04187,3.22166 1.53206,4.14483 l 0.89126,1.67849 -2.80837,-2.794 -2.80836,-2.794 1.22195,2.0395 c 1.09258,1.82357 2.49557,4.98664 2.98221,6.7235 0.0979,0.34925 -0.26063,-0.0932 -0.79664,-0.98317 -1.21687,-2.02048 -5.04919,-6.1421 -4.63588,-4.98583 0.33032,0.92407 1.50581,6.05976 1.49357,6.52537 -0.005,0.18295 -0.32546,-0.46975 -0.71255,-1.45044 -0.75811,-1.92064 -2.61846,-5.50285 -2.77599,-5.34532 -0.0529,0.0529 0.0717,0.42113 0.27692,0.81828 0.85619,1.65713 1.49666,4.1715 1.70438,6.691107 0.19221,2.33146 0.5467,4.18591 1.14102,5.969 0.0931,0.2794 -0.21303,-0.14879 -0.68036,-0.95154 -0.85717,-1.47241 -2.72995,-3.85686 -2.89757,-3.68923 -0.0498,0.0498 0.14801,0.82862 0.43962,1.73067 0.42516,1.31516 0.55267,2.49558 0.64359,5.9581 0.0624,2.3749 0.0135,4.946653 -0.10851,5.715003 l -0.2219,1.397 -0.31973,-2.794 c -0.38641,-3.376753 -1.65683,-7.393923 -3.11882,-9.861943 -0.56493,-0.95367 -1.06893,-1.69216 -1.12,-1.64109 -0.0511,0.0511 0.0761,0.58314 0.28251,1.18237 0.91546,2.65716 0.90321,7.85025 -0.0282,11.945343 -0.45883,2.01733 -0.77601,2.41198 -0.53699,0.66815 0.20671,-1.50812 -0.2302,-5.887883 -0.82419,-8.261833 l -0.47664,-1.905 -0.0279,2.95123 c -0.0154,1.62317 -0.20087,3.966323 -0.41224,5.207003 -0.36793,2.15963 -1.85996,7.33516 -2.05763,7.13749 -0.0521,-0.0522 0.0285,-1.05758 0.17915,-2.23427 0.26449,-2.06533 0.13182,-5.61312 -0.24832,-6.64074 -0.13574,-0.366933 -0.25884,-0.0989 -0.46589,1.0145 -0.15478,0.83226 -0.59096,2.30016 -0.96931,3.26199 -0.7373,1.8744 -3.29111,6.33873 -4.34229,7.5908 l -0.63974,0.762 0.62268,-1.27 c 1.97161,-4.02127 3.17955,-9.45166 2.74023,-12.319003 -0.16726,-1.09171 -0.18131,-1.0559 -0.31294,0.79815 -0.11714,1.649873 -0.33227,2.351003 -1.43362,4.672353 l -1.29579,2.73119 0.14706,-2.26996 c 0.0809,-1.24847 0.0557,-3.40818 -0.056,-4.79934 l -0.20312,-2.529393 -0.31352,1.778 c -0.44357,2.515483 -1.04675,4.731203 -1.63653,6.011593 -0.27878,0.60522 -0.44531,0.85417 -0.37007,0.55322 0.39102,-1.56393 0.86818,-6.365373 0.85435,-8.596813 l -0.0157,-2.54 -0.37439,1.74581 c -0.41866,1.95223 -1.56161,5.228483 -2.22752,6.385123 -0.24036,0.41748 -0.37573,0.55789 -0.30083,0.31201 0.1993,-0.65431 0.61129,-3.40396 0.75125,-5.013943 0.10062,-1.15752 0.0743,-1.28815 -0.15364,-0.762 -0.97865,2.25912 -2.48357,5.285153 -2.84221,5.715003 -0.39463,0.47299 -0.39455,0.44776 10e-4,-0.36614 0.84773,-1.74373 1.66204,-4.511013 2.02243,-6.872863 0.50195,-3.28957 0.43488,-3.75893 -0.23592,-1.651 -0.59447,1.86805 -1.35823,3.4322 -1.05422,2.159 0.0834,-0.34925 0.21989,-1.60655 0.30333,-2.794 0.11824,-1.68281 0.0607,-2.37593 -0.26115,-3.14252 -0.61994,-1.47688 -0.51751,-2.702367 0.3668,-4.388187 l 0.77965,-1.48629 -0.90302,0.8718 c -0.49665,0.47949 -1.13315,1.33674 -1.41444,1.905 -0.61798,1.248437 -0.65118,0.959777 -0.10228,-0.8892 0.54949,-1.85097 1.68661,-4.07548 3.10724,-6.0786 l 1.1709,-1.651 -1.32785,1.11926 c -0.73031,0.61559 -1.33297,1.18709 -1.33923,1.27 -0.006,0.0829 -0.53553,0.72224 -1.17617,1.42074 -0.64063,0.6985 -1.0728,1.09855 -0.96038,0.889 0.53579,-0.99871 2.34582,-3.52929 3.17723,-4.44206 1.89367,-2.07897 2.78474,-3.49336 3.32835,-5.28308 0.50103,-1.64956 0.52427,-1.98179 0.25031,-3.57939 -0.16609,-0.96858 -0.67075,-2.51467 -1.12145,-3.43576 l -0.81947,-1.67471 -0.13957,1.27 c -0.13759,1.25205 -0.14387,1.25989 -0.44451,0.55496 -0.16773,-0.39327 -0.30496,-0.82445 -0.30496,-0.95817 0,-0.64535 -2.16396,-2.53067 -3.46223,-3.01641 -2.751,-1.02928 -5.30708,-0.45501 -7.43676,1.6708 -1.44647,1.44384 -1.55798,1.80656 -0.4227,1.37492 0.37772,-0.1436 1.3937,-0.25818 2.25773,-0.25461 l 1.57096,0.006 -1.524,0.74017 c -0.8382,0.40709 -1.92405,1.16269 -2.413,1.6791 l -0.889,0.93893 1.16784,-0.67107 c 1.23413,-0.70916 3.81483,-1.31655 4.49115,-1.05702 0.29846,0.11453 0.0724,0.3759 -0.87987,1.01718 -0.70485,0.47467 -1.64428,1.32103 -2.08761,1.88079 -0.87207,1.10107 -2.40042,4.26086 -2.65638,5.49194 l -0.15843,0.762 0.44265,-0.62846 c 1.37992,-1.95915 3.43281,-4.32652 4.521,-5.21354 l 1.24641,-1.016 -1.4776,1.74353 c -1.8306,2.16005 -3.04684,4.04485 -4.11053,6.37006 -1.23168,2.69245 -1.30896,3.25512 -0.22875,1.66541 1.4434,-2.12419 3.56972,-4.56362 5.14752,-5.9055 0.78024,-0.66358 1.50471,-1.2065 1.60993,-1.2065 0.10522,0 -0.36715,0.73783 -1.04971,1.63962 -1.37287,1.81381 -2.69061,4.07231 -3.67453,6.29788 -0.68576,1.55115 -0.68761,1.99514 -0.003,0.67086 0.6146,-1.18851 4.21662,-4.82977 6.01721,-6.08276 l 1.58849,-1.10541 -1.50699,1.6394 c -1.33009,1.44695 -3.99584,5.27531 -5.74002,8.24341 -0.54007,0.91906 -0.40459,0.83423 1.41999,-0.889 1.10936,-1.04775 2.75496,-2.29574 3.65689,-2.77331 l 1.63987,-0.86831 -0.57476,0.74131 c -1.87018,2.41211 -2.59482,3.85226 -3.73332,7.41969 -0.6557,2.054587 -1.65285,4.590447 -2.21589,5.635237 l -1.0237,1.89962 1.37197,-1.23502 c 1.15161,-1.03666 3.84842,-2.98718 5.30896,-3.8398 0.20955,-0.12233 -0.16564,0.38831 -0.83377,1.13475 -1.50786,1.68462 -3.6763,4.94229 -4.74323,7.12583 -0.79141,1.61967 -0.79363,1.63413 -0.11657,0.762 1.12631,-1.45081 4.76622,-4.91543 5.70856,-5.43364 l 0.87401,-0.48064 -0.92243,0.98864 c -1.76326,1.88982 -3.71004,4.64241 -4.86087,6.872933 -1.1134,2.15795 -2.50447,5.53286 -1.88392,4.57062 2.11871,-3.28532 3.11004,-4.60758 4.6781,-6.239743 l 1.8534,-1.92917 -1.36622,2.032 c -1.54336,2.295473 -3.60749,5.881563 -4.16082,7.228723 -0.4452,1.08391 -0.23999,0.86936 1.0834,-1.13272 1.0171,-1.53873 4.9531,-5.819873 5.73579,-6.238753 0.31236,-0.16717 0.23267,0.12554 -0.30386,1.116153 -0.4,0.73851 -0.90553,2.07891 -1.12342,2.97867 -0.90278,3.72812 -0.93919,3.80749 -2.66418,5.80695 -0.93368,1.08226 -2.07828,2.52962 -2.54355,3.21636 l -0.84595,1.24862 1.63027,-1.5346 c 1.55293,-1.4618 3.63097,-3.11675 5.56726,-4.43377 0.48895,-0.33257 0.0546,0.17593 -0.96533,1.13001 -1.74143,1.62907 -5.65685,6.09994 -6.16833,7.04339 -0.12733,0.23486 0.48268,-0.25724 1.35558,-1.09356 1.83818,-1.76115 4.29287,-3.79462 6.28231,-5.20428 l 1.39323,-0.98719 -2.02823,2.30166 c -1.11552,1.26591 -2.93677,3.49476 -4.04722,4.953 l -2.01899,2.65134 2.79507,-2.794 c 1.53728,-1.5367 3.50422,-3.30835 4.37097,-3.937 1.88941,-1.37038 4.61609,-3.048 4.95399,-3.048 0.13363,0 -0.65861,0.94461 -1.76054,2.09913 -1.10193,1.15452 -2.29633,2.5547 -2.65422,3.1115 -2.11456,3.28978 -2.89463,4.2425 -5.55422,6.78352 l -2.93907,2.80803 2.667,-1.7673 c 1.46685,-0.97202 2.83845,-1.85354 3.048,-1.95893 0.44054,-0.22157 0.54643,-0.31569 -2.36544,2.10272 -2.89794,2.40684 -2.73928,2.34655 2.23844,-0.85055 2.61229,-1.67783 2.667,-1.71028 2.667,-1.58175 0,0.0596 -0.97557,0.88146 -2.16795,1.82638 -1.19237,0.94491 -2.13003,1.75593 -2.08368,1.80228 0.0463,0.0463 0.70759,-0.0816 1.46944,-0.28437 1.44298,-0.38401 5.06845,-0.51576 5.06784,-0.18416 -1.9e-4,0.10477 -0.71457,0.39982 -1.5875,0.65565 -2.00396,0.58731 -5.23459,2.18622 -7.04486,3.48665 -1.59633,1.14676 -1.57245,1.21732 0.15362,0.4538 1.49941,-0.66326 3.55114,-1.22796 4.41509,-1.21517 0.43387,0.006 0.15176,0.19555 -0.89066,0.59711 -1.92117,0.74007 -4.37699,2.00499 -5.20534,2.68109 -0.48224,0.39362 -0.20912,0.32806 1.13534,-0.27251 1.96659,-0.87848 5.23978,-1.29317 6.12948,-0.77656 0.44275,0.25709 0.4291,0.28062 -0.167,0.28771 -1.80303,0.0215 -6.47751,2.40396 -7.98519,4.06993 l -0.49459,0.54652 1.38948,-0.55139 c 0.76422,-0.30327 1.93241,-0.76706 2.59598,-1.03066 0.66358,-0.26359 1.2065,-0.42597 1.2065,-0.36083 0,0.0651 -0.54292,0.40104 -1.2065,0.74646 -1.70514,0.88761 -1.18243,0.79859 1.38153,-0.23528 1.20982,-0.48784 2.23005,-0.85661 2.26718,-0.81948 0.0371,0.0371 -1.41592,0.90818 -3.22899,1.93568 -1.81307,1.02749 -3.25826,1.9064 -3.21154,1.95312 0.0467,0.0467 0.6767,-0.0712 1.39995,-0.26194 0.72324,-0.19079 1.91808,-0.4239 2.65518,-0.51801 l 1.34019,-0.17113 -1.778,0.88855 c -1.86315,0.93111 -3.69636,2.13007 -2.794,1.82734 1.02556,-0.34405 3.85779,-0.85947 5.588,-1.01692 1.43547,-0.13063 1.68014,-0.10372 1.27,0.13967 -0.87432,0.51887 -1.68857,1.33872 -2.33332,2.34937 -0.73258,1.14833 -2.04528,1.80222 -4.36934,2.1765 -0.89079,0.14346 -1.6902,0.3358 -1.77647,0.42742 -0.18996,0.20172 3.50238,-0.10363 4.92313,-0.40714 l 1.016,-0.21705 -0.57566,0.47209 c -0.65747,0.53917 -3.60358,1.27291 -5.11099,1.27291 -0.5579,0 -1.09604,0.13215 -1.19587,0.29367 -0.13497,0.21839 0.46351,0.25534 2.33451,0.14413 2.87423,-0.17083 2.76713,0.15072 -0.24414,0.73295 l -1.81185,0.35032 1.905,-0.11804 c 1.04775,-0.0649 2.30505,-0.18672 2.794,-0.27065 0.86912,-0.14921 0.86344,-0.14056 -0.254,0.3867 -0.62865,0.29663 -1.65735,1.03286 -2.286,1.63606 -1.31015,1.25713 -2.32882,1.66763 -4.1654,1.67858 -1.03971,0.006 -1.20381,0.0611 -0.83085,0.27795 0.25561,0.14863 0.99856,0.35561 1.651,0.45995 l 1.18625,0.18972 -0.762,0.31566 c -0.4191,0.17362 -1.61925,0.38288 -2.667,0.46503 l -1.905,0.14936 1.651,0.40995 c 1.41137,0.35045 3.22015,1.20582 2.99243,1.41512 -0.0393,0.0361 -0.81438,-0.0913 -1.72243,-0.28312 -0.90805,-0.19181 -2.4511,-0.34625 -3.429,-0.34318 l -1.778,0.006 2.413,0.84099 c 4.57836,1.59567 4.61558,1.63934 1.27,1.49002 -3.23787,-0.14452 -3.29958,-0.0724 -1.01563,1.18632 1.32621,0.73092 1.35701,0.76997 0.6109,0.77434 -0.43216,0.003 -1.45104,-0.2243 -2.26418,-0.50406 -0.81314,-0.27976 -1.5181,-0.46899 -1.56658,-0.42051 -0.22761,0.2276 2.74432,2.70952 3.26779,2.729 0.51335,0.0191 0.49439,0.0495 -0.1517,0.2427 -0.65861,0.19701 -3.10553,0.005 -4.9766,-0.39123 -0.34925,-0.0739 0.66705,0.32155 2.25843,0.87876 1.59138,0.55722 2.96298,1.08736 3.048,1.17808 0.085,0.0907 -0.074,0.10041 -0.35343,0.0215 -0.2794,-0.0789 -1.1938,-0.20684 -2.032,-0.28431 l -1.524,-0.14085 1.27,0.62863 c 1.36078,0.67356 1.11023,0.67174 -1.64018,-0.0119 -0.76241,-0.18949 -1.41811,-0.31261 -1.45713,-0.2736 -0.039,0.039 0.61182,0.45498 1.44631,0.92436 0.83449,0.46938 1.48153,0.88914 1.43787,0.9328 -0.0437,0.0437 -1.26675,-0.32048 -2.71798,-0.80921 l -2.6386,-0.88859 1.12324,1.1445 c 0.61779,0.62947 1.01372,1.14221 0.87986,1.13941 -0.13386,-0.003 -1.30066,-0.27655 -2.59289,-0.60833 -1.29222,-0.33179 -2.3495,-0.5654 -2.3495,-0.51914 0,0.0463 0.68727,0.5662 1.52725,1.15542 0.83999,0.58921 1.48482,1.11374 1.43295,1.1656 -0.0519,0.0519 -0.6343,-0.13717 -1.2943,-0.42008 -1.82665,-0.78299 -1.91523,-0.62832 -0.39637,0.69212 0.7633,0.66357 1.73288,1.5263 2.15464,1.91716 0.76382,0.70788 0.75985,0.70722 -1.01117,-0.16621 -0.9779,-0.48229 -2.22002,-1.17921 -2.76028,-1.54872 -2.37635,-1.62533 -0.54603,0.12954 2.6683,2.5583 l 0.67001,0.50626 -1.55901,-0.0986 c -1.16281,-0.0736 -1.88178,-0.29246 -2.82902,-0.86127 l -1.27,-0.76264 1.143,1.19865 1.143,1.19865 -1.905,-1.2591 c -2.69661,-1.78232 -2.7518,-1.81141 -2.29,-1.2072 0.20736,0.27129 0.89316,1.12142 1.524,1.88918 l 1.147,1.39592 -0.93555,-0.69742 c -1.43531,-1.06997 -1.46341,-0.8331 -0.0709,0.59758 l 1.26045,1.295 -2.37598,-1.18385 c -1.30679,-0.65112 -2.41819,-1.14165 -2.46977,-1.09006 -0.0516,0.0516 0.18893,0.50985 0.53448,1.01837 0.84306,1.24067 0.7922,1.45764 -0.13373,0.57054 -0.99345,-0.95179 -0.96185,-0.7033 0.127,0.99886 0.48895,0.76436 0.889,1.44119 0.889,1.50408 0,0.0629 -0.53251,-0.0459 -1.18337,-0.2418 -0.65085,-0.19588 -1.45347,-0.35614 -1.78359,-0.35614 -0.43454,0 -0.80005,-0.31509 -1.32411,-1.14146 l -0.72389,-1.14145 -0.17259,1.30107 c -0.12637,0.95262 -0.36932,1.49779 -0.90715,2.03562 -0.40401,0.40401 -0.98547,1.04655 -1.29213,1.42789 l -0.55757,0.69333 0.15831,-1.5875 c 0.0871,-0.87313 0.0631,-1.5875 -0.0532,-1.5875 -0.11634,0 -0.42018,0.46272 -0.67521,1.02827 -0.60915,1.35085 -0.79506,1.42756 -0.6965,0.28741 0.0774,-0.89522 0.0442,-0.86498 -0.78724,0.71632 -0.47742,0.90805 -1.10105,1.86139 -1.38584,2.11854 -0.2848,0.25715 -1.98325,0.95388 -3.77435,1.54829 -1.79109,0.59441 -3.71374,1.31147 -4.27254,1.59347 -2.63621,1.33038 -10.79771,2.19507 -19.42858,2.05841 -3.99006,-0.0632 -4.980008,-0.14556 -4.773168,-0.39721 0.33863,-0.41201 0.30954,-0.40762 -1.26447,0.19063 -1.58926,0.60404 -3.46069,0.64082 -4.48142,0.0881 z M 131.1372,49.66546 c -0.29842,-0.4191 -0.48544,-0.762 -0.41559,-0.762 0.0698,0 0.37117,0.3429 0.66959,0.762 0.29843,0.4191 0.48545,0.762 0.4156,0.762 -0.0699,0 -0.37117,-0.3429 -0.6696,-0.762 z m 50.546,-14.351 c 0.34925,-0.19965 0.7493,-0.363 0.889,-0.363 0.1397,0 -0.0318,0.16335 -0.381,0.363 -0.34925,0.19965 -0.7493,0.363 -0.889,0.363 -0.1397,0 0.0317,-0.16335 0.381,-0.363 z m -32.96107,-2.667 c 0,-0.48895 0.0523,-0.68898 0.11616,-0.4445 0.0639,0.24447 0.0639,0.64452 0,0.889 -0.0639,0.24447 -0.11616,0.0445 -0.11616,-0.4445 z"
       style="fill:#000000"
       id="path1"
       sodipodi:nodetypes="cssssssssssssssscsssscscsscssssssssccssssssscssssssscssssssscccsscccssssscssssssssssssssscsssccscccsscssscscssssscsssscscsssssscccsssssssscssssccsssscsssscscsscssssssssssccssssssssccscsscscssssccsccssssssssccsscssccssssccscscssssscssssccccssscsssccsscsssssssssscssscsssscsssssssssssssssssssssssssssscsssssssssssssssssssssssssssssssssssscsscssscssscssssssscssssssssssssscsscsscssssscsscssscssssscscsssssssssscscssssssssscsscssssscccsssssssssssssssscssssscccscsscsscssssssccssscsssccsccsssscsssscsscsssccsssscscsssscscsssscscsssssscssssssccsscssssscsscssssssscscsssscssscsssssscsssscsssssssscsscssscsscsssssscssssssscsssscsssscscsssssssscscsssssssscssssscsssscsscsscsssccssscsssccsssscsssssscscssssssssssccscccssscsscssssssssscsssccssssssssssccssssssssssscss" />
    <path
       style="fill:#ffffff;stroke-width:0.264583"
       id="path5"
       d="m 182.37255,87.067635 c 0.7849,-0.0021 1.56971,0.0092 2.3546,0.01222 0.6105,-0.117832 1.08908,-0.451959 1.61884,-0.745951 0.53461,-0.161808 0.93276,-0.480356 1.3472,-0.851037 0.44972,-0.251325 0.76038,-0.697294 1.10162,-1.076381 0.33724,-0.402476 0.7664,-0.702857 1.03402,-1.157369 4.61997,-8.007782 0.3294,-21.510666 -8.00256,-25.686956 -8.64529,-4.567924 -19.0019,-6.179948 -28.13747,-2.039054 -6.62371,5.19028 1.09639,4.161406 2.601,3.235486 12.27992,-7.55687 21.9342,0.408844 25.28784,3.979333 4.18945,6.454233 6.3735,12.725613 3.21713,20.20008 -0.3274,0.371641 -0.65417,0.742362 -0.97757,1.117737 -0.28787,0.360958 -0.55758,0.73533 -0.8988,1.049364 -0.29516,0.337267 -0.707,0.493983 -1.05352,0.768271 -0.38982,0.261316 -0.78193,0.545848 -1.27059,0.551892 -0.73341,0.003 -1.46673,0.01471 -2.20016,0.01222 z"
       sodipodi:nodetypes="ccccccccscccccccc" />
    <path
       style="fill:#ffffff;stroke-width:0.264583"
       id="path6"
       d="m 139.53952,151.56707 c -28.34932,25.25152 -52.063171,-26.99824 -30.2817,-40.5509 0.30065,-0.23194 1.90523,-0.68504 1.79298,-1.31142 -0.0309,-0.17225 -0.21232,-0.27824 -0.31847,-0.41736 l -0.15851,-0.022 v 0 c -15.977102,0.15303 -25.283476,20.2753 -8.48606,43.09371 -5.838084,-7.88859 14.47689,27.504 45.05641,-0.61511 9.76513,-8.97943 11.58396,-17.7957 9.61739,-31.31059 -0.87381,-14.76975 2.25668,6.92799 -17.22204,31.13367 z"
       sodipodi:nodetypes="sccccscscs" />
    <path
       style="fill:#ffffff;stroke-width:0.264583"
       id="path7"
       d="m 44.030931,40.6417 c 0.90963,-0.283819 3.331708,-2.033518 4.112329,-2.568693 0.761328,-0.599432 1.52681,-1.17339 2.133042,-1.935893 6.682547,-6.615894 -1.019841,-5.7711 1.882413,0.272037 l 0.442984,0.539855 0.10002,-1.74e-4 v 0 l 1.052152,-0.983664 c -0.05886,-0.693147 -0.347016,-0.264694 0.286537,-3.740633 0.145859,-0.602726 0.13966,-0.62774 0.319754,-1.190749 0.35381,-0.759954 -0.07226,-1.249836 -0.648912,-1.877591 -1.943596,1.764597 -4.081232,4.632394 -5.616958,6.830228 -0.611547,0.714492 -1.344472,1.298734 -2.079535,1.881373 -0.73017,0.519938 -4.648132,2.548949 -5.509885,2.814062 z"
       sodipodi:nodetypes="cccccccccsccccc" />
    <path
       style="fill:#ffffff;stroke-width:0.264583"
       id="path8"
       d="m 49.942867,40.516682 c 1.218893,-0.469204 4.140379,-2.978697 5.151299,-3.785293 0.652269,-0.690266 1.471297,-1.287155 1.996368,-2.086676 0.03949,-0.02254 0.16392,-0.06898 0.11847,-0.06761 -2.682298,0.081 -2.178682,-0.581072 -2.13088,0.389115 0.02154,0.437309 0.06406,0.846315 0.132905,1.281044 0.116068,1.337611 2.209789,4.238315 3.013971,5.315587 1.397056,0.449421 1.307854,-0.234329 0.258971,-1.753814 -0.467294,-1.155493 -0.885248,-2.35355 -1.041781,-3.594589 -0.08845,-0.643207 -0.154837,-4.628687 -2.523249,-1.720527 -0.676468,0.659466 -1.232858,1.434105 -1.959602,2.046772 -0.992923,0.81426 -3.80114,4.639603 -5.05359,5.009948 z"
       sodipodi:nodetypes="ccccscccccccc" />
    <text
       xml:space="preserve"
       style="font-size:14.1111px;font-family:'Fira Code';-inkscape-font-specification:'Fira Code';text-align:start;writing-mode:lr-tb;direction:ltr;text-anchor:start;fill:#ffffff;stroke-width:0.264583"
       x="9.1855679"
       y="119.41237"
       id="text8"><tspan
         sodipodi:role="line"
         id="tspan8"
         style="stroke-width:0.264583"
         x="9.1855679"
         y="119.41237" /></text>
    <text
       xml:space="preserve"
       style="font-size:14.1111px;font-family:'Fira Code';-inkscape-font-specification:'Fira Code';text-align:start;writing-mode:lr-tb;direction:ltr;text-anchor:start;fill:#000000;stroke-width:0.264583"
       x="12.247422"
       y="139.82474"
       id="text9"><tspan
         sodipodi:role="line"
         style="stroke-width:0.264583"
         x="12.247422"
         y="139.82474"
         id="tspan11">Leave </tspan><tspan
         sodipodi:role="line"
         style="stroke-width:0.264583"
         x="12.247422"
         y="157.46361"
         id="tspan12">no one </tspan><tspan
         sodipodi:role="line"
         style="stroke-width:0.264583"
         x="12.247422"
         y="175.10249"
         id="tspan13">behind.</tspan></text>
    <path
       style="fill:#ffffff;stroke-width:0.264583"
       id="path3"
       d="m 155.6485,59.158525 c 5.19235,-2.991207 -0.42682,-4.132007 -2.10529,-3.615593 -33.74401,13.280243 14.7008,70.456268 -14.00369,96.024138 -28.34932,25.25152 -52.063171,-26.99824 -30.2817,-40.5509 0.30065,-0.23194 1.90523,-0.68504 1.79298,-1.31142 -0.0309,-0.17225 -0.21232,-0.27824 -0.31847,-0.41736 l -0.15851,-0.022 v 0 c -15.977102,0.15303 -25.283476,20.2753 -8.48606,43.09371 -5.838084,-7.88859 14.47689,27.504 45.05641,-0.61511 9.76513,-8.97943 11.58396,-17.7957 9.61739,-31.31059 0.007,-16.70665 -19.36778,-50.647742 -1.11306,-61.274875 z"
       sodipodi:nodetypes="ccsccccscscc" />
  </g>
</svg>
