<?xml version="1.0" encoding="UTF-8" standalone="no"?>
<!-- Created with Inkscape (http://www.inkscape.org/) -->

<svg
   width="196.27765mm"
   height="146.19914mm"
   viewBox="0 0 196.27765 146.19914"
   version="1.1"
   id="svg1"
   sodipodi:docname="glirrel2.svg"
   inkscape:version="1.4.2 (ebf0e940d0, 2025-05-08)"
   xmlns:inkscape="http://www.inkscape.org/namespaces/inkscape"
   xmlns:sodipodi="http://sodipodi.sourceforge.net/DTD/sodipodi-0.dtd"
   xmlns="http://www.w3.org/2000/svg"
   xmlns:svg="http://www.w3.org/2000/svg">
  <sodipodi:namedview
     id="namedview1"
     pagecolor="#ffffff"
     bordercolor="#000000"
     borderopacity="0.25"
     inkscape:showpageshadow="2"
     inkscape:pageopacity="0.0"
     inkscape:pagecheckerboard="0"
     inkscape:deskcolor="#d1d1d1"
     inkscape:document-units="mm"
     inkscape:zoom="0.12001279"
     inkscape:cx="1570.666"
     inkscape:cy="133.31913"
     inkscape:window-width="956"
     inkscape:window-height="1020"
     inkscape:window-x="960"
     inkscape:window-y="28"
     inkscape:window-maximized="1"
     inkscape:current-layer="layer1" />
  <defs
     id="defs1" />
  <g
     inkscape:label="Layer 1"
     inkscape:groupmode="layer"
     id="layer1"
     transform="translate(-7.1213934,-77.604194)">
    <path
       style="fill:#000000;stroke-width:0.833205"
       d="m 138.99731,223.43218 c -0.55435,-0.31597 -1.34639,-0.3625 -6.2432,-0.36672 -6.44951,-0.006 -14.8061,-0.38545 -16.50746,-0.75046 -1.80279,-0.38675 -3.06024,-1.13599 -4.9477,-2.94803 -1.60203,-1.53802 -2.67113,-3.08111 -2.67113,-3.85541 0,-0.24751 -0.42201,-0.34867 -1.92909,-0.46245 -2.52134,-0.19033 -3.21126,-0.4508 -4.98057,-1.88033 -1.57813,-1.27507 -1.828471,-1.62958 -2.199065,-3.11398 -0.280798,-1.12473 -1.019026,-2.45678 -1.728901,-3.11962 -0.279315,-0.2608 -1.121686,-0.72275 -1.871937,-1.02655 -2.642229,-1.06992 -5.50868,-3.36702 -5.837772,-4.67824 l -0.119523,-0.47621 -0.724139,0.55234 c -0.660206,0.50356 -0.821806,0.53679 -1.830276,0.37633 -0.608365,-0.0968 -1.930345,-0.18123 -2.937715,-0.18762 -1.007379,-0.007 -1.786218,-0.085 -1.730768,-0.17475 0.05549,-0.0897 0.589701,-0.44235 1.187218,-0.7836 0.680778,-0.38881 0.971409,-0.6576 0.778413,-0.71993 -1.408366,-0.45478 -2.850236,-1.04007 -3.319123,-1.3473 -0.415169,-0.27203 -0.957269,-0.36216 -2.056642,-0.34194 -1.473757,0.0271 -1.481547,0.0243 -0.608148,-0.21303 1.344777,-0.36554 1.285386,-0.49895 -0.292672,-0.65742 -2.870033,-0.28823 -3.11872,-0.44389 -1.015327,-0.63553 l 0.601299,-0.76944 c -0.86527,1.71622 -5.634492,-1.81708 -8.804529,-2.306 l -2.590111,-0.39948 3.538856,0.0416 3.538856,0.0415 -1.105063,-0.49334 c -4.077873,-1.82049 -8.667668,-3.39744 -11.82954,-4.06436 -1.201865,-0.2535 -2.423294,-0.51227 -2.714291,-0.57504 -1.060387,-0.22876 1.957616,-0.69463 4.761768,-0.73505 l 2.751244,-0.0397 -2.010524,-0.46676 c -1.105789,-0.25672 -2.486701,-0.53561 -3.068695,-0.61976 l -1.058171,-0.153 0.74072,-0.33246 c 0.524402,-0.23537 1.42698,-0.33517 3.090599,-0.34175 l 2.349872,-0.009 -0.656799,-0.49258 c -1.594421,-1.19576 -3.804831,-1.97627 -7.005831,-2.47379 -5.555246,-0.86342 -7.748159,-2.30548 -9.856151,-6.48139 -0.715149,-1.41671 -0.798527,-1.88581 -0.249379,-1.40303 0.716799,0.63015 2.105902,1.18459 6.49856,2.5938 4.430119,1.42122 7.022145,2.48058 8.762269,3.58116 1.596463,1.00971 0.754384,0.23331 -1.184026,-1.09169 -2.263927,-1.54751 -4.068883,-2.46651 -7.609747,-3.87454 -3.173387,-1.26189 -4.318128,-1.9464 -5.667403,-3.3889 -1.297384,-1.387 -1.918072,-2.79943 -2.532686,-5.7633 -0.580036,-2.79712 -1.046997,-3.97592 -2.009033,-5.07162 l -0.681553,-0.77624 1.127185,0.32658 c 2.651967,0.76837 6.580271,2.03551 8.693105,2.8041 1.251291,0.45518 2.275067,0.78367 2.275067,0.72998 0,-0.0791 -13.117275,-6.55254 -15.026024,-7.41548 -0.290997,-0.13156 -0.42276,-0.24565 -0.292805,-0.25352 0.550816,-0.0334 11.245505,3.78958 14.509561,5.18666 0.910694,0.38979 1.655804,0.67002 1.655804,0.62273 0,-0.0473 -1.17831,-0.71107 -2.618472,-1.47508 -3.379114,-1.7926 -8.597712,-4.11326 -12.028143,-5.34877 -1.489071,-0.53631 -2.66784,-1.01466 -2.619505,-1.063 0.274332,-0.27432 10.135758,2.9395 13.509148,4.40262 1.057954,0.45885 1.960107,0.79773 2.004775,0.75305 0.188813,-0.1888 -7.101017,-3.89952 -9.849961,-5.01389 -0.968651,-0.39267 -1.6768,-0.74207 -1.573666,-0.77645 0.327958,-0.10932 5.700573,1.81623 7.783736,2.7897 1.103273,0.51556 2.005942,0.90088 2.005942,0.85627 0,-0.26171 -6.766935,-4.33249 -10.179327,-6.12358 -1.443494,-0.75766 -2.539118,-1.3793 -2.434717,-1.3814 0.653891,-0.0132 10.823886,3.32108 12.051722,3.95125 0.330908,0.16984 0.64226,0.2682 0.691877,0.21858 0.04966,-0.0497 -1.363957,-0.97707 -3.141275,-2.06102 -4.237132,-2.58413 -4.088455,-2.49877 -7.146718,-4.10324 -1.454985,-0.76333 -2.568264,-1.38961 -2.473953,-1.39172 0.361261,-0.008 4.919244,1.95073 7.70694,3.31212 1.603212,0.78293 3.010162,1.46533 3.126561,1.51642 0.116399,0.0511 -0.85951,-0.68619 -2.168683,-1.63843 -1.42099,-1.03357 -2.526395,-2.00475 -2.742779,-2.40974 -0.257802,-0.48251 -0.397072,-1.41172 -0.4823,-3.218 -0.101502,-2.15103 -0.206244,-2.72581 -0.684562,-3.75651 -0.310602,-0.6693 -0.511338,-1.2169 -0.446081,-1.2169 0.06524,0 1.321855,0.60273 2.792437,1.33938 3.007596,1.5066 5.264857,2.82993 7.753016,4.54526 2.009067,1.38505 1.572034,0.79562 -1.012935,-1.36613 -2.19323,-1.83414 -5.069979,-3.80072 -7.442356,-5.08767 -1.030892,-0.55924 -1.452544,-0.87147 -1.068244,-0.79105 2.884439,0.60358 5.904592,1.62744 8.729907,2.9595 1.309491,0.6174 2.380884,1.09148 2.380884,1.05354 0,-0.26597 -5.454936,-4.72106 -7.330956,-5.98724 -1.212322,-0.81823 3.496879,1.67048 4.964295,2.62352 l 1.760196,1.1432 -0.577852,-0.75761 c -1.006846,-1.32004 -4.97696,-4.74072 -7.260768,-6.25593 -1.211038,-0.80348 -2.102618,-1.46086 -1.981295,-1.46086 0.121331,0 1.043781,0.23854 2.049902,0.53011 1.911656,0.55397 4.636337,1.82413 6.260137,2.91825 0.945588,0.63714 0.948671,0.63765 0.43365,0.0721 -0.285281,-0.31328 -1.380488,-1.15474 -2.433792,-1.8699 -2.96227,-2.01134 -4.548926,-3.32962 -4.691596,-3.89805 -0.07349,-0.29268 0.08274,-1.2521 0.360045,-2.21186 0.428426,-1.48268 0.460287,-1.83306 0.254386,-2.79759 -0.129455,-0.60644 -0.30557,-1.28026 -0.391365,-1.49738 -0.221474,-0.56046 5.514136,3.6062 8.637922,6.27507 0.669297,0.57182 1.216896,0.95258 1.216896,0.84613 0,-0.35574 -5.382506,-5.68667 -6.774392,-6.70947 -1.736316,-1.27591 -1.722768,-1.26008 -0.727746,-0.85057 1.754763,0.7222 5.50367,2.68917 6.94799,3.64548 2.184714,1.44653 2.261619,1.47221 1.000571,0.33408 -1.759796,-1.58823 -4.61944,-3.58306 -6.359964,-4.43656 -0.869308,-0.42628 -2.378534,-0.93502 -3.368248,-1.13539 l -1.793208,-0.36304 1.338619,-0.66892 c 0.736237,-0.36791 1.555878,-0.66892 1.821412,-0.66892 0.898487,0 0.721439,-0.37491 -0.245521,-0.51991 -2.259211,-0.33879 -3.024335,0.15703 -5.615253,3.63877 -2.163634,2.90756 -5.141335,6.74488 -5.544706,7.1454 -0.117232,0.1164 0.614147,-1.38356 1.625275,-3.33324 1.011136,-1.94968 1.801173,-3.54487 1.755638,-3.54487 -0.04549,0 -0.688385,0.99558 -1.428555,2.2124 -0.740169,1.21682 -1.379138,2.17903 -1.419932,2.13825 -0.04083,-0.0408 0.312802,-0.8438 0.785746,-1.78445 0.472953,-0.94065 0.85991,-1.7737 0.85991,-1.85122 0,-0.0775 -0.330808,0.2923 -0.735129,0.82182 -0.404321,0.52953 -1.054138,1.23368 -1.444036,1.56479 -0.927866,0.78795 -1.613019,1.73106 -2.666724,3.6707 -0.474252,0.87299 -0.863617,1.5313 -0.86525,1.4629 -0.0017,-0.0684 0.470736,-1.39622 1.049714,-2.95072 0.578986,-1.5545 1.0275,-2.85155 0.996705,-2.88235 -0.03083,-0.0308 -1.23436,1.93987 -2.674589,4.37925 -1.440237,2.43938 -2.644477,4.43524 -2.676089,4.43524 -0.03158,0 0.698235,-1.72833 1.621901,-3.84073 0.923658,-2.1124 1.679192,-3.89807 1.678975,-3.96814 -2.25e-4,-0.0701 -0.468511,0.65088 -1.04064,1.60214 -2.982675,4.95918 -6.240307,9.20591 -8.350799,10.88631 -0.568438,0.45259 -1.111596,0.8229 -1.207015,0.8229 -0.09542,0 0.347205,-0.69046 0.983607,-1.53434 0.929191,-1.23213 3.054589,-4.91041 3.054589,-5.28636 0,-0.0478 -0.452364,0.33556 -1.005262,0.85201 -1.446461,1.3511 -3.383646,2.69146 -4.947806,3.42341 -1.37808,0.64489 -3.6858,1.23069 -3.921122,0.99536 -0.07091,-0.0709 0.163708,-0.46224 0.521395,-0.86962 1.464358,-1.66782 3.850308,-5.7745 3.850308,-6.62713 0,-0.6328 1.531964,-3.2323 2.775473,-4.70954 1.236102,-1.46844 1.270305,-1.53519 0.456896,-0.89163 -1.332536,1.05428 -2.744003,2.69567 -4.133514,4.80686 -0.689486,1.04759 -1.188167,1.66662 -1.10818,1.37562 0.23209,-0.84433 1.122853,-2.74535 1.808631,-3.85987 0.465445,-0.75645 0.533251,-0.97312 0.257518,-0.82294 -0.775697,0.42251 -3.736083,3.32775 -4.733538,4.64536 l -1.037407,1.37038 8.33e-4,-1.24846 c 5.41e-4,-0.68665 -0.159742,-2.02398 -0.356187,-2.97184 -0.457213,-2.20613 -0.202752,-3.5297 1.034949,-5.38317 1.050522,-1.57317 2.477903,-2.7367 4.716933,-3.84501 0.931182,-0.46093 1.407359,-0.77848 1.058162,-0.70565 -0.349196,0.0728 -1.495637,0.553 -2.547658,1.06707 -2.280174,1.11421 -4.343307,2.90794 -5.626035,4.89138 -0.483825,0.74815 -0.911668,1.36026 -0.950745,1.36026 -0.182814,0 0.240529,-1.49018 0.711432,-2.50428 1.098073,-2.36471 4.510773,-5.20202 7.684618,-6.38896 1.826453,-0.68305 1.39731,-0.75828 -0.571829,-0.10025 -3.386712,1.13174 -6.682613,3.2281 -8.727307,5.55099 l -1.074194,1.22034 0.610265,-1.58725 c 0.33564,-0.87299 0.804151,-2.50879 1.04114,-3.63511 0.249095,-1.18387 0.652258,-2.39853 0.955586,-2.87904 1.374564,-2.17745 4.829041,-4.04279 8.752154,-4.72597 0.744103,-0.12958 1.317323,-0.27119 1.273821,-0.31469 -0.194428,-0.19443 -4.02029,0.43113 -5.552287,0.90784 -2.047419,0.63711 -3.250259,1.30838 -4.641104,2.59007 -0.873365,0.80484 -0.9719,0.85559 -0.587118,0.30244 0.867359,-1.2469 2.817309,-2.8181 4.553159,-3.66878 2.022788,-0.99129 3.59488,-1.41888 6.565865,-1.78584 l 2.151294,-0.26572 -1.244984,-0.1686 c -1.95839,-0.26523 -5.941261,5.5e-4 -7.735235,0.51616 -1.674709,0.48133 -4.086163,1.55902 -5.303859,2.3703 l -0.739487,0.49268 0.454672,-0.63911 c 0.796569,-1.11967 4.172275,-4.41302 5.693025,-5.55413 1.935527,-1.45233 3.452394,-2.24549 5.385405,-2.81596 1.421931,-0.41963 2.192471,-0.47811 7.458595,-0.56602 3.23007,-0.0539 5.872847,-0.16629 5.872847,-0.2497 0,-0.15712 -2.744795,-0.47224 -8.563309,-0.98316 -3.417349,-0.30007 -6.006618,-0.18601 -8.018417,0.35322 -1.389653,0.37245 -1.102347,0.0326 0.352238,-0.41671 2.277591,-0.703472 3.925971,-0.940892 6.671341,-0.960912 2.477835,-0.0181 2.564072,-0.0329 1.693073,-0.29142 -2.608833,-0.77433 -5.926714,-0.99683 -8.219112,-0.55118 -1.020642,0.19841 1.119761,-0.82612 2.327967,-1.11432 2.140829,-0.51066 4.994524,-0.27934 10.581715,0.85772 1.338586,0.27241 2.451532,0.48217 2.47322,0.46613 0.02166,-0.0161 -1.263989,-0.56467 -2.857061,-1.21916 -1.593072,-0.6545 -3.496721,-1.44413 -4.230333,-1.75473 -1.677125,-0.71008 -3.232086,-0.96433 -4.591911,-0.75079 -0.581993,0.0914 -1.083416,0.14326 -1.11427,0.11527 -0.03083,-0.028 0.491716,-0.41461 1.161263,-0.85917 0.669556,-0.44455 1.718828,-1.28253 2.331717,-1.86218 1.101472,-1.04173 1.129609,-1.05363 2.436509,-1.03127 1.910322,0.0327 6.598002,1.47841 10.504618,3.23968 0.743594,0.33524 1.410241,0.60708 1.481439,0.60408 0.530843,-0.0224 -5.821764,-3.68037 -7.544382,-4.34426 l -0.791528,-0.30504 0.740719,0.12742 c 1.271405,0.21871 3.194476,0.91878 5.502488,2.00313 2.052384,0.96426 2.165567,0.99512 1.481438,0.40386 -2.351988,-2.03264 -5.541589,-3.74035 -7.883371,-4.2207 -0.669297,-0.13729 -1.216896,-0.28804 -1.216896,-0.335 0,-0.047 0.309511,-0.25326 0.687802,-0.45846 1.060171,-0.57503 4.517664,-0.49903 6.148755,0.13518 1.879603,0.73084 4.221709,2.41111 6.637671,4.76202 1.204757,1.17232 2.189622,2.09302 2.188581,2.04601 -0.0075,-0.33932 -1.724177,-3.04694 -2.751336,-4.33952 -2.157485,-2.71496 -4.822817,-4.60382 -7.467085,-5.29177 l -1.105889,-0.2877 0.846537,-0.17388 c 0.465587,-0.0956 1.989353,-0.16836 3.386138,-0.16163 6.797221,0.0327 10.11392,2.20652 13.525829,8.86471 1.071393,2.09077 1.073343,1.72481 0.0083,-1.5215 -0.892988,-2.72136 -1.936319,-4.79683 -3.177129,-6.32022 -0.535384,-0.6573 -0.922749,-1.24577 -0.860817,-1.3077 0.213,-0.213 2.649892,2.3082 3.692291,3.82004 1.918271,2.78216 3.848283,7.368 3.848283,9.14381 0,0.2711 0.10875,0.56013 0.241671,0.64228 0.303145,0.18735 0.08738,-2.6871 -0.371026,-4.94274 -0.893271,-4.39551 -3.179261,-9.2353 -6.418263,-13.58846 -0.647368,-0.87005 -1.255191,-1.706938 -1.350718,-1.859748 -0.09553,-0.15281 0.985957,0.672863 2.403314,1.834843 1.417349,1.161975 3.473324,2.748035 4.568831,3.524585 3.657121,2.59234 4.180249,3.57036 4.521038,8.4523 0.113758,1.62958 0.356145,3.53429 0.538642,4.23268 0.41372,1.58325 1.605379,5.234842 1.679167,5.145492 0.03008,-0.0364 -0.124431,-1.066242 -0.343397,-2.288432 -0.245829,-1.37205 -0.467861,-4.04383 -0.580402,-6.98392 -0.163192,-4.26342 -0.239939,-4.93897 -0.733346,-6.45485 -0.303087,-0.93119 -0.748177,-2.01333 -0.989081,-2.40475 -0.771298,-1.25323 -0.251587,-0.98851 1.434979,0.73095 1.083275,1.10439 1.887793,2.16221 2.36492,3.10952 l 0.723122,1.43572 0.262193,5.23075 c 0.195487,3.89999 0.380892,5.74226 0.728738,7.241292 0.555965,2.39589 0.827639,2.84719 0.607507,1.0092 -0.285406,-2.383082 -0.661007,-9.385062 -0.560423,-10.447452 0.143995,-1.52088 -0.213908,-5.63528 -0.670163,-7.70412 -0.2182,-0.98939 -0.372393,-1.82467 -0.342656,-1.85619 0.114666,-0.12154 1.234352,2.59697 1.622151,3.93848 0.24807,0.85814 0.573812,3.31413 0.832555,6.27726 0.507155,5.80787 1.318697,11.646762 1.993027,14.339512 0.591392,2.36159 0.630261,1.91707 0.208276,-2.38219 -0.395897,-4.033612 -0.626045,-14.763772 -0.34498,-16.084182 0.168732,-0.79266 0.20661,-0.84512 0.225915,-0.31288 0.02558,0.70613 0.587243,2.74227 1.256924,4.55676 0.238555,0.64636 0.516045,1.88442 0.616647,2.75124 l 0.182913,1.57606 0.167699,-3.08878 c 0.09224,-1.69883 0.1105,-3.74639 0.04058,-4.55013 l -0.127105,-1.46136 0.329133,0.84654 c 1.054279,2.71157 1.354841,7.38945 0.659498,10.26425 -0.540342,2.233962 -0.98219,5.748252 -0.957902,7.618822 l 0.02058,1.58726 0.182772,-1.16399 c 0.517703,-3.29708 1.109412,-6.10866 1.720668,-8.176042 0.643926,-2.17788 0.680204,-2.48502 0.68417,-5.7918 0.0025,-1.92058 -0.07116,-3.92052 -0.163175,-4.44432 l -0.167357,-0.95235 0.87404,0.84653 c 2.170383,2.1021 3.974948,5.13596 4.16811,7.0075 0.134037,1.29874 -0.207377,3.27771 -0.806676,4.67582 -0.679279,1.584692 -0.287106,1.283922 0.515479,-0.39535 0.851585,-1.7818 1.401218,-3.74252 1.422723,-5.07531 0.02416,-1.49481 0.376583,-0.32026 0.390215,1.30036 0.01633,1.94072 -0.40333,3.48815 -1.469583,5.418952 -1.621467,2.93617 -2.083846,3.94975 -2.837897,6.22091 -0.846461,2.5495 -1.648505,5.40981 -1.465666,5.22697 0.06832,-0.0683 0.665931,-1.34372 1.328087,-2.83429 1.286886,-2.8969 2.617306,-5.30916 3.758389,-6.81452 0.889072,-1.17291 0.887197,-1.01038 -0.009,0.77644 -1.454477,2.90003 -3.764222,9.39635 -3.451895,9.70869 0.03583,0.0358 0.38445,-0.71603 0.774781,-1.67071 1.18386,-2.89547 3.686592,-7.76886 5.054456,-9.84216 0.71035,-1.07668 1.338511,-1.957602 1.395919,-1.957602 0.05741,0 -0.23538,0.738072 -0.650633,1.640152 -1.968114,4.27553 -4.961471,12.27999 -4.943057,13.21812 0.0033,0.15045 0.600591,-0.86927 1.328096,-2.26605 0.727496,-1.39679 2.111775,-3.84897 3.076177,-5.44929 2.063441,-3.42406 3.570943,-6.51059 4.470671,-9.153462 0.356637,-1.04758 0.58416,-1.57138 0.505614,-1.16398 -0.07857,0.40739 -0.158342,3.1216 -0.177314,6.031562 -0.02933,4.4925 -0.09354,5.4783 -0.425827,6.53314 -0.605573,1.92237 -3.993936,8.67937 -5.55887,11.0854 -0.170349,0.26189 -0.259635,0.47618 -0.198419,0.47618 0.184171,0 4.643502,-6.08425 6.184165,-8.43758 0.790121,-1.20691 1.803007,-2.90245 2.250854,-3.7679 0.914235,-1.76672 0.99658,-1.58281 0.40188,0.89757 -0.701567,2.92609 -2.42831,6.3983 -5.93922,11.94281 -1.701713,2.68738 -3.910482,6.73919 -3.757272,6.8924 0.05391,0.0539 0.46342,-0.49873 0.910118,-1.22798 0.446698,-0.72925 2.112559,-3.27825 3.701906,-5.66442 3.679334,-5.52399 4.950264,-7.55399 5.945769,-9.49691 0.679329,-1.32584 0.816233,-1.48504 0.909977,-1.05817 0.352579,1.60534 1.180685,6.58054 1.180543,7.09258 -3.91e-4,1.42601 -2.402164,5.22292 -5.410501,8.55336 -0.677646,0.75018 -1.570742,1.74073 -1.984662,2.2012 -1.1375,1.26544 5.398087,-4.91216 7.167523,-6.77492 0.847587,-0.89227 1.487208,-1.44508 1.421384,-1.22846 -0.325119,1.07 -0.548834,2.39599 -0.5535,3.28055 -0.0042,0.82602 -0.152494,1.17895 -0.932732,2.22216 -1.035341,1.38429 -2.986399,3.31576 -5.527283,5.47181 -0.931191,0.79015 -1.788309,1.5303 -1.904708,1.64478 -0.116398,0.11446 1.693073,-1.05377 4.021049,-2.59608 2.327975,-1.54231 4.137447,-2.70922 4.021048,-2.59313 -0.116398,0.1161 -2.523837,2.27081 -5.349869,4.78826 -2.826032,2.51744 -5.093067,4.57716 -5.03785,4.57716 0.05524,0 1.653154,-1.07677 3.550979,-2.39283 5.204625,-3.60916 8.978364,-6.16587 8.74145,-5.92231 -0.116399,0.11965 -1.592549,1.3933 -3.280332,2.83033 -5.922414,5.0425 -8.420338,7.80307 -10.551019,11.66045 -0.406296,0.73555 -0.687386,1.28976 -0.624654,1.23156 0.06274,-0.0582 0.853719,-1.01056 1.757738,-2.11634 3.346969,-4.09401 7.602973,-8.07189 9.859867,-9.21554 l 1.02506,-0.51944 -0.632961,0.93786 c -0.896888,1.32894 -1.59663,2.9978 -2.109368,5.03078 -0.697184,2.76427 -2.289456,4.85379 -5.896135,7.73748 -1.126202,0.90043 -2.378034,1.9018 -2.781847,2.22525 l -0.734204,0.58809 0.952353,-0.45416 c 1.677318,-0.79987 4.326777,-2.4699 5.356677,-3.37645 l 0.999405,-0.87972 -0.733979,1.23799 c -0.403688,0.68089 -1.090058,2.09188 -1.525274,3.13551 -0.615305,1.4755 -1.004396,2.08738 -1.749481,2.75124 -2.348814,2.09274 -3.822512,3.71473 -4.349281,4.78695 l -0.563014,1.146 0.794028,-0.95236 c 1.138292,-1.36527 2.768991,-2.87435 3.993078,-3.69526 0.581994,-0.39031 1.088183,-0.68057 1.124869,-0.64503 0.03666,0.0356 -0.517396,2.00282 -1.231269,4.37171 -2.105585,6.98708 -2.660283,9.69582 -1.467075,7.16414 0.605182,-1.28404 1.750881,-2.75124 2.148378,-2.75124 0.09593,0 -0.0075,0.35713 -0.229306,0.79363 -0.850186,1.67126 -1.336828,3.71819 -1.446528,6.08448 -0.09664,2.0848 -0.02933,2.71482 0.644618,6.03157 1.38767,6.82941 2.381242,9.46554 4.285207,11.36951 0.614298,0.6143 1.261881,1.11691 1.439071,1.11691 0.297229,0 0.971117,-1.85719 1.804631,-4.97341 0.318243,-1.18982 0.308111,-1.20613 -0.45903,-0.7384 -0.946962,0.57738 -1.031274,0.53491 -0.667339,-0.33612 0.173982,-0.4164 0.41452,-1.58303 0.534526,-2.59252 0.124323,-1.04582 0.433792,-2.31345 0.71934,-2.94652 0.275624,-0.6111 0.459063,-1.11108 0.407637,-1.11108 -0.05141,0 -0.47471,0.3444 -0.940647,0.76534 -0.465928,0.42094 -0.847145,0.70348 -0.847145,0.62787 0,-0.31425 1.077868,-2.23153 1.628442,-2.89661 l 0.593717,-0.7172 -0.581994,0.37446 c -0.320093,0.20595 -0.581994,0.32099 -0.581994,0.25564 0,-0.0653 0.579261,-0.9803 1.287252,-2.03323 0.707991,-1.05293 1.243992,-1.95767 1.191117,-2.01055 -0.05291,-0.0529 -0.828706,0.28295 -1.724068,0.74628 l -1.627925,0.84242 0.724172,-0.80158 c 1.607795,-1.77963 3.049742,-4.22635 3.615605,-6.13502 0.186088,-0.62765 0.568379,-1.53372 0.849536,-2.01349 0.527977,-0.90091 2.328792,-2.71945 3.362658,-3.39575 0.777223,-0.5084 0.585823,-0.66502 -0.27115,-0.22186 -0.370826,0.19176 -0.716265,0.30663 -0.767632,0.25526 -0.05141,-0.0513 0.623421,-0.50353 1.499535,-1.0048 0.87612,-0.50128 1.55859,-0.94575 1.51662,-0.98772 -0.042,-0.042 -0.49363,0.0142 -1.0037,0.12495 l -0.927372,0.20126 2.211942,-2.09863 c 1.21657,-1.15425 2.15056,-2.09863 2.07553,-2.09863 -0.075,0 -0.49899,0.21135 -0.94213,0.46965 -1.18861,0.69282 8.36671,-9.1244 10.30827,-10.59082 0.87477,-0.66069 1.82712,-1.36446 2.11635,-1.56394 l 0.52586,-0.36268 -0.69861,0.22843 c -0.38424,0.12563 -0.74144,0.1856 -0.79377,0.13327 -0.14979,-0.14979 6.12243,-4.57082 7.13966,-5.03246 0.50235,-0.22798 1.1467,-0.41661 1.43189,-0.41916 0.68544,-0.006 0.33439,-0.33752 -0.62432,-0.58934 -0.71974,-0.18905 -0.69576,-0.20242 0.84653,-0.4722 1.50596,-0.26341 1.55687,-0.2903 0.99405,-0.525 l -0.59321,-0.24736 1.54556,-0.76545 c 0.85006,-0.421 2.06936,-1.21449 2.70955,-1.76332 1.17005,-1.00306 3.33877,-2.17628 4.12687,-2.23251 0.2328,-0.0166 0.0423,-0.0881 -0.42327,-0.15892 l -0.84654,-0.12873 2.39798,-1.26977 c 1.3189,-0.69837 3.31884,-1.91158 4.44432,-2.69602 2.69952,-1.88149 4.72257,-2.87513 6.28654,-3.08769 l 1.26228,-0.17156 -0.71794,-0.30889 -0.71794,-0.30889 1.88193,-1.3995 c 1.03506,-0.76972 2.40044,-1.94497 3.03419,-2.61166 0.63374,-0.6667 1.43203,-1.30971 1.77399,-1.42892 l 0.62175,-0.21674 -0.48789,-0.2611 -0.48788,-0.26111 0.51278,-0.15314 c 0.28202,-0.0842 0.8585,-0.42453 1.28105,-0.75621 0.42256,-0.33168 1.03068,-0.66891 1.35136,-0.74939 l 0.58308,-0.14635 -0.47276,-0.25301 c -0.4661,-0.24945 -0.46278,-0.25708 0.2359,-0.54208 0.39735,-0.16209 2.52151,-2.06673 4.83552,-4.33584 4.08392,-4.00466 5.98341,-5.66921 6.74534,-5.91104 0.31036,-0.0985 0.41596,-0.40207 0.50173,-1.442272 0.0806,-0.97733 0.39441,-1.95283 1.21544,-3.77799 1.73412,-3.85492 3.19134,-5.47581 4.9229,-5.47581 0.68692,0 0.96216,0.13522 1.54008,0.75659 0.38704,0.41612 0.78226,0.84034 0.87829,0.9427 0.096,0.10236 0.57112,0.52743 1.05577,0.9446 1.11142,0.95668 2.30973,3.35709 3.36063,6.73187 l 0.77776,2.497642 0.87637,0.34878 c 3.73623,1.48696 8.04695,4.03814 10.43164,6.17367 0.72489,0.64916 1.86002,1.65281 2.52249,2.23033 1.63298,1.42357 2.38599,2.62943 3.97056,6.35841 1.83146,4.30997 2.44981,5.48455 3.91232,7.43164 0.68883,0.91706 1.46366,2.08428 1.72185,2.59383 0.66069,1.30392 0.79528,2.92535 0.32509,3.91622 -0.40821,0.86022 -1.95458,2.24707 -2.50554,2.24707 -0.19139,0 -0.92046,0.42144 -1.62016,0.93654 -2.49057,1.83344 -4.16374,1.87742 -7.11551,0.18704 -1.03276,-0.59142 -2.11584,-1.13658 -2.40684,-1.21144 -0.29099,-0.0749 -0.0879,0.10088 0.45133,0.39056 1.79535,0.96449 2.67369,2.19652 2.13795,2.99886 -0.41848,0.62675 -1.26113,0.80851 -3.64745,0.78679 -2.69282,-0.0245 -6.73745,-0.76111 -11.27425,-2.05322 -1.37029,-0.39026 -2.52462,-0.6507 -2.56517,-0.57872 -0.0406,0.072 -0.14088,0.836 -0.22293,1.69785 -0.0821,0.86186 -0.33122,2.14754 -0.5537,2.85706 -0.22248,0.70953 -0.40876,1.671 -0.41397,2.1366 -0.008,0.74479 -0.0429,0.80253 -0.28757,0.48033 -0.2359,-0.31064 -0.29836,0.0587 -0.4115,2.43379 -0.0734,1.53999 -0.0723,3.03196 0.002,3.31548 l 0.13574,0.51549 -0.66986,-0.47699 c -0.36842,-0.26234 -0.66987,-0.39003 -0.66987,-0.28375 0,0.31711 1.62889,2.73887 1.93721,2.88016 0.15672,0.0718 -0.096,0.0744 -0.56158,0.006 l -0.84654,-0.12484 0.51307,0.5478 0.51306,0.54779 h -0.48002 c -0.45519,0 -0.47238,0.0555 -0.33248,1.0727 0.21229,1.54349 1.07252,4.91827 1.46289,5.73907 0.44808,0.9421 1.8949,1.88752 4.68345,3.06037 1.27436,0.53599 2.49433,1.12919 2.71103,1.31823 0.43468,0.37916 1.9123,3.22319 3.03209,5.83593 0.47602,1.11068 0.69977,1.93815 0.6581,2.4338 -0.0575,0.6834 -0.14871,0.77953 -1.01414,1.06841 -1.76182,0.58811 -3.1147,2.39794 -3.4804,4.65596 -0.23646,1.46001 -1.08506,2.37466 -2.65319,2.85966 -0.51052,0.1579 -0.50693,0.14269 0.14005,-0.59419 0.6433,-0.73267 1.04966,-1.56443 0.85796,-1.75613 -0.0515,-0.0515 -0.36972,0.0503 -0.70714,0.22628 -0.33741,0.17597 -0.79,0.32052 -1.00576,0.32124 -0.33175,8.3e-4 -0.29093,-0.11413 0.26454,-0.74678 0.36126,-0.41144 0.65683,-0.80469 0.65683,-0.87388 0,-0.0692 -0.69045,-0.0647 -1.53435,0.01 -1.38456,0.12248 -1.48376,0.10673 -1.01608,-0.16135 0.8686,-0.49789 1.20753,-1.87633 0.41007,-1.66779 -0.3904,0.10209 -0.41886,0.0638 -0.22373,-0.30075 0.1856,-0.34678 0.11779,-0.51052 -0.39925,-0.96422 -0.63316,-0.55559 -0.86807,-1.67794 -0.41039,-1.9608 0.11682,-0.0722 0.15538,-0.35847 0.0857,-0.63615 -0.16964,-0.67587 0.23549,-1.83769 0.88531,-2.53885 l 0.52922,-0.57103 -0.90923,-1.01518 c -0.50007,-0.55835 -1.02799,-1.02488 -1.17315,-1.03672 -0.14517,-0.0118 -0.63289,0.3118 -1.08383,0.71919 -0.47525,0.42936 -1.04175,0.74072 -1.34769,0.74072 -0.78139,0 -1.63706,-0.78252 -2.18177,-1.99521 -0.2652,-0.59042 -0.63835,-1.26395 -0.82922,-1.49675 -0.33952,-0.41409 -0.34399,-0.41179 -0.20593,0.10582 0.13855,0.51948 0.12818,0.51703 -0.57104,-0.1344 -0.69136,-0.64412 -2.63946,-1.66727 -3.01371,-1.58281 -0.10187,0.023 -0.34793,-0.10547 -0.54681,-0.28545 -0.19888,-0.17998 -0.84838,-0.4718 -1.44333,-0.64848 -0.63014,-0.18713 -1.25722,-0.54435 -1.50212,-0.85568 l -0.4204,-0.53445 -1.18273,0.90955 -1.18274,0.90956 0.9037,0.40264 c 0.49703,0.22145 1.57034,0.47249 2.38513,0.55789 1.68803,0.1769 2.1418,0.32367 2.30351,0.7451 0.0627,0.1635 0.76057,0.71166 1.55071,1.21814 1.66896,1.06978 2.81226,2.27987 2.81226,2.97655 0,0.26891 0.20022,0.67011 0.44494,0.89158 0.71472,0.64681 1.07908,1.52688 0.92416,2.23221 -0.0991,0.45099 -0.0347,0.74911 0.22324,1.03413 0.19934,0.22026 0.41316,0.85671 0.47517,1.41432 0.0671,0.60332 0.31911,1.28565 0.62236,1.6851 0.63261,0.83325 0.9948,2.06813 0.74009,2.52327 -0.15519,0.27731 -0.23369,0.22602 -0.44878,-0.29327 -0.14338,-0.34615 -0.55079,-0.90245 -0.90535,-1.23622 l -0.64466,-0.60686 0.15527,0.52909 c 0.0854,0.291 0.3229,0.71955 0.52778,0.95235 0.57794,0.65671 0.84865,1.28964 0.84865,1.98412 0,0.7804 -0.33377,1.04521 -0.49824,0.3953 -0.0661,-0.26109 -0.3981,-0.80681 -0.73783,-1.21271 -0.56609,-0.67634 -0.71609,-0.73902 -1.79555,-0.75033 -1.41382,-0.0148 -1.88088,-0.36131 -2.35244,-1.74528 -0.4171,-1.22414 -0.41825,-1.92646 -0.004,-2.38434 0.29668,-0.32782 0.27314,-0.42346 -0.26037,-1.0575 -0.56299,-0.66906 -2.28213,-1.89573 -2.65682,-1.89573 -0.0991,0 0.10573,0.35713 0.45515,0.79363 0.88272,1.10267 1.31275,2.24052 1.28596,3.40259 -0.0126,0.54384 0.13668,1.43952 0.33161,1.99038 0.22805,0.64447 0.29838,1.21038 0.19726,1.58725 l -0.15714,0.5857 -0.15209,-0.53046 c -0.35211,-1.22803 -0.88227,-1.91579 -1.81468,-2.35408 -1.12884,-0.53061 -1.69907,-1.19812 -2.03495,-2.38206 -0.29873,-1.053 -1.05678,-1.9279 -2.16345,-2.49693 l -0.82341,-0.42338 0.11231,0.42946 c 0.0983,0.37595 -0.0233,0.34085 -0.97549,-0.28162 -0.62048,-0.40559 -1.845,-0.91181 -2.85042,-1.17836 -0.98892,-0.26217 -2.02583,-0.68874 -2.36221,-0.9718 -0.42767,-0.35985 -0.63048,-0.42777 -0.70736,-0.23686 -0.0592,0.14721 -0.1153,-0.0147 -0.12449,-0.3597 -0.0153,-0.57623 -0.0444,-0.59963 -0.35683,-0.28722 -0.31241,0.31242 -0.37276,0.30749 -0.74072,-0.0605 -0.29002,-0.29002 -0.70727,-0.40161 -1.51167,-0.40426 -1.48339,-0.005 -3.94014,-0.5403 -4.4035,-0.95962 -0.34403,-0.31135 -0.38379,-0.30295 -0.51444,0.10871 -0.13936,0.43908 -0.14829,0.43764 -0.56362,-0.0904 -0.66848,-0.84983 -0.84005,-0.62401 -0.27575,0.36295 0.63875,1.11717 0.68236,1.6601 0.0784,0.9758 -0.3814,-0.43211 -0.41999,-0.44244 -0.28556,-0.0763 0.0855,0.2328 0.22427,1.61371 0.30839,3.0687 0.10234,1.77001 0.2969,3.06562 0.58794,3.91523 l 0.43498,1.26981 -0.61644,-0.74072 -0.61645,-0.74072 0.3248,1.16398 c 0.17864,0.6402 0.58583,1.70433 0.90488,2.36474 0.46897,0.97077 0.5097,1.16309 0.21267,1.00412 -0.20207,-0.10814 -0.42593,-0.29135 -0.49749,-0.40712 -0.0716,-0.11577 -0.22455,-0.21049 -0.34,-0.21049 -0.11546,0 0.0443,0.33332 0.35506,0.74072 0.64078,0.84012 0.48519,0.97456 -0.30616,0.26454 -0.39625,-0.35553 -0.32567,-0.18125 0.27857,0.68781 l 0.80929,1.16399 -0.69,-0.6349 c -0.6263,-0.57631 -0.66565,-0.58799 -0.42632,-0.12664 0.21808,0.42034 0.21367,0.48792 -0.0255,0.39066 -1.17793,-0.47907 -1.10575,-0.53067 -0.94569,0.67589 0.0814,0.61352 0.38144,1.73577 0.6668,2.49388 0.60902,1.61802 0.61739,1.67325 0.20136,1.32797 -0.27498,-0.22822 -0.31745,-0.12181 -0.31745,0.79543 0,0.61355 -0.22252,1.65006 -0.52909,2.46453 -0.291,0.77312 -0.53843,1.76061 -0.54986,2.19446 l -0.0207,0.78879 -0.2875,-0.95235 -0.2875,-0.95236 0.0437,1.20244 c 0.0412,1.13316 0.0224,1.18308 -0.32663,0.86664 -0.34811,-0.31561 -0.37305,-0.26706 -0.41507,0.80809 -0.0246,0.62914 -0.0385,1.44254 -0.0309,1.80756 l 0.0138,0.66368 -0.50455,-0.55787 -0.50456,-0.55785 0.12241,1.05817 c 0.11952,1.03311 0.11436,1.04564 -0.21768,0.52908 -0.33058,-0.51428 -0.33705,-0.49652 -0.23087,0.63491 0.11256,1.1995 0.0547,1.20595 -0.63965,0.0712 -0.18521,-0.3027 -0.21798,-0.0376 -0.14815,1.19857 0.0842,1.49057 0.0702,1.55503 -0.23085,1.05817 -0.27857,-0.45984 -0.3215,-0.47532 -0.32802,-0.11828 -0.008,0.40666 -0.0108,0.40666 -0.33056,0 -0.29714,-0.37784 -0.31836,-0.29616 -0.26454,1.01817 0.0322,0.78593 0.0323,1.42877 3.7e-4,1.42853 -0.032,-2.4e-4 -0.16691,-0.26235 -0.29984,-0.58244 l -0.24169,-0.58199 -0.1335,0.84653 c -0.0837,0.53071 -0.50581,1.35011 -1.13144,2.19627 -0.54887,0.74235 -1.05449,1.575 -1.12359,1.85033 -0.16101,0.64151 -0.50117,0.44056 -0.51223,-0.30258 l -0.008,-0.5695 -0.33547,0.6349 c -0.18451,0.3492 -0.46533,0.78407 -0.62405,0.96638 -0.15872,0.18233 -0.42579,0.70612 -0.5935,1.16399 -0.2621,0.7156 -0.31013,0.75821 -0.34202,0.30342 -0.0309,-0.44127 -0.0834,-0.38858 -0.3161,0.31745 -0.22644,0.68707 -0.28348,0.74687 -0.30277,0.31745 l -0.0237,-0.52908 -0.30245,0.52908 -0.30245,0.52909 -0.0129,-0.74072 -0.0129,-0.74072 -0.72961,1.14516 c -0.40129,0.62983 -0.89439,1.62981 -1.09577,2.22216 -0.35183,1.03485 -0.37069,1.05253 -0.48223,0.45196 l -0.11609,-0.62503 -0.39897,0.62503 c -0.21944,0.34377 -0.64783,0.83221 -0.95199,1.08542 -0.36279,0.30202 -0.48021,0.52981 -0.34137,0.66224 0.44538,0.42482 1.83566,0.71097 2.81152,0.57867 1.12789,-0.15291 4.44405,0.5326 5.33639,1.10313 0.62927,0.40233 1.04216,0.90278 1.05144,1.27441 0.005,0.20356 -0.11173,0.19181 -0.4778,-0.0481 -0.43479,-0.28488 -0.56457,-0.27995 -1.264,0.0481 -0.474,0.22226 -0.73991,0.47688 -0.67855,0.64971 0.51132,1.44008 0.14911,2.02852 -1.25421,2.03753 -0.8871,0.006 -0.97337,0.0516 -0.97398,0.51931 l -6.8e-4,0.51307 -0.48982,-0.46016 c -0.71386,-0.67064 -1.65118,-0.60539 -2.21266,0.15405 l -0.45411,0.61421 0.46722,0.11213 c 1.33613,0.32066 4.10835,0.60368 5.03813,0.51433 0.59832,-0.0575 1.61761,-0.39042 2.34705,-0.76662 1.48682,-0.76682 1.7841,-0.79904 2.47438,-0.26824 0.49119,0.3777 0.54384,0.37457 2.11634,-0.12581 2.38956,-0.76036 3.35245,-0.82763 4.36539,-0.30498 0.46476,0.23981 1.78487,0.58565 2.93359,0.76853 1.36051,0.2166 2.27418,0.47851 2.62105,0.75136 0.29288,0.23037 0.71392,0.41886 0.93565,0.41886 0.67158,0 2.01527,0.79698 2.50628,1.48655 0.25441,0.35728 0.51102,1.0499 0.57023,1.53914 l 0.10767,0.88954 -0.64963,-0.99908 c -0.74142,-1.14023 -1.49489,-1.46024 -2.33194,-0.99042 -0.29175,0.16376 -0.60643,0.5909 -0.69927,0.9492 -0.29466,1.13712 -0.86977,1.46358 -2.57792,1.46339 -0.83188,-9e-5 -1.6716,-0.0788 -1.86604,-0.1749 -0.27252,-0.1347 -0.3707,-0.0619 -0.42852,0.31762 -0.0672,0.44103 -0.11686,0.40691 -0.47658,-0.32731 -0.26474,-0.54036 -0.64685,-0.92215 -1.12137,-1.12041 -0.90677,-0.37887 -1.60417,-0.19773 -1.42401,0.36989 0.34345,1.0821 -0.68214,1.89329 -2.37579,1.87917 -0.55868,-0.005 -1.30148,-0.17133 -1.65067,-0.37036 z M 37.836201,154.60665 c -0.266793,-0.11464 -0.305912,-0.18188 -0.105817,-0.18188 0.174598,0 0.507922,0.0818 0.740719,0.18188 0.266801,0.11465 0.305911,0.18188 0.105817,0.18188 -0.174598,0 -0.507922,-0.0818 -0.740719,-0.18188 z"
       id="path1"
       sodipodi:nodetypes="ccssssssssscsscsssssssssscccsssscsscsscssssssssssscsssssssssssssssssssssscsssssssssssssssscssssssssssssssssssscssssssssssssssssssssssssssssssssssssssccssssssssssscsssssssssscssscsssssssssssssssssssssssscssssssssssscssscssssssssssssssssssscsssssssssssssscsscssscsscscssssssssssssssssscsssssssssssssssssssssscsssssssssssssscsssscsscsssscsssssscssssssssssssscssssscssssssssscssssscssscssscsssscssscccssscccssscssssssssssscsssssssssssssssssssssccsssccccssssssssssssscsssssssssscsssssssssssscccssssssssssssscssssssscsssssscsssscsssssssscsssssssscccsssssssscssssssssscccsssscccssssssssssscsssscsssssscccccssscssssssssscscsscssssssssssscssssssssscccsssss" />
    <path
       style="fill:#ffffff;stroke-width:0.264583"
       id="path14"
       d="m 29.668462,121.21158 c -3.24488,-5.08977 4.199384,-9.5765 7.239215,-11.13847 4.470801,-2.29726 9.958814,-3.54238 14.64353,-2.89497 5.813801,0.80344 11.600344,6.2059 14.255033,10.86905 1.733917,2.19984 5.687366,20.68535 6.253977,28.32287 1.512786,20.39131 1.547948,29.99958 6.618097,40.18136 8.346031,15.37958 20.872644,14.65942 34.225296,13.07605 11.07072,-2.35059 15.38018,-8.02612 16.77788,-9.5321 6.40861,-7.92773 16.33082,-31.38526 -12.00808,-28.39073 l 0.19789,0.0292 v 0 c 0.83134,-0.093 1.65756,-0.26893 2.49403,-0.27889 2.26101,-0.0269 4.30429,0.94653 6.19289,2.08097 1.49476,1.22029 2.04947,1.48895 3.13892,3.09121 4.13446,6.08057 4.12623,9.28731 -0.92736,17.14936 -4.56098,5.84976 -14.65381,15.43557 -32.467463,10.26607 C 79.385729,185.47167 80.487555,168.3494 75.266827,123.21548 73.196342,105.31584 55.22999,99.881427 45.43387,102.03254 30.364866,105.34152 21.37432,119.50233 29.668462,121.21158 Z"
       sodipodi:nodetypes="csscscccccsscsccssc" />
    <path
       style="fill:#ffffff;stroke-width:0.264583"
       id="path16"
       d="m 173.43818,101.85805 c 0.33408,-1.05399 0.67795,-2.103946 1.07248,-3.137091 1.45669,-4.283377 0.13432,-1.138638 0.48032,0.01504 0.13202,0.43956 0.208,0.900223 0.39737,1.318291 1.97401,4.35794 1.41297,2.2864 3.66077,7.00666 0.41909,0.88019 3.15445,1.29587 3.72525,0.60601 0.76613,0.9166 -4.69946,-5.81851 -5.09987,-8.361421 -0.0962,-0.503849 -1.48098,-8.479034 -4.07735,-4.322602 0.0148,0.03053 0.0479,0.05788 0.0443,0.09159 -0.0195,0.179081 -0.20932,0.348531 -0.21221,0.559095 -0.37585,0.878802 -0.75282,2.119195 -1.10614,3.006928 -0.40876,1.044739 -0.88924,2.07876 -1.14466,3.17322 z"
       sodipodi:nodetypes="ccssscccccccc" />
    <path
       style="fill:#ffffff;stroke-width:0.264583"
       id="path17"
       d="m 170.19608,93.388663 c -0.0592,0.29506 -4.75276,12.089567 -4.98255,12.272967 -0.11824,0.17503 -0.2442,0.3666 -0.37159,0.5538 -0.50709,0.62883 0.68682,-0.05 0.95171,0.56493 l 0.19992,0.006 v 0 c 0.49964,-0.43724 1.16872,0.17747 1.45094,-0.41484 0.118,-0.17183 0.21109,-0.35913 0.303,-0.5451 0.0616,-0.27912 2.57166,-5.2803 3.5859,-8.302636 0.34198,-1.019073 -0.91434,11.085406 -0.54353,11.265006 0.98676,0.47793 2.36223,3.88254 2.28602,0.38921 -0.0191,-0.87716 0.24113,-16.785306 0.25363,-16.873956 0.1505,-0.31975 -2.98251,0.763029 -3.13346,1.084619 z"
       sodipodi:nodetypes="cccccsccsssccc" />
    <path
       style="fill:#ffffff;stroke-width:0.264583"
       id="path20"
       d="m 7.1213934,204.52493 c 0.00309,0.15617 0.00619,0.31233 0.00928,0.46849 0,0 0.1999885,0.004 0.1999885,0.004 v 0 c 0.058897,-0.15523 0.1177938,-0.31045 0.1766909,-0.46567 z" />
  </g>
</svg>
