<?xml version="1.0" encoding="UTF-8" standalone="no"?>
<!-- Created with Inkscape (http://www.inkscape.org/) -->

<svg
   width="210mm"
   height="297mm"
   viewBox="0 0 210 297"
   version="1.1"
   id="svg1"
   inkscape:version="1.4.2 (ebf0e940d0, 2025-05-08)"
   sodipodi:docname="glirrel5.svg"
   xmlns:inkscape="http://www.inkscape.org/namespaces/inkscape"
   xmlns:sodipodi="http://sodipodi.sourceforge.net/DTD/sodipodi-0.dtd"
   xmlns="http://www.w3.org/2000/svg"
   xmlns:svg="http://www.w3.org/2000/svg">
  <sodipodi:namedview
     id="namedview1"
     pagecolor="#ffffff"
     bordercolor="#666666"
     borderopacity="1.0"
     inkscape:showpageshadow="2"
     inkscape:pageopacity="0.0"
     inkscape:pagecheckerboard="0"
     inkscape:deskcolor="#d1d1d1"
     inkscape:document-units="mm"
     inkscape:zoom="0.3873913"
     inkscape:cx="352.3569"
     inkscape:cy="551.12233"
     inkscape:window-width="1920"
     inkscape:window-height="1080"
     inkscape:window-x="0"
     inkscape:window-y="0"
     inkscape:window-maximized="1"
     inkscape:current-layer="layer1" />
  <defs
     id="defs1" />
  <g
     inkscape:label="Layer 1"
     inkscape:groupmode="layer"
     id="layer1">
    <path
       d="m 75.08958,37.677948 c -0.975755,9.03906 -4.826702,21.946456 -10.547189,29.004757 l 1.31838,-3.95519 -34.278277,21.094314 v 1.31838 h 7.910379 v 1.318428 C 31.590217,87.457364 15.807329,84.969394 9.5318948,89.890921 1.3497476,96.307771 1.7458897,113.13173 14.443306,111.50816 v -1.31839 l -6.5919493,-5.27361 9.2287583,-1.31838 v -1.31839 l -3.955188,1.31839 2.636808,-9.228763 h 1.31838 c 5.509612,6.185493 13.940307,8.417443 19.256131,14.640713 5.748292,6.72952 5.274815,16.99558 8.843231,24.91119 3.567519,7.91356 11.355667,14.42758 14.093381,22.4127 2.516871,7.34103 -7.25687,12.86948 -10.43323,18.45756 -8.843978,15.55901 4.552791,29.40908 19.657953,31.64153 -10.121847,10.61824 -38.671315,9.22876 -52.735846,9.22876 v 1.31837 H 192.42685 v -1.31837 c -24.23258,0 -42.32599,-9.3936 -47.46228,-34.27828 -5.44478,-1.26273 -7.25169,-8.86157 -10.40677,-13.184 -5.90416,-8.08857 -13.2881,-14.61075 -22.55312,-18.45752 v -1.31842 c 11.92984,3.44462 19.57588,12.46835 26.36794,22.41276 h 1.31838 c -9.29553,-19.64939 -31.48272,-53.96987 -55.372661,-54.05429 v -1.31838 l 39.551901,-3.95518 -2.63681,2.63681 v 1.31837 l 6.592,-1.31837 -1.31838,-5.27362 5.27357,11.86556 2.63682,-9.22875 6.59193,6.592 h 1.31844 l -6.592,-11.86557 v -1.31843 l -31.64152,-1.31838 v -1.31839 h 9.22877 v -1.31842 l -36.9151,-7.910382 c -1.648249,11.666402 -5.34617,30.798612 -0.883022,42.188712 3.571904,9.11544 12.34652,16.00034 16.539991,25.04951 3.789454,8.17732 3.338201,17.31976 8.074171,25.04957 l -11.865572,-3.95519 2.636811,5.27356 C 74.222952,173.0674 50.807182,144.82124 45.937328,123.37373 41.448718,103.60521 50.13384,86.51654 71.134392,86.458637 l -2.636811,3.95519 29.004708,2.636761 v -5.273571 h 1.318427 l 3.955204,2.63681 C 102.48839,76.484634 96.484233,58.034904 79.04477,60.090705 79.413007,51.517001 81.802863,44.404984 75.08958,37.677948 m 10.547139,6.592 -2.636759,13.183948 7.910379,2.636809 c -0.0049,-6.650897 0.100652,-11.344156 -5.27362,-15.820757 m 59.327851,10.547188 2.63682,-5.273619 c -7.84786,5.544042 -14.58671,14.368238 -17.13915,23.731138 h -1.31843 v -5.27357 h -1.31838 l -3.95519,26.367932 h -1.31837 v -3.95519 h -1.31844 l 1.31844,10.547143 18.4575,2.63681 -2.63675,5.27357 c 4.55604,3.50129 5.90799,6.12784 5.27357,11.86556 l -3.95519,-2.63675 h -1.31838 l 0.35827,19.77594 -4.14339,18.45752 11.69565,25.04957 17.13919,-5.27362 -2.63682,-2.63676 14.50239,-11.86557 -3.95519,1.31838 c 7.39205,-7.75237 11.30703,-16.90449 11.86551,-27.68632 h -1.31837 v 2.6368 h -1.31838 c 2.10947,-11.36264 1.84716,-21.43386 -3.95519,-31.64151 h -1.31838 v 7.91038 h -1.31839 c -0.69421,-7.95114 -6.53186,-17.323461 -3.04271,-25.161439 7.75003,-17.409695 19.75577,0.02492 17.54505,11.977439 5.38637,0 0.71614,11.93324 0,15.82075 h 1.31843 2.63675 l 5.27363,-6.59195 3.95518,-15.820753 h 1.31839 v 5.27357 h 1.31837 l 1.31843,-22.412758 1.31838,2.63681 h 1.31838 C 204.36083,53.934014 181.93183,47.045183 159.46714,52.180326 v -1.31838 l 14.50238,-2.636809 c -9.96124,-5.876552 -21.15711,-0.07524 -29.00475,6.591999 m 18.45757,-7.470985 c 1.01956,0 0.21127,0.656399 -0.4395,0.439493 l 0.4395,-0.439493 m 11.86557,-0.439494 v 1.31838 h 6.59199 l -6.59199,-1.31838 m 9.22875,6.592 13.18401,5.27362 -2.63682,2.636759 3.95519,1.31843 v 1.318429 l -6.592,-6.591999 -9.22876,-2.63676 1.31838,-1.318429 m -39.55189,1.318429 -1.31838,1.31838 1.31838,-1.31838 m 48.34122,4.394584 0.87892,0.439493 -0.87892,-0.439493 M 90.910538,75.911449 h -1.31843 l -5.273569,-5.273554 1.318379,2.63676 -2.636759,-1.31838 v 1.31838 l 5.273569,3.955174 c -11.88849,2.427428 -1.970494,-17.159304 2.63681,-1.31838 m 109.426882,-7.910364 5.27362,9.228744 h -1.31843 l -3.95519,-9.228744 m -67.23822,1.31838 -1.31837,1.31843 1.31837,-1.31843 m 67.23822,5.273604 3.95519,5.27357 -3.95519,-5.27357 m 1.31843,5.27357 2.63676,9.228759 h -1.31837 l -1.31839,-9.228759 m -160.844397,3.95519 -1.31838,1.31838 1.31838,-1.31838 m 84.377357,10.547188 -1.31837,1.31838 1.31837,-1.31838 m 55.37267,43.507083 -1.31839,1.31838 1.31839,-1.31838 m -9.22876,25.04952 -1.31839,1.31838 1.31839,-1.31838 m -72.5118,1.31838 c 3.36556,11.85545 8.65463,22.06635 19.77595,28.52561 12.33616,7.16483 26.8807,6.11458 34.27828,20.2551 H 73.771349 c 4.616074,-7.48165 5.85712,-8.76695 1.318431,-17.13919 h 39.5519 C 106.69228,188.79364 94.194036,176.10294 98.82092,164.244 m 40.87028,7.91038 1.31838,1.31843 -1.31838,-1.31843 m 1.31838,2.6368 1.31842,1.31839 -1.31842,-1.31839 m 1.75787,3.5157 0.43949,0.87894 -0.43949,-0.87894"
       style="fill:#0b0b0b;stroke:none;stroke-width:1.31839"
       id="path1" />
  </g>
</svg>
