<?xml version="1.0" encoding="UTF-8" standalone="no"?>
<!-- Created with Inkscape (http://www.inkscape.org/) -->

<svg
   width="210mm"
   height="297mm"
   viewBox="0 0 210 297"
   version="1.1"
   id="svg1"
   inkscape:version="1.4.2 (ebf0e940d0, 2025-05-08)"
   sodipodi:docname="glirrel8.svg"
   xmlns:inkscape="http://www.inkscape.org/namespaces/inkscape"
   xmlns:sodipodi="http://sodipodi.sourceforge.net/DTD/sodipodi-0.dtd"
   xmlns="http://www.w3.org/2000/svg"
   xmlns:svg="http://www.w3.org/2000/svg">
  <sodipodi:namedview
     id="namedview1"
     pagecolor="#ffffff"
     bordercolor="#666666"
     borderopacity="1.0"
     inkscape:showpageshadow="2"
     inkscape:pageopacity="0.0"
     inkscape:pagecheckerboard="0"
     inkscape:deskcolor="#d1d1d1"
     inkscape:document-units="mm"
     inkscape:zoom="0.56624285"
     inkscape:cx="-241.94566"
     inkscape:cy="775.28573"
     inkscape:window-width="1916"
     inkscape:window-height="1020"
     inkscape:window-x="0"
     inkscape:window-y="28"
     inkscape:window-maximized="1"
     inkscape:current-layer="layer1" />
  <defs
     id="defs1" />
  <g
     inkscape:label="Layer 1"
     inkscape:groupmode="layer"
     id="layer1">
    <path
       d="M 50.50873,33.645421 V 35.09771 L 63.5795,45.263846 C 44.310509,40.278429 23.679909,44.425835 11.296476,61.23925 l 11.618425,-4.356924 v 1.452289 C 0.68303748,69.899584 1.388709,95.292466 5.4872075,116.42691 H 6.9395528 L 15.653399,98.999221 c -4.347921,14.709399 0.34032,30.208359 15.975348,34.855379 -4.471534,-8.54505 -8.072013,-16.72795 -3.35737,-26.14154 7.887967,-15.749412 30.438907,-20.755092 39.405085,-2.90348 5.584875,11.11941 -3.471816,20.78446 -11.379762,27.4706 -17.548397,14.83714 -34.702187,26.96347 -39.470074,50.95292 -5.92613,29.81738 12.317124,59.24434 40.943661,68.62263 9.75885,3.19715 19.112937,1.3363 28.988977,2.74885 31.524416,4.50903 63.427856,4.1485 95.909506,4.1485 -2.42572,-11.73325 -13.16288,-11.61178 -23.23696,-11.61847 7.82517,-9.2049 12.75141,-19.66629 12.99233,-31.95075 0.31451,-16.02195 -6.91015,-23.30317 2.98307,-37.76002 -16.64923,5.27776 -31.35854,0.48467 -39.21231,-15.97536 10.39388,9.91787 24.96881,18.13232 39.21231,10.03617 4.8567,-2.76067 8.10391,-7.95352 13.07077,-10.40372 5.07511,-2.50365 17.40898,4.61113 15.42854,-6.87831 -2.4036,-13.94451 -30.93897,-5.05106 -29.27475,-21.77451 1.37429,-13.8097 26.43246,-4.86977 31.41618,-18.92823 6.09053,-17.180583 -18.97439,-24.571622 -26.86088,-32.943611 -3.2107,-3.408311 -2.733,-9.329385 -4.55414,-13.506703 C 169.84396,56.06468 159.26005,50.620159 147.81338,49.62077 l 1.45229,4.356923 -7.26156,-2.904579 c 3.88921,10.686881 13.1973,24.084416 8.25886,36.177638 -3.25171,7.962842 -12.01611,13.476628 -15.70079,21.914648 -4.23731,9.70363 -5.28264,20.4959 -12.00507,29.04502 -7.26194,9.23525 -17.58506,15.59496 -25.097079,24.69036 -13.793286,16.70039 -19.881127,41.60762 -13.548207,62.44921 -37.329567,-34.49174 15.227957,-72.2635 32.387786,-98.7569 11.22832,-17.33574 11.98762,-34.040092 8.27681,-53.73542 h -1.45228 c 0,16.488685 -1.16363,32.90739 -11.61849,46.47387 8.56274,-26.778432 10.56382,-69.859742 -23.2369,-79.876907 l 4.356915,14.52306 C 81.038045,39.787763 68.432138,35.060001 50.50873,33.645421 m 102.10458,18.710966 c 0,0 10.28033,2.607397 13.76037,6.249954 7.53656,7.888524 12.16192,30.386583 12.16192,30.386583 -1.48422,0.972043 -15.33962,-12.893705 -16.30517,0.371284 -0.30817,4.233676 -15.23795,-30.395319 -17.20892,-34.557129 -1.85486,-3.91664 14.31708,14.230173 22.29756,21.845784 m 24.06354,29.607797 -10.16618,-7.261549 c 6.44072,-1.43517 9.14077,0.83284 10.16618,7.261549 m -18.88004,14.52307 c -6.40213,12.68384 -3.75022,18.28134 4.35693,29.04617 -17.52776,-1.80716 -22.06417,-22.97141 -4.35693,-29.04617 M 9.146293,84.488959 C 22.970438,68.950161 47.443809,57.260995 69.152907,57.580126 c 50.443143,6.815562 26.658372,67.264324 18.181125,78.271584 -11.540444,14.98467 -24.4154,32.79795 -26.238254,49.75727 -1.09093,10.14971 -6.372765,33.1392 9.430195,40.04129 24.532077,10.71461 93.188167,-6.09292 54.168237,-25.30758 -28.319347,-13.94536 -32.70848,-23.43323 -17.45988,-29.04814 0,0 5.45129,-1.87225 32.23401,10.77463 18.26282,8.62375 35.68992,48.29852 1.95314,60.55809 -33.73679,12.25956 -82.886915,5.18299 -102.339803,-15.61092 -18.674729,-19.9621 -7.338456,-57.5153 9.362399,-69.97434 C 71.822964,139.60108 129.25804,48.153653 25.210599,92.669695 m 110.500221,66.842375 -0.48414,0.9682 0.48414,-0.9682"
       style="fill:#0b0b0b;stroke:none;stroke-width:1.45231"
       id="path1"
       sodipodi:nodetypes="cccccccccccsscccccccccsssssscccsssccccccccccacsscccccccccsssscszsscccc" />
  </g>
</svg>
