<?xml version="1.0" encoding="UTF-8" standalone="no"?>
<!-- Created with Inkscape (http://www.inkscape.org/) -->

<svg
   width="210mm"
   height="297mm"
   viewBox="0 0 210 297"
   version="1.1"
   id="svg1"
   sodipodi:docname="glirrel3.svg"
   inkscape:version="1.4.2 (ebf0e940d0, 2025-05-08)"
   xmlns:inkscape="http://www.inkscape.org/namespaces/inkscape"
   xmlns:sodipodi="http://sodipodi.sourceforge.net/DTD/sodipodi-0.dtd"
   xmlns="http://www.w3.org/2000/svg"
   xmlns:svg="http://www.w3.org/2000/svg">
  <sodipodi:namedview
     id="namedview1"
     pagecolor="#ffffff"
     bordercolor="#000000"
     borderopacity="0.25"
     inkscape:showpageshadow="2"
     inkscape:pageopacity="0.0"
     inkscape:pagecheckerboard="0"
     inkscape:deskcolor="#d1d1d1"
     inkscape:document-units="mm"
     inkscape:zoom="0.31872348"
     inkscape:cx="591.42176"
     inkscape:cy="32.943917"
     inkscape:window-width="1916"
     inkscape:window-height="1020"
     inkscape:window-x="0"
     inkscape:window-y="28"
     inkscape:window-maximized="1"
     inkscape:current-layer="layer1"
     showgrid="false" />
  <defs
     id="defs1" />
  <g
     inkscape:label="Layer 1"
     inkscape:groupmode="layer"
     id="layer1">
    <path
       style="fill:#000000;stroke-width:0.264583"
       d="m 22.107946,250.65145 c -0.171555,-0.60074 -0.406294,-0.84939 -0.86225,-0.91332 -0.344593,-0.0483 -0.769408,-0.20518 -0.944033,-0.34861 -0.220451,-0.18106 -0.43434,-0.16378 -0.699797,0.0565 -0.559647,0.46448 -2.410592,0.34838 -3.970549,-0.24902 l -1.362154,-0.52166 -0.477203,0.57531 -0.477202,0.57529 0.120994,-0.889 c 0.06657,-0.48895 0.212725,-1.10186 0.324855,-1.36205 0.183462,-0.42579 0.117528,-0.45477 -0.659791,-0.29006 -0.475007,0.10062 -1.120828,0.41915 -1.435153,0.70781 l -0.5715,0.52485 v -0.52125 c 0,-1.02902 0.7171,-2.23224 1.615572,-2.71076 0.492046,-0.26205 0.956574,-0.63791 1.032298,-0.83521 0.18497,-0.48205 2.638055,-1.60375 3.514064,-1.60684 0.528055,-0.003 0.872543,-0.24993 1.397,-1.00603 1.232799,-1.77731 2.191199,-1.78755 5.913755,-0.0631 2.127646,0.98563 3.211565,1.18028 4.743238,0.85177 1.99599,-0.42804 2.789052,-0.78785 2.349473,-1.06587 -0.277151,-0.17529 -0.287099,-0.23651 -0.03889,-0.23942 0.183435,-0.003 1.040685,-0.33978 1.905,-0.75031 0.864314,-0.41055 2.125953,-0.82531 2.803604,-0.9217 0.711332,-0.10115 1.101778,-0.25577 0.923766,-0.36581 -0.240083,-0.14838 -0.238336,-0.21392 0.0079,-0.29599 0.240162,-0.0801 0.215318,-0.30075 -0.103241,-0.91676 -0.230743,-0.44622 -0.621136,-1.69849 -0.867516,-2.78281 -0.407061,-1.79149 -0.53414,-2.02758 -1.392025,-2.58556 -0.739431,-0.48096 -0.948399,-0.78375 -0.964116,-1.397 -0.01164,-0.4505 -0.08578,-0.62116 -0.174889,-0.40195 -0.09028,0.2222 -0.283607,-0.20135 -0.463762,-1.016 -0.33483,-1.51419 -1.606312,-4.68561 -1.62933,-4.064 -0.0077,0.20955 -0.154676,0.5656 -0.32647,0.79121 -0.259212,0.34046 -0.315648,0.16711 -0.331761,-1.01931 -0.01058,-0.78623 -0.173805,-1.71376 -0.362505,-2.06121 l -0.343086,-0.63169 -0.161581,0.635 c -0.124354,0.48871 -0.206189,0.29144 -0.355203,-0.85625 -0.106468,-0.8202 -0.355097,-1.949 -0.552476,-2.50843 -0.197379,-0.55946 -0.360336,-1.71717 -0.362135,-2.57276 l -0.0032,-1.55556 -0.623941,1.27 c -0.601371,1.22404 -0.619733,1.23783 -0.50792,0.381 0.06382,-0.48895 0.237172,-1.60552 0.385259,-2.48126 0.148061,-0.87575 0.202777,-1.69979 0.12155,-1.83121 -0.259477,-0.41984 0.870029,-6.38249 1.622637,-8.56599 0.399547,-1.15914 0.654341,-2.10675 0.566208,-2.1058 -0.08813,0 -0.433917,0.40357 -0.768403,0.89469 -1.047353,1.53787 -0.869315,0.77933 0.427725,-1.82226 0.686356,-1.37673 1.456823,-3.07467 1.712119,-3.77317 0.255297,-0.6985 0.680112,-1.58433 0.944033,-1.9685 0.490406,-0.71385 0.305779,-0.95271 -0.294481,-0.381 -0.272626,0.25966 -0.298238,0.20182 -0.140679,-0.3175 0.332899,-1.09728 1.287039,-2.40176 2.658904,-3.63519 1.118182,-1.00531 1.236213,-1.19081 0.757899,-1.19081 -0.487257,0 -0.520012,-0.0561 -0.233918,-0.40079 0.182959,-0.22045 0.854181,-0.66747 1.491588,-0.99333 0.637434,-0.32588 1.552866,-1.00277 2.034276,-1.50418 0.850582,-0.8859 0.858176,-0.9117 0.268949,-0.9117 -0.482203,0 -0.323374,-0.17135 0.775679,-0.83677 2.473192,-1.49739 2.825538,-1.77149 2.519971,-1.96035 -0.176583,-0.10914 0.150442,-0.43665 0.83902,-0.84016 1.300374,-0.76208 2.503858,-2.05124 3.21355,-3.44231 0.542607,-1.06362 2.112962,-2.57241 2.677371,-2.57241 0.196427,0 0.438574,-0.13168 0.538057,-0.29268 0.131313,-0.21246 -0.108215,-0.24644 -0.874025,-0.12399 -0.580178,0.0928 -1.054893,0.12573 -1.054893,0.0732 0,-0.0525 0.45929,-0.41376 1.020603,-0.80275 0.56134,-0.38899 0.969857,-0.75803 0.907839,-0.82005 -0.219155,-0.21915 -2.873613,0.69443 -3.539411,1.21815 -0.371263,0.29202 -0.675031,0.4283 -0.675031,0.30281 0,-0.41349 1.162235,-1.33027 2.81641,-2.22163 1.663964,-0.89662 1.628087,-1.0977 -0.109723,-0.61515 -1.189699,0.33033 -1.346729,0.21256 -0.809598,-0.60722 0.423492,-0.6463 1.107281,-1.00182 2.674911,-1.39076 l 0.889,-0.22055 -0.883418,-0.46117 c -0.882914,-0.46093 -0.883073,-0.4613 -0.267679,-0.68895 0.338667,-0.12528 0.779754,-0.36388 0.980202,-0.53025 0.298582,-0.24781 0.16338,-0.3519 -0.748321,-0.576 l -1.112784,-0.27353 1.27,-0.3393 1.27,-0.33927 -0.856113,-0.19167 c -0.470879,-0.10541 -1.099529,-0.44264 -1.397,-0.7494 l -0.540887,-0.55777 1.3335,0.17478 c 1.498388,0.1964 1.888648,-0.22021 0.457729,-0.48863 -0.481674,-0.0904 -1.349746,-0.56028 -1.929024,-1.04428 -0.579306,-0.48398 -1.185334,-0.88247 -1.34673,-0.88554 -0.161395,-0.003 0.163725,-0.21775 0.722525,-0.47704 1.145592,-0.5316 3.278452,-2.03862 3.115653,-2.20141 -0.05863,-0.0586 -0.697335,0.1784 -1.419383,0.52673 -0.722022,0.3483 -1.404885,0.63331 -1.517465,0.63331 -0.11258,0 0.344064,-0.58452 1.014756,-1.2989 0.670693,-0.71437 1.219439,-1.40565 1.219439,-1.53619 0,-0.13052 -0.522367,0.12207 -1.160833,0.56136 -1.203325,0.82791 -1.774825,0.84593 -1.03894,0.0328 0.231987,-0.25633 0.421773,-0.52599 0.421773,-0.59926 0,-0.0733 -0.600075,-0.0778 -1.3335,-0.0101 l -1.3335,0.12306 1.2065,-1.07093 c 1.308391,-1.16139 1.510241,-1.56763 0.669686,-1.34782 -0.481065,0.12581 -0.506518,0.0838 -0.245057,-0.40478 0.347213,-0.64879 0.335492,-0.65111 -0.829945,-0.16415 -0.501517,0.20955 -0.98925,0.381 -1.083865,0.381 -0.09459,0 0.428651,-0.63513 1.162817,-1.41137 1.327573,-1.40374 1.534848,-1.92743 0.555334,-1.40321 -0.282205,0.15102 -0.892069,0.27207 -1.355275,0.269 l -0.842195,-0.006 1.0795,-0.49001 c 1.175041,-0.53337 1.432242,-0.86704 0.485087,-0.62933 -0.449395,0.11279 -0.695431,-0.005 -1.008486,-0.48274 l -0.414047,-0.63193 1.706986,-0.80208 1.70696,-0.80211 -0.6985,-0.36944 c -0.384175,-0.20317 -0.6985,-0.47419 -0.6985,-0.60222 0,-0.46167 -1.153055,-1.42531 -1.593215,-1.33149 -0.382535,0.0815 -0.353881,-0.046 0.1905,-0.8482 0.352398,-0.5193 0.642276,-1.07111 0.644181,-1.22624 0.0026,-0.15512 0.07707,-0.5571 0.167031,-0.89328 0.114644,-0.42855 0.07567,-0.5569 -0.130492,-0.4295 -0.199681,0.1234 -0.295937,-0.0879 -0.300064,-0.65879 -0.0063,-0.88775 -0.369756,-2.69798 -0.584703,-2.91293 -0.181663,-0.18166 -3.087529,0.59341 -4.397851,1.17303 -0.994119,0.43974 -1.107387,0.57822 -1.107387,1.35377 0,0.53761 -0.189416,1.03534 -0.501518,1.31778 -0.275828,0.24961 -0.576659,0.69062 -0.668496,0.98002 -0.09186,0.28938 -0.315146,0.67429 -0.4962,0.85535 -0.181054,0.18105 -0.409125,0.98649 -0.506836,1.78985 -0.267467,2.199 -1.014703,3.32846 -2.751084,4.15827 -0.462148,0.22087 -0.837698,0.67194 -1.016,1.22028 -0.155575,0.47848 -0.443945,0.92269 -0.640821,0.98717 -0.26498,0.0868 -0.305488,-0.007 -0.155945,-0.36193 0.31742,-0.75271 0.661405,-3.44342 0.50374,-3.94017 -0.0784,-0.24699 0.08292,-0.99804 0.358484,-1.66902 0.528981,-1.2881 0.871749,-3.63294 0.531071,-3.63294 -0.110675,0 -0.664315,0.5261 -1.230339,1.16911 -1.21957,1.38552 -1.967997,3.24948 -2.482188,6.18194 -0.403146,2.29904 -0.619972,2.86784 -1.433883,3.76145 -0.578485,0.6351 -1.211262,0.72363 -1.936274,0.27085 -0.409072,-0.25548 -0.626136,-0.17356 -1.444678,0.54512 -1.118764,0.98229 -1.41216,0.68207 -0.629602,-0.64426 0.658521,-1.11612 0.674317,-1.79141 0.04977,-2.12569 -0.400791,-0.21449 -0.654473,-0.0689 -1.524,0.8744 -1.008486,1.09405 -1.043199,1.1095 -1.043199,0.46426 0,-0.6859 0.572214,-2.04507 2.307352,-5.48068 0.897546,-1.77716 0.946229,-1.9685 0.500829,-1.9685 -0.271356,0 -0.668972,-0.25072 -0.883602,-0.55716 l -0.390234,-0.55713 -0.703659,0.61121 c -0.387033,0.33618 -0.903711,0.82815 -1.148186,1.09328 -0.433335,0.46996 -0.4445,0.46612 -0.4445,-0.15335 0,-0.34946 0.400209,-1.19081 0.889344,-1.86962 0.489135,-0.67885 0.992955,-1.46283 1.119611,-1.74223 0.126682,-0.2794 0.755173,-1.01759 1.396682,-1.64039 0.641509,-0.62283 1.166363,-1.32842 1.166363,-1.56803 0,-0.23958 0.29128,-0.78176 0.647276,-1.20483 l 0.647251,-0.76925 -0.520251,-0.52025 c -0.286146,-0.28615 -0.663151,-0.53766 -0.837776,-0.55896 -0.533876,-0.065 -0.794835,-0.11475 -1.604328,-0.30557 -0.580416,-0.13681 -1.130458,-0.0198 -2.159,0.45884 -1.669573,0.77719 -2.299626,0.80743 -2.904172,0.13944 -0.676963,-0.74806 -1.355011,-0.63278 -1.8533,0.31501 -0.68842,1.3095 -1.998663,2.44086 -3.043529,2.62803 -1.092121,0.1956 -1.834171,0.75525 -1.834171,1.38329 0,0.24069 0.177932,0.86347 0.39542,1.38396 0.763429,1.82713 -0.284427,3.38783 -2.079096,3.0966 -0.766921,-0.12446 -0.871273,-0.0686 -1.015841,0.54369 -0.230823,0.97751 -1.0922532,1.82555 -1.8532478,1.82447 -0.3598333,0 -1.0346795,-0.23292 -1.4996583,-0.51642 L 6.7363694,150.36831 5.86888,150.90446 c -0.4771231,0.29485 -0.9790112,0.72726 -1.1153246,0.96089 -0.2039143,0.34946 -0.2492375,0.29911 -0.2555875,-0.28403 -0.00423,-0.38984 0.2391834,-1.04275 0.5409406,-1.4509 0.3017838,-0.40817 0.5589588,-1.08934 0.5715,-1.51373 0.024871,-0.83842 -0.09234,-0.93584 -0.5613664,-0.46678 -0.64897,0.64897 -0.2972065,-0.49305 0.4840816,-1.57163 0.671195,-0.92654 0.7653602,-1.23613 0.6311636,-2.07528 -0.1050661,-0.65715 -0.029263,-1.23468 0.2271183,-1.73048 0.2116667,-0.40931 0.3848365,-1.04781 0.3848365,-1.41888 0,-0.48668 0.4822031,-1.18028 1.7305337,-2.48913 0.9518121,-0.99792 2.0951562,-2.28848 2.5407672,-2.86792 1.02698,-1.33535 2.858505,-2.51492 4.491699,-2.89287 0.6985,-0.16164 1.67005,-0.3972 2.159,-0.52346 0.48895,-0.12628 1.8034,-0.91133 2.921,-1.74455 1.512014,-1.12726 2.324497,-1.55731 3.175,-1.68045 0.67474,-0.0977 1.40843,-0.41307 1.790911,-0.76986 0.356341,-0.33242 1.34755,-0.87857 2.202683,-1.2137 0.855134,-0.33514 1.967495,-0.93564 2.471923,-1.33447 0.929825,-0.73515 4.202483,-4.45818 4.202483,-4.78079 0,-0.0966 -0.364728,-0.0956 -0.810525,0.003 l -0.810524,0.17804 0.665003,-0.79031 c 0.388938,-0.46223 0.789596,-1.39052 0.965174,-2.23626 0.1651,-0.79529 0.454104,-1.88227 0.642249,-2.41554 0.350256,-0.99269 0.220398,-1.21486 -0.381132,-0.65207 -0.279347,0.26136 -0.308107,0.20524 -0.162586,-0.3175 0.09721,-0.34925 0.271356,-1.41007 0.387006,-2.35738 0.142848,-1.17033 0.42291,-2.04372 0.873786,-2.72505 0.826003,-1.24815 0.833755,-1.43751 0.03749,-0.9158 -0.803143,0.52625 -0.971021,0.51789 -0.687891,-0.0343 0.125334,-0.24447 0.297868,-1.016 0.383408,-1.7145 0.08554,-0.6985 0.233627,-1.54506 0.329062,-1.88124 0.122291,-0.43077 0.0867,-0.55755 -0.120517,-0.4295 -0.452782,0.27985 -0.365311,0.0466 0.600577,-1.60141 1.116833,-1.90559 2.30042,-4.526151 2.678616,-5.930744 0.158564,-0.58883 0.562451,-1.611657 0.897546,-2.27293 0.642329,-1.267566 0.735885,-1.581414 0.411585,-1.380993 -0.108743,0.06721 -0.156659,-0.640423 -0.106521,-1.572498 0.05016,-0.932074 -0.02513,-1.980432 -0.167216,-2.329682 -0.220398,-0.541682 -0.260774,-0.560335 -0.274691,-0.127 -0.0093,0.286755 -0.345308,-0.187511 -0.771789,-1.088972 -0.48522,-1.025684 -1.439201,-2.314708 -2.666789,-3.603414 -1.051216,-1.10355 -1.911323,-2.140214 -1.911323,-2.303727 0,-0.163486 -0.156713,-0.237119 -0.348271,-0.163618 -0.198094,0.07604 -0.827802,-0.360389 -1.4605,-1.012164 C 32.041754,80.750347 30.335139,79.284 28.861013,78.122003 25.849155,75.74787 24.69917,74.562696 23.28611,72.376417 c -0.988934,-1.530059 -2.031868,-4.191952 -2.031868,-5.185939 0,-0.664739 0.64897,-1.287542 1.585039,-1.521169 l 0.69604,-0.173699 -1.274075,-1.145487 c -0.700722,-0.630026 -1.571969,-1.653857 -1.936115,-2.275205 -0.678921,-1.158504 -0.720196,-1.520878 -0.660426,-5.796465 0.01164,-0.8382 0.01191,-2.0955 0,-2.794 -0.0217,-1.331119 0.47318,-2.593737 1.428168,-3.643656 1.177369,-1.294368 1.632981,-1.377289 8.930534,-1.625415 l 6.864773,-0.233415 5.737145,0.913156 c 3.155448,0.502232 6.352805,1.09429 7.105253,1.315641 1.311752,0.385921 3.802433,1.534504 5.449782,2.513171 l 0.779701,0.463206 1.424781,-1.052566 c 1.780116,-1.315032 4.0572,-2.483114 5.451395,-2.796354 0.587058,-0.131895 1.533737,-0.639498 2.105607,-1.129004 1.270344,-1.087358 3.625745,-2.354527 4.825815,-2.596171 0.84156,-0.169465 0.86188,-0.157797 0.381,0.218599 -0.48813,0.382085 -0.473207,0.398013 0.381,0.407141 1.667642,0.01773 2.883482,0.52877 3.988567,1.676188 1.844252,1.914922 1.983052,3.778515 0.46871,6.293326 -0.458761,0.761815 -0.960676,2.079863 -1.137391,2.986829 -0.47453,2.435383 -1.345962,3.910964 -3.81971,6.468057 -1.232456,1.273968 -2.424033,2.670598 -2.647977,3.103641 -0.381,0.736786 -0.375576,0.841243 0.08451,1.626473 0.270404,0.46154 0.781765,2.016549 1.136306,3.455591 0.354568,1.439042 0.876036,3.139493 1.158822,3.778779 0.627857,1.419331 0.635503,1.534716 0.06967,1.048782 -0.88048,-0.756153 -1.161124,-0.820976 -0.74803,-0.172773 0.587402,0.921703 1.153689,2.806515 1.57697,5.248645 0.548878,3.166904 1.050237,4.733978 1.799325,5.624222 0.744908,0.885269 0.690377,0.925327 -0.552635,0.40595 l -0.892572,-0.37293 0.554355,0.98634 c 0.304906,0.542475 1.250103,1.757204 2.100448,2.699385 1.357339,1.503918 1.466585,1.697858 0.894715,1.588532 -0.594519,-0.113639 -0.556948,-0.03403 0.43053,0.912124 0.595021,0.570151 1.157076,1.379511 1.248992,1.798559 0.195606,0.891883 1.533869,5.609564 1.801283,6.349944 0.151739,0.42006 0.05339,0.38706 -0.568087,-0.1905 -1.003908,-0.93302 -1.259152,-0.88228 -0.638968,0.127 0.278976,0.45403 1.474178,2.7686 2.655966,5.1435 1.181815,2.3749 2.791672,5.27847 3.577484,6.45237 0.785813,1.1739 1.428724,2.17556 1.428724,2.22591 0,0.0503 -0.417592,-0.0829 -0.928,-0.29622 -0.510381,-0.21326 -0.966549,-0.34918 -1.013671,-0.30208 -0.04712,0.0471 0.375285,1.44881 0.938662,3.11483 0.563377,1.66606 1.426528,4.57224 1.918123,6.45819 1.251823,4.80256 2.212102,7.68792 3.95986,11.89818 0.831771,2.00374 1.467565,3.68795 1.412822,3.74269 -0.05474,0.0547 -0.485589,-0.29882 -0.957474,-0.78568 -1.113208,-1.14855 -1.459283,-1.1304 -0.736811,0.0386 1.142682,1.84889 2.982991,5.86643 3.640163,7.94674 0.614972,1.94678 2.172891,9.0374 2.17813,9.91351 0,0.21704 -0.421825,-0.0445 -1.027218,-0.635 l -1.029415,-1.00404 0.657728,1.48879 c 1.003485,2.27144 1.825387,5.36149 2.26269,8.50704 0.453125,3.25932 1.457034,6.46893 2.955607,9.44949 0.572506,1.13863 0.975122,2.136 0.894742,2.21641 -0.08041,0.0804 -0.496649,-0.11295 -0.925036,-0.42966 -0.428361,-0.3167 -0.816346,-0.53718 -0.862224,-0.48995 -0.04585,0.0472 0.189282,0.94311 0.522525,1.99086 0.709718,2.23133 2.372471,5.207 2.909571,5.207 0.20582,0 0.85178,-0.71237 1.43542,-1.58306 1.41708,-2.11399 1.98509,-4.59052 1.78766,-7.79415 -0.15349,-2.49047 -0.20381,-2.48862 0.80078,-0.0295 0.1328,0.32507 0.25779,-0.38433 0.35825,-2.03308 0.0849,-1.39277 0.46858,-3.90345 0.85275,-5.57924 0.59124,-2.57911 0.70049,-3.63665 0.71155,-6.88772 0.0103,-3.03429 0.0716,-3.70096 0.29212,-3.175 0.44159,1.05344 0.91104,3.21866 1.26908,5.85341 l 0.33054,2.43239 -0.0936,-4.318 c -0.10425,-4.81023 -0.43418,-7.09903 -1.93061,-13.39379 -1.18891,-5.00102 -1.38856,-6.55894 -1.76655,-13.78421 -0.15348,-2.9337 -0.33544,-5.7912 -0.40433,-6.35 -0.11393,-0.92413 -0.0238,-0.81833 0.99589,1.16962 0.61664,1.20211 1.49889,2.74516 1.96059,3.429 1.42499,2.11071 3.35904,4.69768 3.44657,4.61015 0.0458,-0.0458 -0.26954,-0.82203 -0.70065,-1.725 -1.10871,-2.32214 -1.68574,-4.07768 -2.24419,-6.82747 -0.50914,-2.50698 -1.38295,-4.59756 -2.45348,-5.86978 -1.04733,-1.24471 -0.28896,-0.85376 1.12119,0.57798 0.82955,0.84225 1.64174,2.03526 2.2047,3.2385 0.49022,1.04775 0.8954,1.82848 0.9004,1.73501 0.005,-0.0935 -0.28059,-1.63656 -0.63471,-3.429 -1.29667,-6.56339 -3.08345,-11.4372 -5.36996,-14.64752 -0.81483,-1.14409 -0.83465,-1.21605 -0.28807,-1.04733 3.17653,0.98063 6.71988,5.34519 9.22205,11.35931 0.39301,0.94458 0.75917,1.67285 0.81367,1.61832 0.13092,-0.13092 -1.56175,-5.3662 -2.51568,-7.78079 -0.88326,-2.2357 -3.29756,-7.12443 -4.01818,-8.13646 -0.7012,-0.98473 -0.62558,-1.21098 0.16053,-0.48033 1.61245,1.49873 4.70217,6.70528 6.21956,10.4807 0.32779,0.81561 0.63127,1.37708 0.67437,1.24775 0.15263,-0.45789 -1.53091,-4.81486 -3.36156,-8.69966 -2.30426,-4.88989 -2.87592,-6.72713 -3.06668,-9.855647 -0.20114,-3.298561 -0.54761,-5.039969 -1.26079,-6.33685 -0.32653,-0.593725 -0.48036,-1.0795 -0.34187,-1.0795 0.52207,0 5.02375,4.779274 6.30063,6.689143 1.85422,2.773468 3.60026,6.365844 4.82835,9.934094 1.01899,2.96064 1.46217,3.95928 1.18952,2.68023 -0.0744,-0.34896 -0.31944,-1.60602 -0.54452,-2.79347 -0.84455,-4.45574 -3.17455,-10.213893 -5.58702,-13.807252 -1.23224,-1.835441 -1.32987,-2.443718 -0.22672,-1.412584 1.33022,1.243383 3.00535,3.730122 4.23156,6.281711 0.6922,1.440392 1.30493,2.572515 1.3616,2.515845 0.19487,-0.19487 -1.14128,-4.882834 -1.93403,-6.785717 -1.10527,-2.653004 -1.13037,-2.747301 -0.54099,-2.032 1.37332,1.666716 2.96984,5.947859 3.99537,10.713747 l 0.6187,2.87525 -0.12721,-2.667 c -0.21961,-4.603615 -1.46386,-10.560391 -2.9395,-14.072497 -0.40899,-0.973428 -0.70466,-1.808797 -0.65706,-1.856396 0.0476,-0.0476 0.49927,0.370311 1.00369,0.928661 1.54298,1.707859 2.74059,4.507124 3.70089,8.650235 0.25175,1.086061 0.25813,1.060767 0.1283,-0.508 -0.27959,-3.378015 -1.80002,-9.229117 -3.53116,-13.589 -0.35967,-0.905907 2.14561,1.705689 3.28946,3.429 1.09609,1.65137 2.69362,4.676246 3.35359,6.35 l 0.35055,0.889 -0.12756,-0.836163 c -0.15901,-1.042379 -1.21928,-3.682603 -2.89155,-7.200397 -1.82829,-3.845984 -1.83197,-3.875987 -0.60624,-4.925192 0.55973,-0.479108 1.25513,-1.350989 1.54533,-1.937518 0.60523,-1.223301 0.58573,-1.262618 1.15284,2.32627 0.45172,2.858717 2.10497,10.445035 2.46166,11.295829 0.12464,0.297313 0.13922,-0.236749 0.0345,-1.262829 -0.33012,-3.234029 -0.16465,-10.544757 0.26734,-11.811 l 0.38994,-1.143 0.0251,1.435259 c 0.0273,1.560168 0.92143,7.160418 1.23094,7.709773 0.10515,0.186584 0.20873,-1.680396 0.23019,-4.148879 0.0214,-2.468483 0.14081,-5.173953 0.26517,-6.012153 0.21463,-1.446609 0.23508,-1.343396 0.40277,2.032 0.1665,3.351371 1.02733,10.200957 1.31863,10.492237 0.0734,0.0734 0.13695,-1.000046 0.14126,-2.385404 0.009,-2.88081 0.31295,-5.538734 0.90985,-7.955412 0.67628,-2.737988 0.90451,-2.708063 0.782,0.102579 -0.0609,1.397 -0.0368,3.51155 0.0534,4.699 l 0.16415,2.159 0.20666,-2.032 c 0.57444,-5.64851 1.36036,-8.57549 2.71611,-10.115709 0.52628,-0.597905 1.3493,-1.738498 1.82888,-2.534655 l 0.87201,-1.447589 0.17733,4.381977 c 0.18137,4.482332 0.46752,6.96714 0.72395,6.286976 0.079,-0.20955 0.33033,-1.2954 0.55851,-2.413 0.47487,-2.326084 1.6157,-6.063774 1.64661,-5.394775 0.0114,0.245983 -0.14444,1.503283 -0.34624,2.794 -0.48754,3.118723 -0.9856,8.19568 -0.84516,8.615389 0.0617,0.184467 0.31944,-0.293264 0.57275,-1.061614 0.61243,-1.857719 1.51844,-3.781399 2.87112,-6.096 1.19679,-2.047849 3.08558,-4.673283 3.24639,-4.512469 0.0541,0.05413 -0.29631,1.202717 -0.77872,2.552462 -0.98883,2.766642 -1.93202,6.335765 -2.62258,9.924283 -0.46641,2.423689 -0.35557,3.032627 0.22564,1.239678 0.47265,-1.458145 1.95072,-4.312814 3.25308,-6.282954 1.1662,-1.764136 6.11118,-6.985 6.6159,-6.985 0.14468,0 -0.34912,0.942975 -1.09736,2.0955 -1.51217,2.329233 -2.82485,4.837165 -3.34986,6.400059 l -0.34578,1.029441 0.68783,-0.889 c 1.80531,-2.333228 7.02369,-7.346606 7.32912,-7.041198 0.0743,0.07435 -0.44484,0.854922 -1.15372,1.734635 -1.49105,1.85039 -4.82232,6.798654 -5.45343,8.100563 l -0.43095,0.889 0.5583,-0.762 c 1.21007,-1.651609 5.55508,-5.669307 7.7213,-7.139676 2.33149,-1.582525 5.94778,-3.655324 6.37726,-3.655324 0.13086,0 -1.1579,1.423405 -2.86391,3.163147 -3.53134,3.60119 -4.37417,4.750461 -2.37315,3.235933 1.35197,-1.02325 5.29627,-3.222307 5.46931,-3.04927 0.0552,0.05524 -0.66633,0.688102 -1.60354,1.40634 -0.93718,0.718264 -2.33164,1.945137 -3.09877,2.726452 l -1.39483,1.420548 1.01383,-0.489744 c 2.14495,-1.036108 9.6791,-6.821073 11.05386,-7.45841 3.925,-1.819639 3.09996,2.028463 1.35137,5.24405 -0.9923,1.824813 6.84081,-3.89261 9.53033,-5.088166 2.72458,-1.211141 -12.73726,19.240413 5.70896,1.749516 1.50516,-1.427206 19.65032,-8.262032 5.42823,2.959391 -16.27334,12.839895 4.91248,0.184641 5.71685,5.275841 l -4.57504,7.399514 6.89023,0.123472 c 0,0 -12.03225,6.81844 0.77077,9.966303 4.02877,0.99054 4.65704,3.11312 -4.17253,7.77346 -6.20614,3.27566 10.49724,16.71579 3.84793,15.44527 -9.50108,-1.81541 -0.51802,20.7597 -4.63849,16.31124 -3.80889,-4.11206 -9.55999,-6.52672 -6.84151,2.18341 1.05887,3.39269 -10.14868,-3.42938 -9.14991,3.88698 0.53175,3.89528 -7.41591,-3.55805 -13.02159,-6.01251 l -7.68001,-3.36271 -0.29964,1.12038 c -0.5079,1.89894 -1.72681,2.96124 -4.9515,4.31535 -5.93762,2.49336 -8.68153,3.98219 -12.87449,6.98574 -2.60191,1.86381 -4.46175,3.39101 -3.30502,2.71389 0.34925,-0.20445 1.47667,-0.91615 2.50534,-1.58155 3.90748,-2.52751 10.41832,-5.27061 14.79561,-6.23356 1.90751,-0.41963 2.38599,-0.20711 0.83709,0.3718 -2.51153,0.93868 -14.19016,6.97727 -13.52913,6.99539 0.0902,0.003 1.00455,-0.35396 2.032,-0.79208 5.35043,-2.28142 11.41453,-3.80039 15.03098,-3.76507 0.8662,0.008 0.54788,0.14607 -1.73289,0.74914 -3.59333,0.95012 -7.8972,2.60085 -12.13122,4.65283 -3.10774,1.50617 -6.32008,3.27215 -5.14078,2.82615 5.62002,-2.12538 9.30537,-3.02925 13.335,-3.27052 l 2.413,-0.14449 -2.159,0.47564 c -5.36635,1.18219 -9.48563,2.60938 -13.716,4.75211 -3.95919,2.00538 -5.60816,3.20955 -2.23096,1.62917 4.08186,-1.91014 10.64998,-2.80496 16.94585,-2.30865 2.0393,0.16076 4.04897,0.39404 4.46595,0.51845 l 0.75816,0.22614 -0.93958,0.0217 c -3.04769,0.0708 -10.77696,2.12736 -15.31694,4.07538 -3.08126,1.32215 -6.34508,3.02051 -6.16009,3.20551 0.0554,0.0554 1.20825,-0.18018 2.56186,-0.52356 3.10025,-0.78645 6.02382,-1.15676 8.79909,-1.11453 l 2.16566,0.0329 -1.84663,0.21474 c -1.01563,0.11811 -2.90158,0.4595 -4.191,0.75866 -2.3627,0.54819 -8.68455,2.73818 -8.48381,2.93892 0.0594,0.0595 1.29371,-0.14434 2.74278,-0.45287 3.54602,-0.75501 10.10348,-0.80608 13.68366,-0.10657 2.75453,0.53819 2.63689,0.64497 -1.27,1.15292 -5.29571,0.68853 -10.75163,2.39311 -15.45198,4.82764 -2.37614,1.23074 -4.36779,2.56191 -3.21702,2.15022 0.2794,-0.1 1.59385,-0.57838 2.921,-1.06312 3.2103,-1.17261 7.16185,-2.04963 10.16757,-2.25664 2.69081,-0.18531 6.34243,0.061 6.34243,0.42789 0,0.12777 -0.22103,0.2323 -0.49119,0.2323 -0.80182,0 -6.73563,1.25066 -10.4266,2.19758 -5.91045,1.51633 -13.06057,3.62672 -12.88441,3.80288 0.051,0.051 1.56969,-0.24633 3.37494,-0.66064 5.32715,-1.22264 18.67562,-3.30782 21.17529,-3.30782 h 0.72859 l -0.68382,1.5875 c -1.82319,4.23262 -1.88219,4.26485 -10.3178,5.63348 -4.01145,0.65083 -11.118,2.19269 -10.93763,2.37305 0.0583,0.0583 1.51439,-0.0728 3.2358,-0.29141 3.22662,-0.40965 7.83325,-0.79729 12.27383,-1.03283 l 2.54,-0.13472 -4.07466,0.7253 c -4.66974,0.83121 -13.68068,2.83546 -16.11834,3.5851 l -1.651,0.50774 1.524,-0.16108 c 2.22624,-0.23532 9.77943,-0.13883 10.668,0.13629 0.5514,0.17073 0.61857,0.24196 0.24302,0.25775 -1.44282,0.0607 -10.4622,3.2067 -11.16502,3.89441 -0.16666,0.16309 -0.0793,0.19671 0.254,0.0978 1.28313,-0.38066 6.58559,-1.1416 8.763,-1.25757 1.32715,-0.0707 2.0701,-0.0782 1.651,-0.0167 -3.8572,0.5666 -14.02085,2.76621 -14.40825,3.11822 -0.10134,0.0921 0.98451,0.0714 2.413,-0.046 2.73113,-0.22437 10.17577,-0.031 12.12225,0.3148 0.9969,0.17714 0.85498,0.20717 -1.1104,0.2349 -2.78625,0.0393 -6.84609,0.61859 -10.1823,1.45293 -1.39134,0.34793 -2.57104,0.67392 -2.62152,0.72443 -0.0505,0.0505 0.91641,0.18571 2.14871,0.30046 l 2.24051,0.20862 -3.302,0.17137 c -3.57301,0.18542 -5.36911,0.54232 -9.58844,1.90535 l -2.73045,0.88204 0.35827,0.6858 c 0.80222,1.53554 2.43084,2.58315 4.03966,2.5985 0.69369,0.007 0.74293,0.0461 0.34549,0.27726 -0.2549,0.14822 -1.00676,0.23047 -1.67079,0.18277 l -1.20732,-0.0868 0.98529,1.24574 c 1.12746,1.42552 1.58133,2.41065 2.14561,4.65701 0.21968,0.87466 0.49403,1.59025 0.60965,1.59025 0.35211,0 1.4546,1.60346 1.65537,2.4075 l 0.18886,0.7565 -0.83598,-0.70342 c -0.4598,-0.38691 -0.88704,-0.65239 -0.94943,-0.59 -0.0624,0.0624 0.19023,0.59449 0.56139,1.18245 0.9793,1.55131 1.3652,2.82213 1.64862,5.42917 0.1383,1.27204 0.32054,2.75034 0.405,3.28512 l 0.15356,0.97229 -0.77507,-0.40079 c -1.09416,-0.56581 -1.16583,-0.50887 -0.51316,0.40772 0.53102,0.74573 0.53729,0.79251 0.0808,0.60233 -0.2722,-0.1134 -0.78068,-0.25432 -1.12993,-0.31316 -0.63309,-0.10668 -0.6329,-0.10578 0.0635,0.29477 0.89115,0.51255 0.89422,0.74372 0.007,0.52102 -0.66659,-0.1673 -0.67579,-0.15611 -0.254,0.30998 0.64482,0.7125 0.57132,1.75191 -0.13647,1.92956 -0.31573,0.0792 -0.78092,0.49429 -1.03378,0.92231 -0.25283,0.42804 -0.74427,0.96472 -1.09209,1.19261 -0.47797,0.31318 -0.55116,0.46585 -0.29972,0.62531 0.23238,0.14737 0.15586,0.21214 -0.25382,0.21484 -0.32258,0.003 -0.52093,0.10996 -0.44082,0.23961 0.0801,0.12965 -0.0577,0.30028 -0.30631,0.37917 -0.2486,0.0789 -1.21864,0.98994 -2.15566,2.02452 -1.58438,1.74934 -1.66349,1.89113 -1.12996,2.02506 0.31554,0.0792 0.83016,0.49083 1.14358,0.91478 0.50303,0.68037 0.51835,0.77075 0.13047,0.77075 -0.88188,0 0.0692,0.48522 2.09489,1.06873 1.12845,0.32504 2.01398,0.70425 1.96784,0.84268 -0.0461,0.1384 0.6818,0.52628 1.61769,0.86193 1.38694,0.49739 1.72352,0.54443 1.8202,0.2544 0.23005,-0.69017 1.52802,-1.75774 2.13712,-1.75774 0.33914,0 0.96374,0.12102 1.38798,0.2689 0.6836,0.23831 0.90106,0.17745 1.91145,-0.53472 0.93176,-0.65675 1.45915,-0.82757 2.88605,-0.93467 1.44095,-0.10816 1.6905,-0.0724 1.42846,0.20452 -0.54039,0.57118 -0.37296,0.63474 1.40726,0.53414 1.75694,-0.0993 3.60924,0.3918 3.60924,0.95689 0,0.14682 0.15936,0.26694 0.35414,0.26694 0.19479,0 0.70914,0.33163 1.143,0.73692 0.61471,0.57423 0.78886,0.94991 0.78886,1.7018 0,0.75046 -0.0677,0.89715 -0.3048,0.66008 -0.4382,-0.4382 -1.4732,-0.38468 -1.4732,0.0762 0,0.23707 -0.23987,0.381 -0.635,0.381 -0.52152,0 -0.63638,0.12483 -0.64273,0.6985 -0.007,0.59402 -0.0462,0.63249 -0.26487,0.25712 -0.48879,-0.83896 -1.1874,-1.01959 -1.75358,-0.45344 -0.67905,0.67908 -1.43703,0.64659 -2.67282,-0.11454 -1.3526,-0.83309 -1.96538,-0.84362 -1.76123,-0.0303 0.0844,0.33626 0.0193,0.86175 -0.14438,1.16782 l -0.29782,0.55644 -0.37319,-0.53279 c -0.4395,-0.62749 -0.92101,-0.6812 -1.36038,-0.15182 -0.3678,0.44321 -1.80226,0.50914 -2.2098,0.1016 -0.2032,-0.2032 -0.42299,-0.13578 -0.80595,0.24718 -0.48546,0.48545 -0.77488,0.52091 -3.7084,0.45429 -2.74352,-0.0623 -3.18262,-0.0175 -3.18749,0.32435 -0.004,0.2931 -0.12136,0.24627 -0.44907,-0.17952 -0.41402,-0.5379 -0.5338,-0.55896 -1.80703,-0.3175 -1.97427,0.37444 -4.61962,0.31745 -5.87817,-0.12658 -1.12135,-0.39566 -7.8618,-4.77414 -8.14964,-5.29389 -0.15253,-0.2754 -0.36542,-2.52105 -0.60097,-6.33899 -0.0587,-0.95208 -0.29832,-2.09508 -0.53243,-2.54 -0.23407,-0.4449 -0.63063,-1.49474 -0.88124,-2.33294 -0.42289,-1.41457 -0.45892,-1.46015 -0.50155,-0.635 l -0.0459,0.889 -0.206143,-1.0396 c -0.218096,-1.10014 -1.178639,-3.32375 -1.529397,-3.54055 -0.114512,-0.0708 -0.289904,0.41609 -0.389758,1.08188 l -0.181531,1.21058 -0.338931,-0.97893 c -0.405553,-1.1715 -1.320456,-2.70238 -1.61499,-2.70238 -0.11602,0 -0.294058,0.48578 -0.395658,1.0795 -0.149887,0.87609 -0.222541,0.98378 -0.385472,0.5715 -0.110437,-0.2794 -0.208809,-0.82232 -0.218625,-1.2065 -0.02037,-0.79581 -0.416824,-0.93411 -0.642223,-0.22399 -0.145653,0.45894 -1.153636,1.53574 -1.153636,1.2324 0,-0.0824 0.111469,-0.44302 0.247729,-0.80137 0.269267,-0.70826 -0.0042,-0.86995 -0.487203,-0.28803 -0.22569,0.27194 -2.258881,0.90649 -2.90449,0.90649 -0.03903,0 0.423809,-0.51633 1.028514,-1.14744 1.363319,-1.42285 1.501405,-2.12143 0.296122,-1.49818 -1.268915,0.65619 -4.713499,0.41847 -4.419468,-0.30501 0.507418,-1.24846 0.526045,-1.19279 -0.264662,-0.7902 -0.404548,0.20597 -1.021292,0.4518 -1.370542,0.54625 -0.623305,0.16862 -0.621321,0.16021 0.107447,-0.45691 l 0.742474,-0.62867 -1.758474,0.0348 c -1.384432,0.0274 -1.992921,-0.0882 -2.86086,-0.54377 -0.902679,-0.47376 -1.236345,-0.53192 -1.8415,-0.32096 -0.835898,0.29138 -0.913712,0.13843 -0.343667,-0.67541 0.567028,-0.80957 0.01217,-0.75181 -1.766623,0.18392 -1.310614,0.68939 -1.422797,0.71006 -1.422797,0.26196 0,-0.64153 -0.588989,-0.41124 -1.023197,0.40008 -0.437276,0.81706 -0.88519,0.7842 -1.801574,-0.13219 -0.736071,-0.73607 -0.758375,-0.74115 -0.9525,-0.21638 -0.185605,0.50176 -0.236696,0.47596 -0.771472,-0.38928 -0.31496,-0.50966 -0.669396,-0.92665 -0.787612,-0.92665 -0.118215,0 -0.151235,0.65723 -0.0734,1.4605 l 0.141552,1.4605 -0.951653,-0.889 -0.951654,-0.889 0.410766,0.81291 c 0.568934,1.12591 0.536919,1.1607 -0.538004,0.5846 -0.521784,-0.27967 -1.222666,-0.50851 -1.557496,-0.50851 -0.695828,0 -2.183606,-0.84984 -2.591356,-1.48023 -0.251407,-0.38865 -0.262334,-0.38698 -0.128587,0.0198 0.08041,0.24447 0.222726,0.64452 0.316256,0.889 0.15203,0.39732 0.111416,0.39301 -0.382561,-0.0408 -1.10572,-0.97097 -0.791263,-0.17725 0.481542,1.21539 1.186048,1.29772 1.251109,1.42875 0.708951,1.42721 -0.800735,-0.003 -1.80594,-0.69702 -3.168359,-2.18987 l -1.129321,-1.23746 0.534564,1.10413 c 0.294005,0.60725 0.483288,1.15538 0.420635,1.21804 -0.06265,0.0627 -0.584994,-0.47771 -1.160727,-1.20079 -1.049285,-1.31786 -1.34538,-1.42121 -0.665798,-0.23238 0.640874,1.12109 0.407935,1.11016 -0.658177,-0.0308 l -1.039178,-1.11217 0.531178,0.96702 c 0.717074,1.30543 0.669713,1.41973 -0.230823,0.55698 -0.928528,-0.88958 -0.967237,-0.69601 -0.127,0.635 0.34925,0.55327 0.635,1.05331 0.635,1.11122 0,0.0579 -0.428625,0.006 -0.9525,-0.11591 -0.523875,-0.12163 -1.443725,-0.22392 -2.044118,-0.22725 -0.84955,-0.005 -1.229756,-0.15507 -1.7145,-0.67813 l -0.622882,-0.67209 -0.03257,0.86259 c -0.02619,0.69588 -0.09454,0.56806 -0.353298,-0.66143 -0.369438,-1.7553 -0.384307,-1.70564 -0.607907,2.032 -0.151818,2.53778 -0.195818,2.72412 -0.479716,2.032 -0.71837,-1.75141 -0.798724,-1.79917 -0.641059,-0.381 0.08541,0.76835 0.306203,1.90603 0.490617,2.52817 0.184415,0.62212 0.292524,1.17393 0.240215,1.22624 -0.05231,0.0523 -0.581474,-0.34242 -1.17594,-0.87715 l -1.080849,-0.97226 0.162903,0.8255 c 0.09948,0.50414 0.06067,0.8255 -0.09972,0.8255 -0.144462,0 -0.197247,0.10583 -0.117316,0.23519 0.07993,0.12933 -0.259927,1.01515 -0.75528,1.9685 -0.517287,0.99554 -0.964591,2.28727 -1.050925,3.03479 -0.127344,1.1025 -0.221641,1.28281 -0.616929,1.17944 -0.435266,-0.11383 -0.443653,-0.0563 -0.124883,0.85754 0.18796,0.53874 0.453416,1.46531 0.589915,2.05904 0.228759,0.99512 0.208148,1.0795 -0.263895,1.0795 -0.495988,0 -0.497655,0.0159 -0.05236,0.508 0.406903,0.44963 0.412301,0.508 0.04702,0.508 -0.339884,0 -0.299429,0.16692 0.229341,0.9461 0.392853,0.5789 0.58838,1.14575 0.503819,1.4605 -0.07604,0.28294 -0.139806,0.94977 -0.141711,1.4819 -0.0026,0.57957 -0.105304,0.90456 -0.257466,0.8105 -0.1397,-0.0863 -0.254,0.0183 -0.254,0.23222 0,0.80727 -1.112281,2.68878 -1.58951,2.68878 -0.259742,0 -0.894186,0.33253 -1.409886,0.73895 -0.911383,0.71829 -2.309653,1.27392 -4.590997,1.82428 -0.878231,0.21188 -1.471215,0.64016 -2.80744,2.02769 -0.931704,0.9675 -1.859439,1.75503 -2.061581,1.75008 -0.202168,-0.005 -0.653335,-0.17235 -1.002585,-0.372 -0.90805,-0.51909 -1.40634,-0.46397 -1.721988,0.1905 -0.24765,0.5135 -0.277363,0.4659 -0.292814,-0.46863 -0.02461,-1.48849 -0.660691,-2.00097 -2.218532,-1.78745 -1.460711,0.20021 -2.306902,0.72131 -2.415672,1.48762 -0.166105,1.17015 -3.19704,1.5517 -4.311835,0.5428 -0.460296,-0.41656 -0.502735,-0.4109 -0.871908,0.11615 -0.529696,0.75623 -0.752819,0.69739 -1.029467,-0.27149 z M 140.96574,146.2394 c 4.33448,-3.26223 9.99286,-6.70358 14.38552,-8.74916 1.33536,-0.62182 2.46447,-1.16422 2.50913,-1.20533 0.0447,-0.0411 -0.15537,-0.53843 -0.4445,-1.10522 -0.28914,-0.56676 -0.52631,-1.17793 -0.52703,-1.35811 0,-0.18018 -0.26111,-0.75678 -0.57864,-1.28129 l -0.57737,-0.9537 -2.72889,1.90109 c -4.25617,2.9651 -7.62839,5.5781 -11.3538,8.79766 -3.42643,2.96114 -5.75254,5.2156 -4.27686,4.14509 0.37185,-0.26974 1.8006,-1.36091 3.175,-2.42474 3.6644,-2.8365 7.94621,-5.63237 11.08337,-7.23705 2.92674,-1.49709 4.00611,-1.74505 1.52355,-0.35001 -2.12608,1.1947 -6.36362,4.10998 -8.91728,6.13473 -2.95066,2.33953 -7.94072,6.8829 -8.98001,8.17616 -0.61285,0.7626 -0.21172,0.4899 1.49514,-1.01648 1.28296,-1.13228 3.17868,-2.69542 4.21267,-3.47364 z m -3.32597,-5.39649 c 5.72513,-4.01973 12.21438,-7.65598 16.12923,-9.03803 1.25008,-0.44133 1.57594,-0.65842 1.44738,-0.96423 -0.96417,-2.29385 -1.17904,-3.11824 -1.1952,-4.58567 -0.0276,-2.50632 1.13903,-4.47244 3.37635,-5.69016 1.80197,-0.98076 5.55082,-2.39164 5.96963,-0.0989 1.67864,9.18955 5.89188,-0.14613 6.97089,1.69085 4.03733,6.87344 2.76363,0.11723 6.99911,-1.12502 2.06359,-0.60523 0.78905,-3.85324 3.72903,-2.9234 6.3737,2.01584 -4.32472,-1.25856 -4.17556,-2.13182 8.74931,-9.00526 0.10448,-3.47021 0.70969,-7.40505 0.20368,-1.32422 1.3412,-6.6684 -3.0216,-2.66003 -0.44094,0.40512 -1.55541,-0.45254 -2.17122,-0.66098 -0.95705,-0.3239 -1.62111,-0.33523 -4.572,-0.078 -1.89879,0.16555 -3.60617,0.38692 -3.79421,0.49194 -0.18804,0.10504 0.66921,0.26934 1.905,0.36515 1.23579,0.0958 2.93267,0.33459 3.77087,0.53067 l 1.524,0.35648 -2.794,-0.13828 c -3.254,-0.16105 -7.73615,0.2336 -10.76923,0.94824 -2.2325,0.52602 -7.71681,3.1464 -8.57885,4.09893 -0.43884,0.48493 -0.43119,0.49345 0.30499,0.34044 0.53832,-0.11189 0.34242,0.0628 -0.68236,0.60838 -1.20859,0.64347 -1.53932,0.97888 -2.07712,2.1064 -0.35181,0.73761 -0.54266,1.37618 -0.42412,1.41904 0.1185,0.0429 0.8246,-0.2422 1.56908,-0.63354 1.98065,-1.04108 1.98713,-1.03333 0.46461,0.55599 -1.49749,1.56321 -5.31505,4.70514 -7.68919,6.32836 -0.8002,0.54713 -1.40554,1.04415 -1.34519,1.1045 0.39042,0.39042 9.35902,-5.64261 13.35278,-8.98212 1.39679,-1.16801 2.5396,-2.06087 2.5396,-1.98414 0,0.0767 -0.3311,0.61727 -0.73578,1.20123 -1.17001,1.68839 -4.63214,4.88633 -9.29722,8.58772 -6.61112,5.24544 -8.65841,7.31689 -10.16336,10.28324 -0.96388,1.89984 -0.75724,1.88034 0.60325,-0.0569 2.22099,-3.16256 5.9128,-6.27607 15.562,-13.12426 1.72818,-1.2265 3.52994,-2.53963 4.00396,-2.91809 l 0.86183,-0.68807 -0.19108,0.60208 c -0.10509,0.33113 -0.2227,1.48183 -0.26133,2.55707 -0.0416,1.15747 -0.23447,2.27264 -0.47286,2.73362 -0.58018,1.12194 -2.85888,3.05329 -5.29379,4.4868 -4.16991,2.45497 -6.39027,4.08734 -9.12833,6.71108 -1.53099,1.46706 -2.89817,2.88139 -3.03816,3.14301 -0.14002,0.2616 0.92273,-0.41793 2.36164,-1.51008 2.74437,-2.08301 6.1177,-4.12128 8.93408,-5.39829 1.95358,-0.8858 2.7033,-0.98904 1.42915,-0.19683 -5.02573,3.12486 -8.27233,5.64462 -11.69217,9.0746 -2.53318,2.54069 -4.53084,4.84212 -4.20299,4.84212 0.0822,0 1.54419,-0.97923 3.24877,-2.17607 z m 1.97839,-19.7073 c 0,-0.464 -0.44307,-0.1782 -0.74247,0.47894 -0.31525,0.69186 -0.3147,0.69242 0.21322,0.21466 0.2911,-0.26344 0.52925,-0.57557 0.52925,-0.6936 z"
       id="path1"
       sodipodi:nodetypes="csscscccsssscssscsscscssscssscsscscscsssccssssscsssssssssssssscssssssssssssscsssscccsscscscsssssssssscssssscsccsscccccscsccscsssssssssscssscssssssssssscsssssssccscsccccscssccccssscccsssscssssssssccssssscccssscssssccccssccssscccccccscscsccscsscsssscccssscssccssssscsssscsssssssscscsssssssssssssscscssssscssscssssscscsssscsssscsssssssssscssscssssscsssssscscsscssscssccssscsscccssssssssssscscsscsssssscccssscccsccssssssscsssscsscccsscscsssscccsssccsscssssscssssssscssscscsscsssscscscssssscsscscsccsssscssssscssssssssssscsssssssssssssscsssssssscssssccssssscsssssssscssscsssssssssssssscscsssscssssssscccsssssscscscssssscssssccsccssssssscssssssssssssscsssssssssssssscccssscscssscssssscsscsssssscsscsssscssssssccssssssssssscsssssssscssssssss" />
    <path
       style="fill:#ffffff;stroke-width:0.264583"
       id="path10"
       d="m 159.75601,125.85244 c 0.24095,0.78206 0.50045,1.5461 0.95193,2.23257 0.23588,0.22228 0.49637,1.65625 9.23891,6.32292 7.17118,1.52499 11.20609,1.70373 16.71764,-3.96466 1.9031,-1.99398 11.50253,-26.17608 -9.10618,-38.244866 -0.82257,-0.481713 3.31354,1.886448 2.47993,1.424099 -1.04648,-0.580411 -2.07905,-1.18554 -3.11857,-1.778312 -17.44879,-9.576184 -50.78533,6.268943 -53.19147,31.244759 -0.0608,0.83625 -0.0508,1.67527 -0.0563,2.51307 0.0451,0.8188 -0.0395,1.61419 -0.20111,2.41544 -0.17775,0.82041 -0.21987,1.65879 -0.25806,2.49455 -0.0538,0.67063 0.0361,1.35278 -0.07,2.0179 -0.20927,0.70273 -0.305,1.42592 -0.37143,2.15413 -0.0641,0.86995 -0.28329,1.71807 -0.39648,2.58334 -0.0531,0.78747 -0.15581,1.55057 -0.34176,2.317 -3.68856,30.61821 -4.53332,54.67033 -39.775944,62.8814 -1.031891,0.27763 -2.08779,0.46627 -3.142083,0.64069 -1.112695,0.17494 -2.237663,0.2357 -3.362174,0.26435 -1.141548,-0.0382 -2.275949,-0.24578 -3.417988,-0.34301 -1.036034,-0.0607 -2.038099,-0.35009 -3.023293,-0.65625 0.505198,0.48659 -2.501615,-1.0682 -1.81447,-0.67502 3.171195,1.81453 3.567644,2.07079 2.330669,1.29648 -1.180007,-0.58727 -2.10158,-1.51508 -3.066836,-2.38738 -1.026345,-0.93557 -1.897713,-2.02592 -2.74234,-3.12404 -0.971666,-1.17835 -1.69079,-2.50664 -2.335421,-3.88159 -0.506055,-1.03762 -0.896006,-2.11135 -1.247836,-3.2077 -0.351435,-1.06354 -0.463838,-2.18059 -0.699556,-3.27127 -0.242765,-0.94914 -0.327456,-1.9236 -0.379108,-2.89855 -0.0372,-1.15258 -0.04123,-2.30599 -0.0482,-3.45907 -0.08729,-1.23345 0.12252,-2.4456 0.286924,-3.66186 0.221176,-1.02002 0.461913,-2.03454 0.706935,-3.04884 0.226235,-1.60874 0.806535,-3.12182 1.368116,-4.63508 0.566795,-1.51176 1.209945,-2.96234 2.114703,-4.3013 1.035132,-1.33739 1.977848,-2.74083 3.016835,-4.07531 1.049517,-1.30441 2.182918,-2.53288 3.46357,-3.61152 0.592326,-0.69712 1.442903,-1.12566 2.100977,-1.73853 0.240464,-0.22393 0.426027,-0.50039 0.63904,-0.75058 l -0.06565,-0.0457 v 0 c -1.936633,-0.19643 -3.874836,-0.4353 -5.579856,0.71289 -1.344252,1.05494 -2.479145,2.32474 -3.560167,3.64496 -1.040656,1.34229 -1.991153,2.74978 -3.027807,4.09523 -0.924335,1.36079 -1.593368,2.82669 -2.168199,4.36707 -0.567669,1.51853 -1.18939,3.02863 -1.440506,4.64117 -0.260863,1.02429 -0.491886,2.0531 -0.725982,3.08433 -0.156162,1.23211 -0.367522,2.4593 -0.300299,3.70696 -0.0084,1.15271 -0.0218,2.30574 0.0099,3.45827 0.03833,0.99028 0.08957,1.99039 0.347665,2.95218 0.249836,1.099 0.376203,2.21814 0.683676,3.30433 0.37769,1.10284 0.707114,2.21573 1.249852,3.2563 0.656478,1.38353 1.325589,2.76068 2.30964,3.95105 0.830694,1.11637 1.70143,2.21849 2.704351,3.18552 0.971545,0.83913 1.815092,1.8479 2.988601,2.42108 1.847123,1.14431 3.634103,2.4155 5.763885,2.92414 0.994206,0.30025 2.013254,0.53381 3.054119,0.58549 15.654407,1.52173 35.058087,-10.93899 36.195857,-12.79519 0.42482,-0.53774 0.77609,-1.12375 1.18737,-1.67101 4.04947,-5.38322 7.37701,-10.38935 7.68173,-17.3692 0.0722,-0.5305 0.25367,-1.02383 0.43847,-1.52454 11.46578,-40.97245 -4.73513,9.08869 4.04386,-30.75018 0.18604,-0.77763 0.33103,-1.54648 0.35284,-2.3493 1.62833,-6.80778 0.29658,-14.51323 3.13112,-20.94281 2.4943,-5.83008 9.09697,-11.61557 13.31825,-16.50786 14.73316,-10.584045 31.38535,-7.46331 27.69232,-8.926 1.99172,1.518462 9.7277,4.841192 11.9773,8.95368 6.50053,9.39505 8.59603,11.75393 4.69296,22.9884 -0.17311,0.53255 -0.20475,1.06657 -0.3115,1.61434 -3.28565,11.57369 -13.89181,7.82273 -23.94164,0.89294 z"
       sodipodi:nodetypes="ccccssccccccccccccccsccccccccccccccsccscccccccccccccccccccccccccccccc" />
    <path
       style="fill:#ffffff;stroke-width:0.264583"
       id="path11"
       d="m 54.018812,61.6045 c -0.08131,-0.850087 0.04967,-1.596226 0.544388,-2.295813 0.375383,-0.532519 0.965835,-0.772123 1.497708,-1.102799 0.570661,-0.396568 1.148514,-0.784397 1.737437,-1.155457 0.751935,-0.461663 1.458018,-1.012335 2.253927,-1.396288 0.794298,-0.401852 1.516904,-0.940446 2.19887,-1.509638 0.583308,-0.290034 0.978522,-0.796417 1.461797,-1.207514 0.559435,-0.39742 1.004382,-0.917855 1.50247,-1.382575 0.396568,-0.343217 0.764987,-0.71634 1.128903,-1.094044 0.02933,-0.02479 0.122457,-0.05746 0.08799,-0.07441 -1.89542,-0.931767 -1.398551,-0.742884 -1.988445,0.728001 -0.378513,0.938803 -0.710305,1.900248 -1.035449,2.860085 -0.408366,1.168953 -1.090017,2.206789 -1.653895,3.299259 -0.608213,0.982096 -1.006596,2.066258 -1.509813,3.099162 -0.134403,0.5113 -1.149368,1.589223 -1.024496,2.115757 0.05846,0.246507 0.23394,0.449453 0.350909,0.674177 -0.03089,0.12201 -0.06177,0.244022 -0.09266,0.366032 0,0 0.06974,0.0392 0.06974,0.0392 v 0 c 0.06608,-0.10201 0.132165,-0.20402 0.198247,-0.30603 0.233026,-0.02394 0.480348,0.01204 0.699082,-0.0718 0.356788,-0.136766 0.942528,-1.687756 1.199835,-2.022978 0.48886,-1.038402 0.857581,-2.134888 1.466863,-3.116826 0.584036,-1.091565 1.258875,-2.141836 1.666246,-3.320201 0.327408,-0.954944 0.672192,-1.906778 1.044821,-2.844173 0.146343,-0.351636 0.263654,-0.713602 0.423986,-1.059026 0.04164,-0.08971 0.198433,-0.193429 0.131311,-0.266065 -0.376442,-0.40735 -0.851292,-0.715746 -1.317009,-1.016992 -0.03934,-0.02545 -0.06323,0.06916 -0.09484,0.103746 -0.225927,0.457657 -0.692493,0.74428 -1.025353,1.121645 -0.489201,0.470225 -0.931793,0.989769 -1.493363,1.380233 -0.474422,0.416447 -0.874422,0.909265 -1.440466,1.217525 -0.676566,0.561026 -1.375394,1.102144 -2.168356,1.491258 -0.774694,0.423392 -1.47969,0.962676 -2.231665,1.424673 -0.594138,0.364601 -1.172988,0.753655 -1.747554,1.147858 -0.546971,0.330486 -1.115899,0.638603 -1.497391,1.171789 -0.494091,0.726943 -0.647652,1.493263 -0.585938,2.369315 z" />
    <path
       style="fill:#ffffff;stroke-width:0.264583"
       id="path12"
       d="m 59.48777,62.197993 c 0.804492,-1.204953 1.818018,-2.276602 2.884123,-3.254042 1.147696,-1.016545 2.42521,-1.873634 3.700504,-2.719649 1.153819,-0.660919 2.172478,-1.507668 3.247769,-2.279404 0.725315,-0.487072 1.289362,-1.174938 1.937377,-1.758159 0.580019,-0.541113 1.216199,-1.008769 1.842317,-1.490618 0.590574,-0.530283 2.158265,-0.739111 -1.130144,-1.036285 -0.189198,-0.01709 -0.196807,0.324987 -0.295211,0.487481 -0.863566,1.403144 -1.572006,2.888861 -2.392664,4.316857 -0.319471,0.857118 -1.204368,1.486683 -1.49197,2.354003 -0.08395,0.253156 -0.132421,1.507535 -0.148539,1.823617 0,0 0.06932,0.03993 0.06932,0.03993 v 0 c 0.27526,-0.184697 1.277147,-0.84242 1.478233,-1.043749 0.652647,-0.653441 1.000821,-1.603978 1.546754,-2.334636 0.822163,-1.423789 1.535086,-2.905868 2.4257,-4.288972 0.101052,-0.150757 0.393623,-0.294929 0.303159,-0.452268 -1.19939,-2.086097 -1.028088,-1.346769 -1.693658,-0.696651 -0.577054,0.527852 -1.205841,1.001644 -1.777069,1.538663 -0.637741,0.586918 -1.219721,1.244754 -1.931662,1.743869 -1.045877,0.796213 -2.050613,1.641337 -3.192539,2.305828 -1.28065,0.850606 -2.568906,1.709137 -3.714562,2.738448 -1.059627,1.001689 -2.059959,2.083297 -2.918733,3.263043 z" />
    <path
       style="fill:#000000;stroke-width:0.264583"
       d="m 22.107946,250.65145 c -0.171555,-0.60074 -0.406294,-0.84939 -0.86225,-0.91332 -0.344593,-0.0483 -0.769408,-0.20518 -0.944033,-0.34861 -0.220451,-0.18106 -0.43434,-0.16378 -0.699797,0.0565 -0.559647,0.46448 -2.410592,0.34838 -3.970549,-0.24902 l -1.362154,-0.52166 -0.477203,0.57531 -0.477202,0.57529 0.120994,-0.889 c 0.06657,-0.48895 0.212725,-1.10186 0.324855,-1.36205 0.183462,-0.42579 0.117528,-0.45477 -0.659791,-0.29006 -0.475007,0.10062 -1.120828,0.41915 -1.435153,0.70781 l -0.5715,0.52485 v -0.52125 c 0,-1.02902 0.7171,-2.23224 1.615572,-2.71076 0.492046,-0.26205 0.956574,-0.63791 1.032298,-0.83521 0.18497,-0.48205 2.638055,-1.60375 3.514064,-1.60684 0.528055,-0.003 0.872543,-0.24993 1.397,-1.00603 1.232799,-1.77731 2.191199,-1.78755 5.913755,-0.0631 2.127646,0.98563 3.211565,1.18028 4.743238,0.85177 1.99599,-0.42804 2.789052,-0.78785 2.349473,-1.06587 -0.277151,-0.17529 -0.287099,-0.23651 -0.03889,-0.23942 0.183435,-0.003 1.040685,-0.33978 1.905,-0.75031 0.864314,-0.41055 2.125953,-0.82531 2.803604,-0.9217 0.711332,-0.10115 1.101778,-0.25577 0.923766,-0.36581 -0.240083,-0.14838 -0.238336,-0.21392 0.0079,-0.29599 0.240162,-0.0801 0.215318,-0.30075 -0.103241,-0.91676 -0.230743,-0.44622 -0.621136,-1.69849 -0.867516,-2.78281 -0.407061,-1.79149 -0.53414,-2.02758 -1.392025,-2.58556 -0.739431,-0.48096 -0.948399,-0.78375 -0.964116,-1.397 -0.01164,-0.4505 -0.08578,-0.62116 -0.174889,-0.40195 -0.09028,0.2222 -0.283607,-0.20135 -0.463762,-1.016 -0.33483,-1.51419 -1.606312,-4.68561 -1.62933,-4.064 -0.0077,0.20955 -0.154676,0.5656 -0.32647,0.79121 -0.259212,0.34046 -0.315648,0.16711 -0.331761,-1.01931 -0.01058,-0.78623 -0.173805,-1.71376 -0.362505,-2.06121 l -0.343086,-0.63169 -0.161581,0.635 c -0.124354,0.48871 -0.206189,0.29144 -0.355203,-0.85625 -0.106468,-0.8202 -0.355097,-1.949 -0.552476,-2.50843 -0.197379,-0.55946 -0.360336,-1.71717 -0.362135,-2.57276 l -0.0032,-1.55556 -0.623941,1.27 c -0.601371,1.22404 -0.619733,1.23783 -0.50792,0.381 0.06382,-0.48895 0.237172,-1.60552 0.385259,-2.48126 0.148061,-0.87575 0.202777,-1.69979 0.12155,-1.83121 -0.259477,-0.41984 0.870029,-6.38249 1.622637,-8.56599 0.399547,-1.15914 0.654341,-2.10675 0.566208,-2.1058 -0.08813,0 -0.433917,0.40357 -0.768403,0.89469 -1.047353,1.53787 -0.869315,0.77933 0.427725,-1.82226 0.686356,-1.37673 1.456823,-3.07467 1.712119,-3.77317 0.255297,-0.6985 0.680112,-1.58433 0.944033,-1.9685 0.490406,-0.71385 0.305779,-0.95271 -0.294481,-0.381 -0.272626,0.25966 -0.298238,0.20182 -0.140679,-0.3175 0.332899,-1.09728 1.287039,-2.40176 2.658904,-3.63519 1.118182,-1.00531 1.236213,-1.19081 0.757899,-1.19081 -0.487257,0 -0.520012,-0.0561 -0.233918,-0.40079 0.182959,-0.22045 0.854181,-0.66747 1.491588,-0.99333 0.637434,-0.32588 1.552866,-1.00277 2.034276,-1.50418 0.850582,-0.8859 0.858176,-0.9117 0.268949,-0.9117 -0.482203,0 -0.323374,-0.17135 0.775679,-0.83677 2.473192,-1.49739 2.825538,-1.77149 2.519971,-1.96035 -0.176583,-0.10914 0.150442,-0.43665 0.83902,-0.84016 1.300374,-0.76208 2.503858,-2.05124 3.21355,-3.44231 0.542607,-1.06362 2.112962,-2.57241 2.677371,-2.57241 0.196427,0 0.438574,-0.13168 0.538057,-0.29268 0.131313,-0.21246 -0.108215,-0.24644 -0.874025,-0.12399 -0.580178,0.0928 -1.054893,0.12573 -1.054893,0.0732 0,-0.0525 0.45929,-0.41376 1.020603,-0.80275 0.56134,-0.38899 0.969857,-0.75803 0.907839,-0.82005 -0.219155,-0.21915 -2.873613,0.69443 -3.539411,1.21815 -0.371263,0.29202 -0.675031,0.4283 -0.675031,0.30281 0,-0.41349 1.162235,-1.33027 2.81641,-2.22163 1.663964,-0.89662 1.628087,-1.0977 -0.109723,-0.61515 -1.189699,0.33033 -1.346729,0.21256 -0.809598,-0.60722 0.423492,-0.6463 1.107281,-1.00182 2.674911,-1.39076 l 0.889,-0.22055 -0.883418,-0.46117 c -0.882914,-0.46093 -0.883073,-0.4613 -0.267679,-0.68895 0.338667,-0.12528 0.779754,-0.36388 0.980202,-0.53025 0.298582,-0.24781 0.16338,-0.3519 -0.748321,-0.576 l -1.112784,-0.27353 1.27,-0.3393 1.27,-0.33927 -0.856113,-0.19167 c -0.470879,-0.10541 -1.099529,-0.44264 -1.397,-0.7494 l -0.540887,-0.55777 1.3335,0.17478 c 1.498388,0.1964 1.888648,-0.22021 0.457729,-0.48863 -0.481674,-0.0904 -1.349746,-0.56028 -1.929024,-1.04428 -0.579306,-0.48398 -1.185334,-0.88247 -1.34673,-0.88554 -0.161395,-0.003 0.163725,-0.21775 0.722525,-0.47704 1.145592,-0.5316 3.278452,-2.03862 3.115653,-2.20141 -0.05863,-0.0586 -0.697335,0.1784 -1.419383,0.52673 -0.722022,0.3483 -1.404885,0.63331 -1.517465,0.63331 -0.11258,0 0.344064,-0.58452 1.014756,-1.2989 0.670693,-0.71437 1.219439,-1.40565 1.219439,-1.53619 0,-0.13052 -0.522367,0.12207 -1.160833,0.56136 -1.203325,0.82791 -1.774825,0.84593 -1.03894,0.0328 0.231987,-0.25633 0.421773,-0.52599 0.421773,-0.59926 0,-0.0733 -0.600075,-0.0778 -1.3335,-0.0101 l -1.3335,0.12306 1.2065,-1.07093 c 1.308391,-1.16139 1.510241,-1.56763 0.669686,-1.34782 -0.481065,0.12581 -0.506518,0.0838 -0.245057,-0.40478 0.347213,-0.64879 0.335492,-0.65111 -0.829945,-0.16415 -0.501517,0.20955 -0.98925,0.381 -1.083865,0.381 -0.09459,0 0.428651,-0.63513 1.162817,-1.41137 1.327573,-1.40374 1.534848,-1.92743 0.555334,-1.40321 -0.282205,0.15102 -0.892069,0.27207 -1.355275,0.269 l -0.842195,-0.006 1.0795,-0.49001 c 1.175041,-0.53337 1.432242,-0.86704 0.485087,-0.62933 -0.449395,0.11279 -0.695431,-0.005 -1.008486,-0.48274 l -0.414047,-0.63193 1.706986,-0.80208 1.70696,-0.80211 -0.6985,-0.36944 c -0.384175,-0.20317 -0.6985,-0.47419 -0.6985,-0.60222 0,-0.46167 -1.153055,-1.42531 -1.593215,-1.33149 -0.382535,0.0815 -0.353881,-0.046 0.1905,-0.8482 0.352398,-0.5193 0.642276,-1.07111 0.644181,-1.22624 0.0026,-0.15512 0.07707,-0.5571 0.167031,-0.89328 0.114644,-0.42855 0.07567,-0.5569 -0.130492,-0.4295 -0.199681,0.1234 -0.295937,-0.0879 -0.300064,-0.65879 -0.0063,-0.88775 -0.369756,-2.69798 -0.584703,-2.91293 -0.181663,-0.18166 -3.087529,0.59341 -4.397851,1.17303 -0.994119,0.43974 -1.107387,0.57822 -1.107387,1.35377 0,0.53761 -0.189416,1.03534 -0.501518,1.31778 -0.275828,0.24961 -0.576659,0.69062 -0.668496,0.98002 -0.09186,0.28938 -0.315146,0.67429 -0.4962,0.85535 -0.181054,0.18105 -0.409125,0.98649 -0.506836,1.78985 -0.267467,2.199 -1.014703,3.32846 -2.751084,4.15827 -0.462148,0.22087 -0.837698,0.67194 -1.016,1.22028 -0.155575,0.47848 -0.443945,0.92269 -0.640821,0.98717 -0.26498,0.0868 -0.305488,-0.007 -0.155945,-0.36193 0.31742,-0.75271 0.661405,-3.44342 0.50374,-3.94017 -0.0784,-0.24699 0.08292,-0.99804 0.358484,-1.66902 0.528981,-1.2881 0.871749,-3.63294 0.531071,-3.63294 -0.110675,0 -0.664315,0.5261 -1.230339,1.16911 -1.21957,1.38552 -1.967997,3.24948 -2.482188,6.18194 -0.403146,2.29904 -0.619972,2.86784 -1.433883,3.76145 -0.578485,0.6351 -1.211262,0.72363 -1.936274,0.27085 -0.409072,-0.25548 -0.626136,-0.17356 -1.444678,0.54512 -1.118764,0.98229 -1.41216,0.68207 -0.629602,-0.64426 0.658521,-1.11612 0.674317,-1.79141 0.04977,-2.12569 -0.400791,-0.21449 -0.654473,-0.0689 -1.524,0.8744 -1.008486,1.09405 -1.043199,1.1095 -1.043199,0.46426 0,-0.6859 0.572214,-2.04507 2.307352,-5.48068 0.897546,-1.77716 0.946229,-1.9685 0.500829,-1.9685 -0.271356,0 -0.668972,-0.25072 -0.883602,-0.55716 l -0.390234,-0.55713 -0.703659,0.61121 c -0.387033,0.33618 -0.903711,0.82815 -1.148186,1.09328 -0.433335,0.46996 -0.4445,0.46612 -0.4445,-0.15335 0,-0.34946 0.400209,-1.19081 0.889344,-1.86962 0.489135,-0.67885 0.992955,-1.46283 1.119611,-1.74223 0.126682,-0.2794 0.755173,-1.01759 1.396682,-1.64039 0.641509,-0.62283 1.166363,-1.32842 1.166363,-1.56803 0,-0.23958 0.29128,-0.78176 0.647276,-1.20483 l 0.647251,-0.76925 -0.520251,-0.52025 c -0.286146,-0.28615 -0.663151,-0.53766 -0.837776,-0.55896 -0.533876,-0.065 -0.794835,-0.11475 -1.604328,-0.30557 -0.580416,-0.13681 -1.130458,-0.0198 -2.159,0.45884 -1.669573,0.77719 -2.299626,0.80743 -2.904172,0.13944 -0.676963,-0.74806 -1.355011,-0.63278 -1.8533,0.31501 -0.68842,1.3095 -1.998663,2.44086 -3.043529,2.62803 -1.092121,0.1956 -1.834171,0.75525 -1.834171,1.38329 0,0.24069 0.177932,0.86347 0.39542,1.38396 0.763429,1.82713 -0.284427,3.38783 -2.079096,3.0966 -0.766921,-0.12446 -0.871273,-0.0686 -1.015841,0.54369 -0.230823,0.97751 -1.0922532,1.82555 -1.8532478,1.82447 -0.3598333,0 -1.0346795,-0.23292 -1.4996583,-0.51642 L 6.7363694,150.36831 5.86888,150.90446 c -0.4771231,0.29485 -0.9790112,0.72726 -1.1153246,0.96089 -0.2039143,0.34946 -0.2492375,0.29911 -0.2555875,-0.28403 -0.00423,-0.38984 0.2391834,-1.04275 0.5409406,-1.4509 0.3017838,-0.40817 0.5589588,-1.08934 0.5715,-1.51373 0.024871,-0.83842 -0.09234,-0.93584 -0.5613664,-0.46678 -0.64897,0.64897 -0.2972065,-0.49305 0.4840816,-1.57163 0.671195,-0.92654 0.7653602,-1.23613 0.6311636,-2.07528 -0.1050661,-0.65715 -0.029263,-1.23468 0.2271183,-1.73048 0.2116667,-0.40931 0.3848365,-1.04781 0.3848365,-1.41888 0,-0.48668 0.4822031,-1.18028 1.7305337,-2.48913 0.9518121,-0.99792 2.0951562,-2.28848 2.5407672,-2.86792 1.02698,-1.33535 2.858505,-2.51492 4.491699,-2.89287 0.6985,-0.16164 1.67005,-0.3972 2.159,-0.52346 0.48895,-0.12628 1.8034,-0.91133 2.921,-1.74455 1.512014,-1.12726 2.324497,-1.55731 3.175,-1.68045 0.67474,-0.0977 1.40843,-0.41307 1.790911,-0.76986 0.356341,-0.33242 1.34755,-0.87857 2.202683,-1.2137 0.855134,-0.33514 1.967495,-0.93564 2.471923,-1.33447 0.929825,-0.73515 4.202483,-4.45818 4.202483,-4.78079 0,-0.0966 -0.364728,-0.0956 -0.810525,0.003 l -0.810524,0.17804 0.665003,-0.79031 c 0.388938,-0.46223 0.789596,-1.39052 0.965174,-2.23626 0.1651,-0.79529 0.454104,-1.88227 0.642249,-2.41554 0.350256,-0.99269 0.220398,-1.21486 -0.381132,-0.65207 -0.279347,0.26136 -0.308107,0.20524 -0.162586,-0.3175 0.09721,-0.34925 0.271356,-1.41007 0.387006,-2.35738 0.142848,-1.17033 0.42291,-2.04372 0.873786,-2.72505 0.826003,-1.24815 0.833755,-1.43751 0.03749,-0.9158 -0.803143,0.52625 -0.971021,0.51789 -0.687891,-0.0343 0.125334,-0.24447 0.297868,-1.016 0.383408,-1.7145 0.08554,-0.6985 0.233627,-1.54506 0.329062,-1.88124 0.122291,-0.43077 0.0867,-0.55755 -0.120517,-0.4295 -0.452782,0.27985 -0.365311,0.0466 0.600577,-1.60141 1.116833,-1.90559 2.30042,-4.526151 2.678616,-5.930744 0.158564,-0.58883 0.562451,-1.611657 0.897546,-2.27293 0.642329,-1.267566 0.735885,-1.581414 0.411585,-1.380993 -0.108743,0.06721 -0.156659,-0.640423 -0.106521,-1.572498 0.05016,-0.932074 -0.02513,-1.980432 -0.167216,-2.329682 -0.220398,-0.541682 -0.260774,-0.560335 -0.274691,-0.127 -0.0093,0.286755 -0.345308,-0.187511 -0.771789,-1.088972 -0.48522,-1.025684 -1.439201,-2.314708 -2.666789,-3.603414 -1.051216,-1.10355 -1.911323,-2.140214 -1.911323,-2.303727 0,-0.163486 -0.156713,-0.237119 -0.348271,-0.163618 -0.198094,0.07604 -0.827802,-0.360389 -1.4605,-1.012164 C 32.041754,80.750347 30.335139,79.284 28.861013,78.122003 25.849155,75.74787 24.69917,74.562696 23.28611,72.376417 c -0.988934,-1.530059 -2.031868,-4.191952 -2.031868,-5.185939 0,-0.664739 0.64897,-1.287542 1.585039,-1.521169 l 0.69604,-0.173699 -1.274075,-1.145487 c -0.700722,-0.630026 -1.571969,-1.653857 -1.936115,-2.275205 -0.678921,-1.158504 -0.720196,-1.520878 -0.660426,-5.796465 0.01164,-0.8382 0.01191,-2.0955 0,-2.794 -0.0217,-1.331119 0.47318,-2.593737 1.428168,-3.643656 1.177369,-1.294368 1.632981,-1.377289 8.930534,-1.625415 l 6.864773,-0.233415 5.737145,0.913156 c 3.155448,0.502232 6.352805,1.09429 7.105253,1.315641 1.311752,0.385921 3.802433,1.534504 5.449782,2.513171 l 0.779701,0.463206 1.424781,-1.052566 c 1.780116,-1.315032 4.0572,-2.483114 5.451395,-2.796354 0.587058,-0.131895 1.533737,-0.639498 2.105607,-1.129004 1.270344,-1.087358 3.625745,-2.354527 4.825815,-2.596171 0.84156,-0.169465 0.86188,-0.157797 0.381,0.218599 -0.48813,0.382085 -0.473207,0.398013 0.381,0.407141 1.667642,0.01773 2.883482,0.52877 3.988567,1.676188 1.844252,1.914922 1.983052,3.778515 0.46871,6.293326 -0.458761,0.761815 -0.960676,2.079863 -1.137391,2.986829 -0.47453,2.435383 -1.345962,3.910964 -3.81971,6.468057 -1.232456,1.273968 -2.424033,2.670598 -2.647977,3.103641 -0.381,0.736786 -0.375576,0.841243 0.08451,1.626473 0.270404,0.46154 0.781765,2.016549 1.136306,3.455591 0.354568,1.439042 0.876036,3.139493 1.158822,3.778779 0.627857,1.419331 0.635503,1.534716 0.06967,1.048782 -0.88048,-0.756153 -1.161124,-0.820976 -0.74803,-0.172773 0.587402,0.921703 1.153689,2.806515 1.57697,5.248645 0.548878,3.166904 1.050237,4.733978 1.799325,5.624222 0.744908,0.885269 0.690377,0.925327 -0.552635,0.40595 l -0.892572,-0.37293 0.554355,0.98634 c 0.304906,0.542475 1.250103,1.757204 2.100448,2.699385 1.357339,1.503918 1.466585,1.697858 0.894715,1.588532 -0.594519,-0.113639 -0.556948,-0.03403 0.43053,0.912124 0.595021,0.570151 1.157076,1.379511 1.248992,1.798559 0.195606,0.891883 1.533869,5.609564 1.801283,6.349944 0.151739,0.42006 0.05339,0.38706 -0.568087,-0.1905 -1.003908,-0.93302 -1.259152,-0.88228 -0.638968,0.127 0.278976,0.45403 1.474178,2.7686 2.655966,5.1435 1.181815,2.3749 2.791672,5.27847 3.577484,6.45237 0.785813,1.1739 1.428724,2.17556 1.428724,2.22591 0,0.0503 -0.417592,-0.0829 -0.928,-0.29622 -0.510381,-0.21326 -0.966549,-0.34918 -1.013671,-0.30208 -0.04712,0.0471 0.375285,1.44881 0.938662,3.11483 0.563377,1.66606 1.426528,4.57224 1.918123,6.45819 1.251823,4.80256 2.212102,7.68792 3.95986,11.89818 0.831771,2.00374 1.467565,3.68795 1.412822,3.74269 -0.05474,0.0547 -0.485589,-0.29882 -0.957474,-0.78568 -1.113208,-1.14855 -1.459283,-1.1304 -0.736811,0.0386 1.142682,1.84889 2.982991,5.86643 3.640163,7.94674 0.614972,1.94678 2.172891,9.0374 2.17813,9.91351 0,0.21704 -0.421825,-0.0445 -1.027218,-0.635 l -1.029415,-1.00404 0.657728,1.48879 c 1.003485,2.27144 1.825387,5.36149 2.26269,8.50704 0.453125,3.25932 1.457034,6.46893 2.955607,9.44949 0.572506,1.13863 0.975122,2.136 0.894742,2.21641 -0.08041,0.0804 -0.496649,-0.11295 -0.925036,-0.42966 -0.428361,-0.3167 -0.816346,-0.53718 -0.862224,-0.48995 -0.04585,0.0472 0.189282,0.94311 0.522525,1.99086 0.709718,2.23133 2.372471,5.207 2.909571,5.207 0.20582,0 0.85178,-0.71237 1.43542,-1.58306 1.41708,-2.11399 1.98509,-4.59052 1.78766,-7.79415 -0.15349,-2.49047 -0.20381,-2.48862 0.80078,-0.0295 0.1328,0.32507 0.25779,-0.38433 0.35825,-2.03308 0.0849,-1.39277 0.46858,-3.90345 0.85275,-5.57924 0.59124,-2.57911 0.70049,-3.63665 0.71155,-6.88772 0.0103,-3.03429 0.0716,-3.70096 0.29212,-3.175 0.44159,1.05344 0.91104,3.21866 1.26908,5.85341 l 0.33054,2.43239 -0.0936,-4.318 c -0.10425,-4.81023 -0.43418,-7.09903 -1.93061,-13.39379 -1.18891,-5.00102 -1.38856,-6.55894 -1.76655,-13.78421 -0.15348,-2.9337 -0.33544,-5.7912 -0.40433,-6.35 -0.11393,-0.92413 -0.0238,-0.81833 0.99589,1.16962 0.61664,1.20211 1.49889,2.74516 1.96059,3.429 1.42499,2.11071 3.35904,4.69768 3.44657,4.61015 0.0458,-0.0458 -0.26954,-0.82203 -0.70065,-1.725 -1.10871,-2.32214 -1.68574,-4.07768 -2.24419,-6.82747 -0.50914,-2.50698 -1.38295,-4.59756 -2.45348,-5.86978 -1.04733,-1.24471 -0.28896,-0.85376 1.12119,0.57798 0.82955,0.84225 1.64174,2.03526 2.2047,3.2385 0.49022,1.04775 0.8954,1.82848 0.9004,1.73501 0.005,-0.0935 -0.28059,-1.63656 -0.63471,-3.429 -1.29667,-6.56339 -3.08345,-11.4372 -5.36996,-14.64752 -0.81483,-1.14409 -0.83465,-1.21605 -0.28807,-1.04733 3.17653,0.98063 6.71988,5.34519 9.22205,11.35931 0.39301,0.94458 0.75917,1.67285 0.81367,1.61832 0.13092,-0.13092 -1.56175,-5.3662 -2.51568,-7.78079 -0.88326,-2.2357 -3.29756,-7.12443 -4.01818,-8.13646 -0.7012,-0.98473 -0.62558,-1.21098 0.16053,-0.48033 1.61245,1.49873 4.70217,6.70528 6.21956,10.4807 0.32779,0.81561 0.63127,1.37708 0.67437,1.24775 0.15263,-0.45789 -1.53091,-4.81486 -3.36156,-8.69966 -2.30426,-4.88989 -2.87592,-6.72713 -3.06668,-9.855647 -0.20114,-3.298561 -0.54761,-5.039969 -1.26079,-6.33685 -0.32653,-0.593725 -0.48036,-1.0795 -0.34187,-1.0795 0.52207,0 5.02375,4.779274 6.30063,6.689143 1.85422,2.773468 3.60026,6.365844 4.82835,9.934094 1.01899,2.96064 1.46217,3.95928 1.18952,2.68023 -0.0744,-0.34896 -0.31944,-1.60602 -0.54452,-2.79347 -0.84455,-4.45574 -3.17455,-10.213893 -5.58702,-13.807252 -1.23224,-1.835441 -1.32987,-2.443718 -0.22672,-1.412584 1.33022,1.243383 3.00535,3.730122 4.23156,6.281711 0.6922,1.440392 1.30493,2.572515 1.3616,2.515845 0.19487,-0.19487 -1.14128,-4.882834 -1.93403,-6.785717 -1.10527,-2.653004 -1.13037,-2.747301 -0.54099,-2.032 1.37332,1.666716 2.96984,5.947859 3.99537,10.713747 l 0.6187,2.87525 -0.12721,-2.667 c -0.21961,-4.603615 -1.46386,-10.560391 -2.9395,-14.072497 -0.40899,-0.973428 -0.70466,-1.808797 -0.65706,-1.856396 0.0476,-0.0476 0.49927,0.370311 1.00369,0.928661 1.54298,1.707859 2.74059,4.507124 3.70089,8.650235 0.25175,1.086061 0.25813,1.060767 0.1283,-0.508 -0.27959,-3.378015 -1.80002,-9.229117 -3.53116,-13.589 -0.35967,-0.905907 2.14561,1.705689 3.28946,3.429 1.09609,1.65137 2.69362,4.676246 3.35359,6.35 l 0.35055,0.889 -0.12756,-0.836163 c -0.15901,-1.042379 -1.21928,-3.682603 -2.89155,-7.200397 -1.82829,-3.845984 -1.83197,-3.875987 -0.60624,-4.925192 0.55973,-0.479108 1.25513,-1.350989 1.54533,-1.937518 0.60523,-1.223301 0.58573,-1.262618 1.15284,2.32627 0.45172,2.858717 2.10497,10.445035 2.46166,11.295829 0.12464,0.297313 0.13922,-0.236749 0.0345,-1.262829 -0.33012,-3.234029 -0.16465,-10.544757 0.26734,-11.811 l 0.38994,-1.143 0.0251,1.435259 c 0.0273,1.560168 0.92143,7.160418 1.23094,7.709773 0.10515,0.186584 0.20873,-1.680396 0.23019,-4.148879 0.0214,-2.468483 0.14081,-5.173953 0.26517,-6.012153 0.21463,-1.446609 0.23508,-1.343396 0.40277,2.032 0.1665,3.351371 1.02733,10.200957 1.31863,10.492237 0.0734,0.0734 0.13695,-1.000046 0.14126,-2.385404 0.009,-2.88081 0.31295,-5.538734 0.90985,-7.955412 0.67628,-2.737988 0.90451,-2.708063 0.782,0.102579 -0.0609,1.397 -0.0368,3.51155 0.0534,4.699 l 0.16415,2.159 0.20666,-2.032 c 0.57444,-5.64851 1.36036,-8.57549 2.71611,-10.115709 0.52628,-0.597905 1.3493,-1.738498 1.82888,-2.534655 l 0.87201,-1.447589 0.17733,4.381977 c 0.18137,4.482332 0.46752,6.96714 0.72395,6.286976 0.079,-0.20955 0.33033,-1.2954 0.55851,-2.413 0.47487,-2.326084 1.6157,-6.063774 1.64661,-5.394775 0.0114,0.245983 -0.14444,1.503283 -0.34624,2.794 -0.48754,3.118723 -0.9856,8.19568 -0.84516,8.615389 0.0617,0.184467 0.31944,-0.293264 0.57275,-1.061614 0.61243,-1.857719 1.51844,-3.781399 2.87112,-6.096 1.19679,-2.047849 3.08558,-4.673283 3.24639,-4.512469 0.0541,0.05413 -0.29631,1.202717 -0.77872,2.552462 -0.98883,2.766642 -1.93202,6.335765 -2.62258,9.924283 -0.46641,2.423689 -0.35557,3.032627 0.22564,1.239678 0.47265,-1.458145 1.95072,-4.312814 3.25308,-6.282954 1.1662,-1.764136 6.11118,-6.985 6.6159,-6.985 0.14468,0 -0.34912,0.942975 -1.09736,2.0955 -1.51217,2.329233 -2.82485,4.837165 -3.34986,6.400059 l 0.0518,-0.163173 0.29029,0.303614 c 2.03873,2.132291 7.02369,-7.346606 7.32912,-7.041198 0.0743,0.07435 -0.44484,0.854922 -1.15372,1.734635 -1.49105,1.85039 -4.82232,6.798654 -5.45343,8.100563 l -0.43095,0.889 0.5583,-0.762 c 1.21007,-1.651609 5.55508,-5.669307 7.7213,-7.139676 2.33149,-1.582525 5.94778,-3.655324 6.37726,-3.655324 0.13086,0 -1.1579,1.423405 -2.86391,3.163147 -3.53134,3.60119 -4.37417,4.750461 -2.37315,3.235933 1.35197,-1.02325 5.29627,-3.222307 5.46931,-3.04927 0.0552,0.05524 -0.66633,0.688102 -1.60354,1.40634 -0.93718,0.718264 -2.33164,1.945137 -3.09877,2.726452 l -1.39483,1.420548 1.01383,-0.489744 c 2.14495,-1.036108 9.6791,-6.821073 11.05386,-7.45841 3.925,-1.819639 3.09996,2.028463 1.35137,5.24405 -0.9923,1.824813 6.84081,-3.89261 9.53033,-5.088166 2.72458,-1.211141 -12.73726,19.240413 5.70896,1.749516 1.50516,-1.427206 19.65032,-8.262032 5.42823,2.959391 -16.27334,12.839895 4.91248,0.184641 5.71685,5.275841 l -4.57504,7.399514 6.89023,0.123472 c 0,0 -12.03225,6.81844 0.77077,9.966303 4.02877,0.99054 4.65704,3.11312 -4.17253,7.77346 -6.20614,3.27566 10.49724,16.71579 3.84793,15.44527 -9.50108,-1.81541 -0.51802,20.7597 -4.63849,16.31124 -3.80889,-4.11206 -9.55999,-6.52672 -6.84151,2.18341 1.05887,3.39269 -10.14868,-3.42938 -9.14991,3.88698 0.53175,3.89528 -7.41591,-3.55805 -13.02159,-6.01251 l -7.68001,-3.36271 -0.29964,1.12038 c -0.5079,1.89894 -1.72681,2.96124 -4.9515,4.31535 -5.93762,2.49336 -8.68153,3.98219 -12.87449,6.98574 -2.60191,1.86381 -4.46175,3.39101 -3.30502,2.71389 0.34925,-0.20445 1.47667,-0.91615 2.50534,-1.58155 3.90748,-2.52751 10.41832,-5.27061 14.79561,-6.23356 1.90751,-0.41963 2.38599,-0.20711 0.83709,0.3718 -2.51153,0.93868 -14.19016,6.97727 -13.52913,6.99539 0.0902,0.003 1.00455,-0.35396 2.032,-0.79208 5.35043,-2.28142 11.41453,-3.80039 15.03098,-3.76507 0.8662,0.008 0.54788,0.14607 -1.73289,0.74914 -3.59333,0.95012 -7.8972,2.60085 -12.13122,4.65283 -3.10774,1.50617 -6.32008,3.27215 -5.14078,2.82615 5.62002,-2.12538 9.30537,-3.02925 13.335,-3.27052 l 2.413,-0.14449 -2.159,0.47564 c -5.36635,1.18219 -9.48563,2.60938 -13.716,4.75211 -3.95919,2.00538 -5.60816,3.20955 -2.23096,1.62917 4.08186,-1.91014 10.64998,-2.80496 16.94585,-2.30865 2.0393,0.16076 4.04897,0.39404 4.46595,0.51845 l 0.75816,0.22614 -0.93958,0.0217 c -3.04769,0.0708 -10.77696,2.12736 -15.31694,4.07538 -3.08126,1.32215 -6.34508,3.02051 -6.16009,3.20551 0.0554,0.0554 1.20825,-0.18018 2.56186,-0.52356 3.10025,-0.78645 6.02382,-1.15676 8.79909,-1.11453 l 2.16566,0.0329 -1.84663,0.21474 c -1.01563,0.11811 -2.90158,0.4595 -4.191,0.75866 -2.3627,0.54819 -8.68455,2.73818 -8.48381,2.93892 0.0594,0.0595 1.29371,-0.14434 2.74278,-0.45287 3.54602,-0.75501 10.10348,-0.80608 13.68366,-0.10657 2.75453,0.53819 2.63689,0.64497 -1.27,1.15292 -5.29571,0.68853 -10.75163,2.39311 -15.45198,4.82764 -2.37614,1.23074 -4.36779,2.56191 -3.21702,2.15022 0.2794,-0.1 1.59385,-0.57838 2.921,-1.06312 3.2103,-1.17261 7.16185,-2.04963 10.16757,-2.25664 2.69081,-0.18531 6.34243,0.061 6.34243,0.42789 0,0.12777 -0.22103,0.2323 -0.49119,0.2323 -0.80182,0 -6.73563,1.25066 -10.4266,2.19758 -5.91045,1.51633 -13.06057,3.62672 -12.88441,3.80288 0.051,0.051 1.56969,-0.24633 3.37494,-0.66064 5.32715,-1.22264 18.67562,-3.30782 21.17529,-3.30782 h 0.72859 l -0.68382,1.5875 c -1.82319,4.23262 -1.88219,4.26485 -10.3178,5.63348 -4.01145,0.65083 -11.118,2.19269 -10.93763,2.37305 0.0583,0.0583 1.51439,-0.0728 3.2358,-0.29141 3.22662,-0.40965 7.83325,-0.79729 12.27383,-1.03283 l 2.54,-0.13472 -4.07466,0.7253 c -4.66974,0.83121 -13.68068,2.83546 -16.11834,3.5851 l -1.651,0.50774 1.524,-0.16108 c 2.22624,-0.23532 9.77943,-0.13883 10.668,0.13629 0.5514,0.17073 0.61857,0.24196 0.24302,0.25775 -1.44282,0.0607 -10.4622,3.2067 -11.16502,3.89441 -0.16666,0.16309 -0.0793,0.19671 0.254,0.0978 1.28313,-0.38066 6.58559,-1.1416 8.763,-1.25757 1.32715,-0.0707 2.0701,-0.0782 1.651,-0.0167 -3.8572,0.5666 -14.02085,2.76621 -14.40825,3.11822 -0.10134,0.0921 0.98451,0.0714 2.413,-0.046 2.73113,-0.22437 10.17577,-0.031 12.12225,0.3148 0.9969,0.17714 0.85498,0.20717 -1.1104,0.2349 -2.78625,0.0393 -6.84609,0.61859 -10.1823,1.45293 -1.39134,0.34793 -2.57104,0.67392 -2.62152,0.72443 -0.0505,0.0505 0.91641,0.18571 2.14871,0.30046 l 2.24051,0.20862 -3.302,0.17137 c -3.57301,0.18542 -5.36911,0.54232 -9.58844,1.90535 l -2.73045,0.88204 0.35827,0.6858 c 0.80222,1.53554 2.43084,2.58315 4.03966,2.5985 0.69369,0.007 0.74293,0.0461 0.34549,0.27726 -0.2549,0.14822 -1.00676,0.23047 -1.67079,0.18277 l -1.20732,-0.0868 0.98529,1.24574 c 1.12746,1.42552 1.58133,2.41065 2.14561,4.65701 0.21968,0.87466 0.49403,1.59025 0.60965,1.59025 0.35211,0 1.4546,1.60346 1.65537,2.4075 l 0.18886,0.7565 -0.83598,-0.70342 c -0.4598,-0.38691 -0.88704,-0.65239 -0.94943,-0.59 -0.0624,0.0624 0.19023,0.59449 0.56139,1.18245 0.9793,1.55131 1.3652,2.82213 1.64862,5.42917 0.1383,1.27204 0.32054,2.75034 0.405,3.28512 l 0.15356,0.97229 -0.77507,-0.40079 c -1.09416,-0.56581 -1.16583,-0.50887 -0.51316,0.40772 0.53102,0.74573 0.53729,0.79251 0.0808,0.60233 -0.2722,-0.1134 -0.78068,-0.25432 -1.12993,-0.31316 -0.63309,-0.10668 -0.6329,-0.10578 0.0635,0.29477 0.89115,0.51255 0.89422,0.74372 0.007,0.52102 -0.66659,-0.1673 -0.67579,-0.15611 -0.254,0.30998 0.64482,0.7125 0.57132,1.75191 -0.13647,1.92956 -0.31573,0.0792 -0.78092,0.49429 -1.03378,0.92231 -0.25283,0.42804 -0.74427,0.96472 -1.09209,1.19261 -0.47797,0.31318 -0.55116,0.46585 -0.29972,0.62531 0.23238,0.14737 0.15586,0.21214 -0.25382,0.21484 -0.32258,0.003 -0.52093,0.10996 -0.44082,0.23961 0.0801,0.12965 -0.0577,0.30028 -0.30631,0.37917 -0.2486,0.0789 -1.21864,0.98994 -2.15566,2.02452 -1.58438,1.74934 -1.66349,1.89113 -1.12996,2.02506 0.31554,0.0792 0.83016,0.49083 1.14358,0.91478 0.50303,0.68037 0.51835,0.77075 0.13047,0.77075 -0.88188,0 0.0692,0.48522 2.09489,1.06873 1.12845,0.32504 2.01398,0.70425 1.96784,0.84268 -0.0461,0.1384 0.6818,0.52628 1.61769,0.86193 1.38694,0.49739 1.72352,0.54443 1.8202,0.2544 0.23005,-0.69017 1.52802,-1.75774 2.13712,-1.75774 0.33914,0 0.96374,0.12102 1.38798,0.2689 0.6836,0.23831 0.90106,0.17745 1.91145,-0.53472 0.93176,-0.65675 1.45915,-0.82757 2.88605,-0.93467 1.44095,-0.10816 1.6905,-0.0724 1.42846,0.20452 -0.54039,0.57118 -0.37296,0.63474 1.40726,0.53414 1.75694,-0.0993 3.60924,0.3918 3.60924,0.95689 0,0.14682 0.15936,0.26694 0.35414,0.26694 0.19479,0 0.70914,0.33163 1.143,0.73692 0.61471,0.57423 0.78886,0.94991 0.78886,1.7018 0,0.75046 -0.0677,0.89715 -0.3048,0.66008 -0.4382,-0.4382 -1.4732,-0.38468 -1.4732,0.0762 0,0.23707 -0.23987,0.381 -0.635,0.381 -0.52152,0 -0.63638,0.12483 -0.64273,0.6985 -0.007,0.59402 -0.0462,0.63249 -0.26487,0.25712 -0.48879,-0.83896 -1.1874,-1.01959 -1.75358,-0.45344 -0.67905,0.67908 -1.43703,0.64659 -2.67282,-0.11454 -1.3526,-0.83309 -1.96538,-0.84362 -1.76123,-0.0303 0.0844,0.33626 0.0193,0.86175 -0.14438,1.16782 l -0.29782,0.55644 -0.37319,-0.53279 c -0.4395,-0.62749 -0.92101,-0.6812 -1.36038,-0.15182 -0.3678,0.44321 -1.80226,0.50914 -2.2098,0.1016 -0.2032,-0.2032 -0.42299,-0.13578 -0.80595,0.24718 -0.48546,0.48545 -0.77488,0.52091 -3.7084,0.45429 -2.74352,-0.0623 -3.18262,-0.0175 -3.18749,0.32435 -0.004,0.2931 -0.12136,0.24627 -0.44907,-0.17952 -0.41402,-0.5379 -0.5338,-0.55896 -1.80703,-0.3175 -1.97427,0.37444 -4.61962,0.31745 -5.87817,-0.12658 -1.12135,-0.39566 -7.8618,-4.77414 -8.14964,-5.29389 -0.15253,-0.2754 -0.36542,-2.52105 -0.60097,-6.33899 -0.0587,-0.95208 -0.29832,-2.09508 -0.53243,-2.54 -0.23407,-0.4449 -0.63063,-1.49474 -0.88124,-2.33294 -0.42289,-1.41457 -0.45892,-1.46015 -0.50155,-0.635 l -0.0459,0.889 -0.206143,-1.0396 c -0.218096,-1.10014 -1.178639,-3.32375 -1.529397,-3.54055 -0.114512,-0.0708 -0.289904,0.41609 -0.389758,1.08188 l -0.181531,1.21058 -0.338931,-0.97893 c -0.405553,-1.1715 -1.320456,-2.70238 -1.61499,-2.70238 -0.11602,0 -0.294058,0.48578 -0.395658,1.0795 -0.149887,0.87609 -0.222541,0.98378 -0.385472,0.5715 -0.110437,-0.2794 -0.208809,-0.82232 -0.218625,-1.2065 -0.02037,-0.79581 -0.416824,-0.93411 -0.642223,-0.22399 -0.145653,0.45894 -1.153636,1.53574 -1.153636,1.2324 0,-0.0824 0.111469,-0.44302 0.247729,-0.80137 0.269267,-0.70826 -0.0042,-0.86995 -0.487203,-0.28803 -0.22569,0.27194 -2.258881,0.90649 -2.90449,0.90649 -0.03903,0 0.423809,-0.51633 1.028514,-1.14744 1.363319,-1.42285 1.501405,-2.12143 0.296122,-1.49818 -1.268915,0.65619 -4.713499,0.41847 -4.419468,-0.30501 0.507418,-1.24846 0.526045,-1.19279 -0.264662,-0.7902 -0.404548,0.20597 -1.021292,0.4518 -1.370542,0.54625 -0.623305,0.16862 -0.621321,0.16021 0.107447,-0.45691 l 0.742474,-0.62867 -1.758474,0.0348 c -1.384432,0.0274 -1.992921,-0.0882 -2.86086,-0.54377 -0.902679,-0.47376 -1.236345,-0.53192 -1.8415,-0.32096 -0.835898,0.29138 -0.913712,0.13843 -0.343667,-0.67541 0.567028,-0.80957 0.01217,-0.75181 -1.766623,0.18392 -1.310614,0.68939 -1.422797,0.71006 -1.422797,0.26196 0,-0.64153 -0.588989,-0.41124 -1.023197,0.40008 -0.437276,0.81706 -0.88519,0.7842 -1.801574,-0.13219 -0.736071,-0.73607 -0.758375,-0.74115 -0.9525,-0.21638 -0.185605,0.50176 -0.236696,0.47596 -0.771472,-0.38928 -0.31496,-0.50966 -0.669396,-0.92665 -0.787612,-0.92665 -0.118215,0 -0.151235,0.65723 -0.0734,1.4605 l 0.141552,1.4605 -0.951653,-0.889 -0.951654,-0.889 0.410766,0.81291 c 0.568934,1.12591 0.536919,1.1607 -0.538004,0.5846 -0.521784,-0.27967 -1.222666,-0.50851 -1.557496,-0.50851 -0.695828,0 -2.183606,-0.84984 -2.591356,-1.48023 -0.251407,-0.38865 -0.262334,-0.38698 -0.128587,0.0198 0.08041,0.24447 0.222726,0.64452 0.316256,0.889 0.15203,0.39732 0.111416,0.39301 -0.382561,-0.0408 -1.10572,-0.97097 -0.791263,-0.17725 0.481542,1.21539 1.186048,1.29772 1.251109,1.42875 0.708951,1.42721 -0.800735,-0.003 -1.80594,-0.69702 -3.168359,-2.18987 l -1.129321,-1.23746 0.534564,1.10413 c 0.294005,0.60725 0.483288,1.15538 0.420635,1.21804 -0.06265,0.0627 -0.584994,-0.47771 -1.160727,-1.20079 -1.049285,-1.31786 -1.34538,-1.42121 -0.665798,-0.23238 0.640874,1.12109 0.407935,1.11016 -0.658177,-0.0308 l -1.039178,-1.11217 0.531178,0.96702 c 0.717074,1.30543 0.669713,1.41973 -0.230823,0.55698 -0.928528,-0.88958 -0.967237,-0.69601 -0.127,0.635 0.34925,0.55327 0.635,1.05331 0.635,1.11122 0,0.0579 -0.428625,0.006 -0.9525,-0.11591 -0.523875,-0.12163 -1.443725,-0.22392 -2.044118,-0.22725 -0.84955,-0.005 -1.229756,-0.15507 -1.7145,-0.67813 l -0.622882,-0.67209 -0.03257,0.86259 c -0.02619,0.69588 -0.09454,0.56806 -0.353298,-0.66143 -0.369438,-1.7553 -0.384307,-1.70564 -0.607907,2.032 -0.151818,2.53778 -0.195818,2.72412 -0.479716,2.032 -0.71837,-1.75141 -0.798724,-1.79917 -0.641059,-0.381 0.08541,0.76835 0.306203,1.90603 0.490617,2.52817 0.184415,0.62212 0.292524,1.17393 0.240215,1.22624 -0.05231,0.0523 -0.581474,-0.34242 -1.17594,-0.87715 l -1.080849,-0.97226 0.162903,0.8255 c 0.09948,0.50414 0.06067,0.8255 -0.09972,0.8255 -0.144462,0 -0.197247,0.10583 -0.117316,0.23519 0.07993,0.12933 -0.259927,1.01515 -0.75528,1.9685 -0.517287,0.99554 -0.964591,2.28727 -1.050925,3.03479 -0.127344,1.1025 -0.221641,1.28281 -0.616929,1.17944 -0.435266,-0.11383 -0.443653,-0.0563 -0.124883,0.85754 0.18796,0.53874 0.453416,1.46531 0.589915,2.05904 0.228759,0.99512 0.208148,1.0795 -0.263895,1.0795 -0.495988,0 -0.497655,0.0159 -0.05236,0.508 0.406903,0.44963 0.412301,0.508 0.04702,0.508 -0.339884,0 -0.299429,0.16692 0.229341,0.9461 0.392853,0.5789 0.58838,1.14575 0.503819,1.4605 -0.07604,0.28294 -0.139806,0.94977 -0.141711,1.4819 -0.0026,0.57957 -0.105304,0.90456 -0.257466,0.8105 -0.1397,-0.0863 -0.254,0.0183 -0.254,0.23222 0,0.80727 -1.112281,2.68878 -1.58951,2.68878 -0.259742,0 -0.894186,0.33253 -1.409886,0.73895 -0.911383,0.71829 -2.309653,1.27392 -4.590997,1.82428 -0.878231,0.21188 -1.471215,0.64016 -2.80744,2.02769 -0.931704,0.9675 -1.859439,1.75503 -2.061581,1.75008 -0.202168,-0.005 -0.653335,-0.17235 -1.002585,-0.372 -0.90805,-0.51909 -1.40634,-0.46397 -1.721988,0.1905 -0.24765,0.5135 -0.277363,0.4659 -0.292814,-0.46863 -0.02461,-1.48849 -0.660691,-2.00097 -2.218532,-1.78745 -1.460711,0.20021 -2.306902,0.72131 -2.415672,1.48762 -0.166105,1.17015 -3.19704,1.5517 -4.311835,0.5428 -0.460296,-0.41656 -0.502735,-0.4109 -0.871908,0.11615 -0.529696,0.75623 -0.752819,0.69739 -1.029467,-0.27149 z M 140.96574,146.2394 c 4.33448,-3.26223 9.99286,-6.70358 14.38552,-8.74916 1.33536,-0.62182 2.46447,-1.16422 2.50913,-1.20533 0.0447,-0.0411 -0.15537,-0.53843 -0.4445,-1.10522 -0.28914,-0.56676 -0.52631,-1.17793 -0.52703,-1.35811 0,-0.18018 -0.26111,-0.75678 -0.57864,-1.28129 l -0.57737,-0.9537 -2.72889,1.90109 c -4.25617,2.9651 -7.62839,5.5781 -11.3538,8.79766 -3.42643,2.96114 -5.75254,5.2156 -4.27686,4.14509 0.37185,-0.26974 1.8006,-1.36091 3.175,-2.42474 3.6644,-2.8365 7.94621,-5.63237 11.08337,-7.23705 2.92674,-1.49709 4.00611,-1.74505 1.52355,-0.35001 -2.12608,1.1947 -6.36362,4.10998 -8.91728,6.13473 -2.95066,2.33953 -7.94072,6.8829 -8.98001,8.17616 -0.61285,0.7626 -0.21172,0.4899 1.49514,-1.01648 1.28296,-1.13228 3.17868,-2.69542 4.21267,-3.47364 z m -3.32597,-5.39649 c 5.72513,-4.01973 12.21438,-7.65598 16.12923,-9.03803 1.25008,-0.44133 1.57594,-0.65842 1.44738,-0.96423 -0.96417,-2.29385 -1.17904,-3.11824 -1.1952,-4.58567 -0.0276,-2.50632 1.13903,-4.47244 3.37635,-5.69016 1.80197,-0.98076 5.55082,-2.39164 5.96963,-0.0989 1.67864,9.18955 5.89188,-0.14613 6.97089,1.69085 4.03733,6.87344 2.76363,0.11723 6.99911,-1.12502 2.06359,-0.60523 0.78905,-3.85324 3.72903,-2.9234 6.3737,2.01584 -4.32472,-1.25856 -4.17556,-2.13182 8.74931,-9.00526 0.10448,-3.47021 0.70969,-7.40505 0.20368,-1.32422 1.3412,-6.6684 -3.0216,-2.66003 -0.44094,0.40512 -1.55541,-0.45254 -2.17122,-0.66098 -0.95705,-0.3239 -1.62111,-0.33523 -4.572,-0.078 -1.89879,0.16555 -3.60617,0.38692 -3.79421,0.49194 -0.18804,0.10504 0.66921,0.26934 1.905,0.36515 1.23579,0.0958 2.93267,0.33459 3.77087,0.53067 l 1.524,0.35648 -2.794,-0.13828 c -3.254,-0.16105 -7.73615,0.2336 -10.76923,0.94824 -2.2325,0.52602 -7.71681,3.1464 -8.57885,4.09893 -0.43884,0.48493 -0.43119,0.49345 0.30499,0.34044 0.53832,-0.11189 0.34242,0.0628 -0.68236,0.60838 -1.20859,0.64347 -1.53932,0.97888 -2.07712,2.1064 -0.35181,0.73761 -0.54266,1.37618 -0.42412,1.41904 0.1185,0.0429 0.8246,-0.2422 1.56908,-0.63354 1.98065,-1.04108 1.98713,-1.03333 0.46461,0.55599 -1.49749,1.56321 -5.31505,4.70514 -7.68919,6.32836 -0.8002,0.54713 -1.40554,1.04415 -1.34519,1.1045 0.39042,0.39042 9.35902,-5.64261 13.35278,-8.98212 1.39679,-1.16801 2.5396,-2.06087 2.5396,-1.98414 0,0.0767 -0.3311,0.61727 -0.73578,1.20123 -1.17001,1.68839 -4.63214,4.88633 -9.29722,8.58772 -6.61112,5.24544 -8.65841,7.31689 -10.16336,10.28324 -0.96388,1.89984 -0.75724,1.88034 0.60325,-0.0569 2.22099,-3.16256 5.9128,-6.27607 15.562,-13.12426 1.72818,-1.2265 3.52994,-2.53963 4.00396,-2.91809 l 0.86183,-0.68807 -0.19108,0.60208 c -0.10509,0.33113 -0.2227,1.48183 -0.26133,2.55707 -0.0416,1.15747 -0.23447,2.27264 -0.47286,2.73362 -0.58018,1.12194 -2.85888,3.05329 -5.29379,4.4868 -4.16991,2.45497 -6.39027,4.08734 -9.12833,6.71108 -1.53099,1.46706 -2.89817,2.88139 -3.03816,3.14301 -0.14002,0.2616 0.92273,-0.41793 2.36164,-1.51008 2.74437,-2.08301 6.1177,-4.12128 8.93408,-5.39829 1.95358,-0.8858 2.7033,-0.98904 1.42915,-0.19683 -5.02573,3.12486 -8.27233,5.64462 -11.69217,9.0746 -2.53318,2.54069 -4.53084,4.84212 -4.20299,4.84212 0.0822,0 1.54419,-0.97923 3.24877,-2.17607 z m 1.97839,-19.7073 c 0,-0.464 -0.44307,-0.1782 -0.74247,0.47894 -0.31525,0.69186 -0.3147,0.69242 0.21322,0.21466 0.2911,-0.26344 0.52925,-0.57557 0.52925,-0.6936 z"
       id="path2"
       sodipodi:nodetypes="csscscccsssscssscsscscssscssscsscscscsssccssssscsssssssssssssscssssssssssssscsssscccsscscscsssssssssscssssscsccsscccccscsccscsssssssssscssscssssssssssscsssssssccscsccccscssccccssscccsssscssssssssccssssscccssscssssccccssccssscccccccscscsccscsscsssscccssscssccssssscsssscsssssssscscsssssssssssssscscssssscssscssssscscsssscsssscsssssssssscssscssssscsssssscscsscssscssccssscsscccssssssssssscscsscsssssscccssscccsccssssssscsssscsscccsscscsssscccsssccsscssssscssssssscssscscsscsssscscscssssscsscscsccsssscssssscssssssssssscsssssssssssssscsssssssscssssccssssscsssssssscssscsssssssssssssscscsssscssssssscccsssssscscscssssscssssccsccssssssscssssssssssssscsssssssssssssscccssscscssscssssscsscsssssscsscsssscssssssccssssssssssscsssssssscssssssss" />
    <path
       style="fill:#ffffff;stroke-width:0.264583"
       id="path3"
       d="m 159.75601,125.85244 c 0.24095,0.78206 0.50045,1.5461 0.95193,2.23257 0.23588,0.22228 0.49637,1.65625 9.23891,6.32292 7.17118,1.52499 11.20609,1.70373 16.71764,-3.96466 6.49831,-6.80862 7.13355,-31.591501 -3.81523,-37.664072 -1.04648,-0.580411 -5.59282,-5.261516 -17.03311,-5.994839 -14.81358,-1.115077 -32.09978,10.880775 -39.73606,41.924281 -6.71019,27.79082 -7.25359,67.37131 -41.563295,73.10141 -15.825992,-2.45092 -16.767663,-2.90284 -22.080126,-13.93277 -1.287241,-5.47326 -3.315097,-21.06165 7.828894,-30.44777 0.592326,-0.69712 1.442903,-1.12566 2.100977,-1.73853 0.240464,-0.22393 0.426027,-0.50039 0.63904,-0.75058 l -0.06565,-0.0457 v 0 c -1.936633,-0.19643 -3.874836,-0.4353 -5.579856,0.71289 -5.075081,4.4654 -5.666961,4.64138 -9.717592,13.98906 -1.690867,18.71314 -0.639256,28.73681 13.436601,34.70255 12.591705,5.33671 30.179677,0.94133 42.546787,-18.15142 8.54363,-11.35759 15.17173,-46.28885 15.37306,-49.7118 4.7205,-16.53004 9.04164,-24.98526 20.33149,-38.494456 7.97501,-5.018517 14.16455,-7.289485 20.2112,-5.571872 8.17869,2.884706 10.60111,5.102222 12.85071,8.371408 4.48421,4.74648 4.04372,14.1752 2.34089,23.98702 -3.28565,11.57369 -12.97565,9.00065 -23.02548,2.07086 z"
       sodipodi:nodetypes="ccccscscccsccsccscccccccc" />
    <path
       style="fill:none;stroke:#000000;stroke-width:0.264583px;stroke-linecap:butt;stroke-linejoin:miter;stroke-opacity:1"
       d="m 50.686641,58.786053 c 1.195303,-0.135692 2.321722,-0.598972 3.483618,-0.870905 0.74839,-0.175154 1.519955,-0.244036 2.264352,-0.435451 0.276905,-0.0712 0.508331,-0.271841 0.783812,-0.348364 0.773642,-0.2149 1.571112,-0.33337 2.351442,-0.522542 0.178435,-0.04326 0.348364,-0.11612 0.522544,-0.17418 0.261271,-0.08709 0.526767,-0.162409 0.783813,-0.261273 0.121173,-0.0466 0.228314,-0.124749 0.348363,-0.174181 0.373886,-0.153953 0.759518,-0.278543 1.132176,-0.435451 0.179478,-0.07557 0.348361,-0.174181 0.522542,-0.261271 0.05806,-0.02903 0.112598,-0.06656 0.17418,-0.08709 0.739997,-0.246666 0.04971,0.09335 0.522544,-0.261274 0.05193,-0.03895 0.112599,-0.06656 0.174181,-0.08709 0.02754,-0.0092 0.06656,0.02053 0.08709,0 0.02053,-0.02053 -0.02053,-0.06656 0,-0.08709 0.02053,-0.02053 0.06656,0.02053 0.08709,0 0.02053,-0.02053 -0.01299,-0.06112 0,-0.08709 0.01836,-0.03672 0.05806,-0.05806 0.08709,-0.08709 0.02903,-0.11612 0.04264,-0.237228 0.08709,-0.348361 0.01524,-0.03812 0.05806,-0.05806 0.08709,-0.08709 0.05806,-0.05806 0.108495,-0.124915 0.17418,-0.17418 0.05193,-0.03895 0.120172,-0.05108 0.174184,-0.08709 0.03416,-0.02278 0.05806,-0.05806 0.08709,-0.08709 0.05806,-0.05806 0.128635,-0.10586 0.17418,-0.174181 0.01611,-0.02416 -0.01299,-0.06112 0,-0.08709 0.09628,-0.192561 0.05405,-0.02703 0.174181,-0.08709 0.03672,-0.01836 0.05806,-0.05806 0.08709,-0.08709"
       id="path4" />
    <path
       style="fill:none;stroke:#000000;stroke-width:0.264583px;stroke-linecap:butt;stroke-linejoin:miter;stroke-opacity:1"
       d="m 61.485856,55.128255 -0.435451,0.609631 5.225426,-2.699803 -3.135256,1.045086"
       id="path5" />
    <path
       style="fill:none;stroke:#000000;stroke-width:0.264583px;stroke-linecap:butt;stroke-linejoin:miter;stroke-opacity:1"
       d="m 62.09549,54.954071 -0.609634,0.08709"
       id="path6" />
    <path
       style="fill:none;stroke:#000000;stroke-width:0.264583px;stroke-linecap:butt;stroke-linejoin:miter;stroke-opacity:1"
       d="m 60.26659,55.389525 c -1.277935,0.283986 -0.32322,0.0053 -1.306357,0.435452 -0.286451,0.125322 -0.582292,0.228107 -0.870905,0.348361 -0.05992,0.02498 -0.111204,0.07135 -0.17418,0.08709 -0.171313,0.04283 -0.348361,0.05806 -0.522544,0.08709"
       id="path7" />
    <path
       style="fill:none;stroke:#000000;stroke-width:0.264583px;stroke-linecap:butt;stroke-linejoin:miter;stroke-opacity:1"
       d="m 56.086247,56.957152 c -0.11612,0.02903 -0.23224,0.05806 0,0 z"
       id="path8" />
    <path
       style="fill:none;stroke:#000000;stroke-width:0.264583px;stroke-linecap:butt;stroke-linejoin:miter;stroke-opacity:1"
       d="m 55.563706,57.131333 0.17418,-0.08709 c 3.398778,-1.235915 -1.811438,0.665356 2.090172,-0.783813 0.637054,-0.23662 1.28208,-0.451804 1.91599,-0.696724 2.630753,-1.016427 1.183015,-0.572321 3.831979,-1.480537 3.688772,-1.135007 -0.882006,0.320729 1.91599,-0.696724 0.37108,-0.134938 0.767064,-0.198022 1.132176,-0.348362 0.134218,-0.05527 0.220935,-0.191765 0.348362,-0.261271 0.194091,-0.105868 0.399892,-0.191358 0.609633,-0.261272 0.05508,-0.01836 0.127733,0.03484 0.174181,0 0.380568,-0.285425 0.01674,-0.261271 0.261271,-0.261271"
       id="path9" />
    <circle
       id="path21"
       style="fill:#ffffff;stroke:#ffffff;stroke-width:0.264583;stroke-opacity:1"
       cx="62.09549"
       cy="67.059647"
       r="0.0012615487" />
    <path
       style="fill:#ffffff;stroke:#ffffff;stroke-width:0.0289999;stroke-opacity:1"
       id="path29"
       d="m 47.544304,57.66826 c 0.340926,-0.05726 0.677267,-0.139319 1.014095,-0.217088 0.392684,-0.08963 0.787104,-0.172728 1.176438,-0.276553 C 57.45011,55.447794 70.958417,46.581105 70.504806,46.97329 58.236576,57.58023 50.89291,59.464476 53.023314,63.082194 56.806349,61.900536 72.159207,47.725872 70.72516,47.361126 69.735715,46.34722 57.041128,54.452368 50.96039,55.305418 c -0.04159,0.0058 -0.08381,0.0061 -0.125433,0.01169 -0.02877,0.0039 -0.05659,0.01376 -0.08547,0.01667 -0.02111,0.0021 -0.04243,-0.0011 -0.06364,-0.0016 z"
       sodipodi:nodetypes="cccsccccccc" />
    <path
       style="fill:#ffffff;stroke:#ffffff;stroke-width:0.0289999;stroke-opacity:1"
       id="path30"
       d="m 59.312997,58.656664 c 0.369869,-0.190207 0.754589,-0.349822 1.134309,-0.519107 0.4026,-0.1821 0.809415,-0.354804 1.211587,-0.53783 4.214378,-2.526716 12.5688,-6.51762 12.045969,-7.590526 -2.368959,0.269095 -9.420936,9.414088 -12.325463,18.282291 -0.08133,0.201158 -0.132289,0.411933 -0.200213,0.617633 -0.02133,0.06455 -0.04584,0.12805 -0.06577,0.193048 -0.03947,0.128773 -0.07262,0.259419 -0.111495,0.388371 -0.08106,0.326583 -0.200369,0.641837 -0.299014,0.96307 -0.02899,0.152369 -0.08859,0.296683 -0.129865,0.445442 -0.0195,0.07026 -0.03146,0.142402 -0.0474,0.213556 -0.04695,0.160258 -0.106211,0.316145 -0.15291,0.476483 -0.02074,0.02148 0.004,0.119351 -0.01177,0.138229 -0.0056,0.0067 -0.01873,-0.01061 -0.02574,-0.0053 -0.0061,0.0046 -0.0076,0.05639 -0.0084,0.06985 -0.01267,0.07384 -0.0063,0.149338 -0.01013,0.223983 0.0031,0.03458 -0.0024,0.06882 -0.0011,0.103346 l 3.516427,-1.79016 v 0 c 0.0016,-0.02835 -0.003,-0.05661 0.0021,-0.08483 0.0021,-0.0544 0.01754,-0.104267 0.03517,-0.155371 0.005,-0.01006 0.02447,-0.04653 0.02442,-0.058 -1.11e-4,-0.0191 -0.0094,-0.03716 -0.01135,-0.05616 -0.0029,-0.02869 0.01696,-0.05555 0.01921,-0.08347 0.02334,-0.15273 0.06431,-0.302609 0.100907,-0.452522 0.05316,-0.225927 -0.01357,0.04917 0.0517,-0.191341 0.02842,-0.104685 0.04614,-0.211524 0.07126,-0.316831 0.0098,-0.04113 0.02233,-0.08156 0.03349,-0.122343 0.07529,-0.313177 0.149746,-0.626441 0.240829,-0.935545 1.182533,-6.9263 5.158362,-9.722117 8.415771,-15.805583 0.191127,-0.541361 2.049177,-2.739502 1.004305,-2.773993 -2.25406,0.366611 -6.570132,4.219631 -14.506834,9.363608 z"
       sodipodi:nodetypes="cccccssccsccssccccsccccccssccsccc" />
  </g>
</svg>
